0
SECTION
2
HEADER
9
$ANGDIR
70
0
9
$CHAMFERA
40
10
9
$CHAMFERB
40
10
9
$CLAYER
8
Layer_1
9
$EXTMAX
10
545.118701338624646268727
20
404.44452362158517644275
9
$EXTMIN
10
92.5025782987192144446453
20
31.6399599328022986810538
9
$LIMMAX
10
594
20
420
9
$LIMMIN
10
0
20
0
9
$LTSCALE
40
10
9
$PLINEGEN
70
0
9
$TEXTSIZE
40
20
9
$GRIDUNIT
10
10
20
10
9
$SNAPUNIT
10
1
20
1
0
ENDSEC
0
SECTION
2
TABLES
0
TABLE
2
STYLE
70
1
0
STYLE
2
STANDARD
70
0
40
0
41
1
50
0
71
0
42
0.20000000000000001110223
3
txt
4

0
ENDTAB
0
TABLE
2
LTYPE
70
14
0
LTYPE
2
CONTINUOUS
70
0
3
Solid line
72
65
73
0
40
0
0
LTYPE
2
DOT
70
0
3
............................................
72
65
73
2
40
0.25
49
0
49
-0.25
0
LTYPE
2
HIDDEN
70
0
3
_ _ _ _ _ _ _ _ _ _ _ _ _ _ _ _ _ _ _ _ _ _ 
72
65
73
2
40
0.375
49
0.25
49
-0.125
0
LTYPE
2
TSLONGDASH
70
0
3
__ __ __ __ __ __ __ __ __ __ __ __ __ __ _ 
72
65
73
2
40
1.28000000000000002664535
49
1
49
-0.280000000000000026645353
0
LTYPE
2
TSDASHDOT
70
0
3
______ . ______ . ______ . ______ . ______ .
72
65
73
4
40
1.28000000000000002664535
49
1
49
-0.140000000000000013322676
49
0
49
-0.140000000000000013322676
0
LTYPE
2
TSCENTER
70
0
3
______ _ ______ _ ______ _ ______ _ ______ _
72
65
73
4
40
2
49
1.5
49
-0.179999999999999993338662
49
0.140000000000000013322676
49
-0.179999999999999993338662
0
LTYPE
2
TSPHANTOM
70
0
3
_____ _ _ _____ _ _ _____ _ _ _____ _ _ ____
72
65
73
6
40
2.5
49
1.62999999999999989341859
49
-0.190000000000000002220446
49
0.149999999999999994448885
49
-0.190000000000000002220446
49
0.149999999999999994448885
49
-0.190000000000000002220446
0
LTYPE
2
DASHED
70
0
3
__ __ __ __ __ __ __ __ __ __ __ __ __ __ __
72
65
73
2
40
0.75
49
0.5
49
-0.25
0
LTYPE
2
CENTER
70
0
3
____ _ ____ _ ____ _ ____ _ ____ _ ____ _ __
72
65
73
4
40
2
49
1.25
49
-0.25
49
0.25
49
-0.25
0
LTYPE
2
PHANTOM
70
0
3
_____ _ _ _____ _ _ _____ _ _ _____ _ _ ____
72
65
73
6
40
2.5
49
1.25
49
-0.25
49
0.25
49
-0.25
49
0.25
49
-0.25
0
LTYPE
2
DASHDOT
70
0
3
__ . __ . __ . __ . __ . __ . __ . __ . __ .
72
65
73
4
40
1
49
0.5
49
-0.25
49
0
49
-0.25
0
LTYPE
2
BORDER
70
0
3
__ __ . __ __ . __ __ . __ __ . __ __ . __ _
72
65
73
6
40
1.75
49
0.5
49
-0.25
49
0.5
49
-0.25
49
0
49
-0.25
0
LTYPE
2
DIVIDE
70
0
3
__ . . __ . . __ . . __ . . __ . . __ . . __
72
65
73
6
40
1.25
49
0.5
49
-0.25
49
0
49
-0.25
49
0
49
-0.25
0
ENDTAB
0
TABLE
2
LAYER
70
3
0
LAYER
2
Layer_1
70
0
62
7
6
CONTINUOUS
0
LAYER
2
Layer_2
70
0
62
7
6
CONTINUOUS
0
LAYER
2
Layer_3
70
0
62
7
6
CONTINUOUS
0
ENDTAB
0
ENDSEC
0
SECTION
2
ENTITIES
0
LINE
8
Layer_1
6
CONTINUOUS
62
7
10
97.5025783120355242772348
20
308.639959932802298681054
11
417.502578312035552698944
21
308.639959932802298681054
0
LINE
8
Layer_1
6
CONTINUOUS
62
7
10
417.50257829765064343519
20
201.83995993280228731237
11
97.5025782976506718568999
21
201.83995993280228731237
0
LINE
8
Layer_1
6
CONTINUOUS
62
7
10
98.5025783120355242772348
20
197.639959932802298681054
11
418.502578312035552698944
21
197.639959932802298681054
0
LINE
8
Layer_1
6
CONTINUOUS
62
7
10
418.502578303617383426172
20
135.139959932802298681054
11
98.5025783036174118478812
21
135.139959932802298681054
0
CIRCLE
8
Layer_1
6
CONTINUOUS
62
7
10
162.941025499226697093036
20
174.201512745611125865253
40
2.56155281280881563787943
0
CIRCLE
8
Layer_1
6
CONTINUOUS
62
7
10
162.941025499226697093036
20
168.201512745611125865253
40
2.56155281280881563787943
0
CIRCLE
8
Layer_1
6
CONTINUOUS
62
7
10
162.941025499226697093036
20
162.201512745611125865253
40
2.56155281280881563787943
0
CIRCLE
8
Layer_1
6
CONTINUOUS
62
7
10
162.941025499226697093036
20
180.201512745611125865253
40
2.56155281280881563787943
0
CIRCLE
8
Layer_1
6
CONTINUOUS
62
7
10
162.941025499226697093036
20
156.201512745611125865253
40
2.56155281280881563787943
0
CIRCLE
8
Layer_1
6
CONTINUOUS
62
7
10
162.941025499226697093036
20
150.201512745611125865253
40
2.56155281280881563787943
0
CIRCLE
8
Layer_1
6
CONTINUOUS
62
7
10
168.941025499226697093036
20
177.201512745611125865253
40
2.56155281280881563787943
0
CIRCLE
8
Layer_1
6
CONTINUOUS
62
7
10
168.941025499226697093036
20
171.201512745611125865253
40
2.56155281280881563787943
0
CIRCLE
8
Layer_1
6
CONTINUOUS
62
7
10
168.941025499226697093036
20
183.201512745611125865253
40
2.56155281280881563787943
0
CIRCLE
8
Layer_1
6
CONTINUOUS
62
7
10
168.941025499226697093036
20
165.201512745611125865253
40
2.56155281280881563787943
0
CIRCLE
8
Layer_1
6
CONTINUOUS
62
7
10
168.941025499226697093036
20
159.201512745611125865253
40
2.56155281280881563787943
0
CIRCLE
8
Layer_1
6
CONTINUOUS
62
7
10
168.941025499226697093036
20
153.201512745611125865253
40
2.56155281280881563787943
0
CIRCLE
8
Layer_1
6
CONTINUOUS
62
7
10
168.941025499226697093036
20
147.201512745611125865253
40
2.56155281280881563787943
0
CIRCLE
8
Layer_1
6
CONTINUOUS
62
7
10
156.941025499226697093036
20
153.201512745611125865253
40
2.56155281280881563787943
0
CIRCLE
8
Layer_1
6
CONTINUOUS
62
7
10
156.941025499226697093036
20
147.201512745611125865253
40
2.56155281280881563787943
0
CIRCLE
8
Layer_1
6
CONTINUOUS
62
7
10
156.941025499226697093036
20
159.201512745611125865253
40
2.56155281280881563787943
0
CIRCLE
8
Layer_1
6
CONTINUOUS
62
7
10
156.941025499226697093036
20
165.201512745611125865253
40
2.56155281280881563787943
0
CIRCLE
8
Layer_1
6
CONTINUOUS
62
7
10
156.941025499226697093036
20
171.201512745611125865253
40
2.56155281280881563787943
0
CIRCLE
8
Layer_1
6
CONTINUOUS
62
7
10
156.941025499226697093036
20
177.201512745611125865253
40
2.56155281280881563787943
0
CIRCLE
8
Layer_1
6
CONTINUOUS
62
7
10
156.941025499226697093036
20
183.201512745611125865253
40
2.56155281280881563787943
0
CIRCLE
8
Layer_1
6
CONTINUOUS
62
7
10
174.941025499226697093036
20
174.201512745611125865253
40
2.56155281280881563787943
0
CIRCLE
8
Layer_1
6
CONTINUOUS
62
7
10
174.941025499226697093036
20
168.201512745611125865253
40
2.56155281280881563787943
0
CIRCLE
8
Layer_1
6
CONTINUOUS
62
7
10
174.941025499226697093036
20
162.201512745611125865253
40
2.56155281280881563787943
0
CIRCLE
8
Layer_1
6
CONTINUOUS
62
7
10
174.941025499226697093036
20
180.201512745611125865253
40
2.56155281280881563787943
0
CIRCLE
8
Layer_1
6
CONTINUOUS
62
7
10
174.941025499226697093036
20
156.201512745611125865253
40
2.56155281280881563787943
0
CIRCLE
8
Layer_1
6
CONTINUOUS
62
7
10
174.941025499226697093036
20
150.201512745611125865253
40
2.56155281280881563787943
0
CIRCLE
8
Layer_1
6
CONTINUOUS
62
7
10
150.941025499226697093036
20
174.201512745611125865253
40
2.56155281280881563787943
0
CIRCLE
8
Layer_1
6
CONTINUOUS
62
7
10
150.941025499226697093036
20
168.201512745611125865253
40
2.56155281280881563787943
0
CIRCLE
8
Layer_1
6
CONTINUOUS
62
7
10
150.941025499226697093036
20
162.201512745611125865253
40
2.56155281280881563787943
0
CIRCLE
8
Layer_1
6
CONTINUOUS
62
7
10
150.941025499226697093036
20
180.201512745611125865253
40
2.56155281280881563787943
0
CIRCLE
8
Layer_1
6
CONTINUOUS
62
7
10
150.941025499226697093036
20
156.201512745611125865253
40
2.56155281280881563787943
0
CIRCLE
8
Layer_1
6
CONTINUOUS
62
7
10
150.941025499226697093036
20
150.201512745611125865253
40
2.56155281280881563787943
0
CIRCLE
8
Layer_1
6
CONTINUOUS
62
7
10
180.941025499226697093036
20
177.201512745611125865253
40
2.56155281280881563787943
0
CIRCLE
8
Layer_1
6
CONTINUOUS
62
7
10
180.941025499226697093036
20
171.201512745611125865253
40
2.56155281280881563787943
0
CIRCLE
8
Layer_1
6
CONTINUOUS
62
7
10
180.941025499226697093036
20
165.201512745611125865253
40
2.56155281280881563787943
0
CIRCLE
8
Layer_1
6
CONTINUOUS
62
7
10
180.941025499226697093036
20
159.201512745611125865253
40
2.56155281280881563787943
0
CIRCLE
8
Layer_1
6
CONTINUOUS
62
7
10
180.941025499226697093036
20
153.201512745611125865253
40
2.56155281280881563787943
0
CIRCLE
8
Layer_1
6
CONTINUOUS
62
7
10
186.941025499226697093036
20
174.201512745611125865253
40
2.56155281280881563787943
0
CIRCLE
8
Layer_1
6
CONTINUOUS
62
7
10
186.941025499226697093036
20
168.201512745611125865253
40
2.56155281280881563787943
0
CIRCLE
8
Layer_1
6
CONTINUOUS
62
7
10
186.941025499226697093036
20
162.201512745611125865253
40
2.56155281280881563787943
0
CIRCLE
8
Layer_1
6
CONTINUOUS
62
7
10
186.941025499226697093036
20
156.201512745611125865253
40
2.56155281280881563787943
0
CIRCLE
8
Layer_1
6
CONTINUOUS
62
7
10
144.941025499226697093036
20
177.201512745611125865253
40
2.56155281280881563787943
0
CIRCLE
8
Layer_1
6
CONTINUOUS
62
7
10
144.941025499226697093036
20
171.201512745611125865253
40
2.56155281280881563787943
0
CIRCLE
8
Layer_1
6
CONTINUOUS
62
7
10
144.941025499226697093036
20
165.201512745611125865253
40
2.56155281280881563787943
0
CIRCLE
8
Layer_1
6
CONTINUOUS
62
7
10
144.941025499226697093036
20
159.201512745611125865253
40
2.56155281280881563787943
0
CIRCLE
8
Layer_1
6
CONTINUOUS
62
7
10
144.941025499226697093036
20
153.201512745611125865253
40
2.56155281280881563787943
0
CIRCLE
8
Layer_1
6
CONTINUOUS
62
7
10
138.941025499226697093036
20
174.201512745611125865253
40
2.56155281280881563787943
0
CIRCLE
8
Layer_1
6
CONTINUOUS
62
7
10
138.941025499226697093036
20
168.201512745611125865253
40
2.56155281280881563787943
0
CIRCLE
8
Layer_1
6
CONTINUOUS
62
7
10
138.941025499226697093036
20
162.201512745611125865253
40
2.56155281280881563787943
0
CIRCLE
8
Layer_1
6
CONTINUOUS
62
7
10
138.941025499226697093036
20
156.201512745611125865253
40
2.56155281280881563787943
0
CIRCLE
8
Layer_1
6
CONTINUOUS
62
7
10
351.941025499226725514745
20
175.201512745611125865253
40
2.56155281280884317141044
0
CIRCLE
8
Layer_1
6
CONTINUOUS
62
7
10
351.941025499226725514745
20
169.201512745611125865253
40
2.56155281280884317141044
0
CIRCLE
8
Layer_1
6
CONTINUOUS
62
7
10
351.941025499226725514745
20
163.201512745611125865253
40
2.56155281280884317141044
0
CIRCLE
8
Layer_1
6
CONTINUOUS
62
7
10
351.941025499226725514745
20
181.201512745611125865253
40
2.56155281280884317141044
0
CIRCLE
8
Layer_1
6
CONTINUOUS
62
7
10
351.941025499226725514745
20
157.201512745611125865253
40
2.56155281280884317141044
0
CIRCLE
8
Layer_1
6
CONTINUOUS
62
7
10
351.941025499226725514745
20
151.201512745611125865253
40
2.56155281280884317141044
0
CIRCLE
8
Layer_1
6
CONTINUOUS
62
7
10
357.941025499226725514745
20
178.201512745611125865253
40
2.56155281280884317141044
0
CIRCLE
8
Layer_1
6
CONTINUOUS
62
7
10
357.941025499226725514745
20
172.201512745611125865253
40
2.56155281280884317141044
0
CIRCLE
8
Layer_1
6
CONTINUOUS
62
7
10
357.941025499226725514745
20
184.201512745611125865253
40
2.56155281280884317141044
0
CIRCLE
8
Layer_1
6
CONTINUOUS
62
7
10
357.941025499226725514745
20
166.201512745611125865253
40
2.56155281280884317141044
0
CIRCLE
8
Layer_1
6
CONTINUOUS
62
7
10
357.941025499226725514745
20
160.201512745611125865253
40
2.56155281280884317141044
0
CIRCLE
8
Layer_1
6
CONTINUOUS
62
7
10
357.941025499226725514745
20
154.201512745611125865253
40
2.56155281280884317141044
0
CIRCLE
8
Layer_1
6
CONTINUOUS
62
7
10
357.941025499226725514745
20
148.201512745611125865253
40
2.56155281280884317141044
0
CIRCLE
8
Layer_1
6
CONTINUOUS
62
7
10
345.941025499226725514745
20
154.201512745611125865253
40
2.56155281280884317141044
0
CIRCLE
8
Layer_1
6
CONTINUOUS
62
7
10
345.941025499226725514745
20
148.201512745611125865253
40
2.56155281280884317141044
0
CIRCLE
8
Layer_1
6
CONTINUOUS
62
7
10
345.941025499226725514745
20
160.201512745611125865253
40
2.56155281280884317141044
0
CIRCLE
8
Layer_1
6
CONTINUOUS
62
7
10
345.941025499226725514745
20
166.201512745611125865253
40
2.56155281280884317141044
0
CIRCLE
8
Layer_1
6
CONTINUOUS
62
7
10
345.941025499226725514745
20
172.201512745611125865253
40
2.56155281280884317141044
0
CIRCLE
8
Layer_1
6
CONTINUOUS
62
7
10
345.941025499226725514745
20
178.201512745611125865253
40
2.56155281280884317141044
0
CIRCLE
8
Layer_1
6
CONTINUOUS
62
7
10
345.941025499226725514745
20
184.201512745611125865253
40
2.56155281280884317141044
0
CIRCLE
8
Layer_1
6
CONTINUOUS
62
7
10
363.941025499226725514745
20
175.201512745611125865253
40
2.56155281280884317141044
0
CIRCLE
8
Layer_1
6
CONTINUOUS
62
7
10
363.941025499226725514745
20
169.201512745611125865253
40
2.56155281280884317141044
0
CIRCLE
8
Layer_1
6
CONTINUOUS
62
7
10
363.941025499226725514745
20
163.201512745611125865253
40
2.56155281280884317141044
0
CIRCLE
8
Layer_1
6
CONTINUOUS
62
7
10
363.941025499226725514745
20
181.201512745611125865253
40
2.56155281280884317141044
0
CIRCLE
8
Layer_1
6
CONTINUOUS
62
7
10
363.941025499226725514745
20
157.201512745611125865253
40
2.56155281280884317141044
0
CIRCLE
8
Layer_1
6
CONTINUOUS
62
7
10
363.941025499226725514745
20
151.201512745611125865253
40
2.56155281280884317141044
0
CIRCLE
8
Layer_1
6
CONTINUOUS
62
7
10
339.941025499226725514745
20
175.201512745611125865253
40
2.56155281280884317141044
0
CIRCLE
8
Layer_1
6
CONTINUOUS
62
7
10
339.941025499226725514745
20
169.201512745611125865253
40
2.56155281280884317141044
0
CIRCLE
8
Layer_1
6
CONTINUOUS
62
7
10
339.941025499226725514745
20
163.201512745611125865253
40
2.56155281280884317141044
0
CIRCLE
8
Layer_1
6
CONTINUOUS
62
7
10
339.941025499226725514745
20
181.201512745611125865253
40
2.56155281280884317141044
0
CIRCLE
8
Layer_1
6
CONTINUOUS
62
7
10
339.941025499226725514745
20
157.201512745611125865253
40
2.56155281280884317141044
0
CIRCLE
8
Layer_1
6
CONTINUOUS
62
7
10
339.941025499226725514745
20
151.201512745611125865253
40
2.56155281280884317141044
0
CIRCLE
8
Layer_1
6
CONTINUOUS
62
7
10
369.941025499226725514745
20
178.201512745611125865253
40
2.56155281280884317141044
0
CIRCLE
8
Layer_1
6
CONTINUOUS
62
7
10
369.941025499226725514745
20
172.201512745611125865253
40
2.56155281280884317141044
0
CIRCLE
8
Layer_1
6
CONTINUOUS
62
7
10
369.941025499226725514745
20
166.201512745611125865253
40
2.56155281280884317141044
0
CIRCLE
8
Layer_1
6
CONTINUOUS
62
7
10
369.941025499226725514745
20
160.201512745611125865253
40
2.56155281280884317141044
0
CIRCLE
8
Layer_1
6
CONTINUOUS
62
7
10
369.941025499226725514745
20
154.201512745611125865253
40
2.56155281280884317141044
0
CIRCLE
8
Layer_1
6
CONTINUOUS
62
7
10
375.941025499226725514745
20
175.201512745611125865253
40
2.56155281280884317141044
0
CIRCLE
8
Layer_1
6
CONTINUOUS
62
7
10
375.941025499226725514745
20
169.201512745611125865253
40
2.56155281280884317141044
0
CIRCLE
8
Layer_1
6
CONTINUOUS
62
7
10
375.941025499226725514745
20
163.201512745611125865253
40
2.56155281280884317141044
0
CIRCLE
8
Layer_1
6
CONTINUOUS
62
7
10
375.941025499226725514745
20
157.201512745611125865253
40
2.56155281280884317141044
0
CIRCLE
8
Layer_1
6
CONTINUOUS
62
7
10
333.941025499226725514745
20
178.201512745611125865253
40
2.56155281280884317141044
0
CIRCLE
8
Layer_1
6
CONTINUOUS
62
7
10
333.941025499226725514745
20
172.201512745611125865253
40
2.56155281280884317141044
0
CIRCLE
8
Layer_1
6
CONTINUOUS
62
7
10
333.941025499226725514745
20
166.201512745611125865253
40
2.56155281280884317141044
0
CIRCLE
8
Layer_1
6
CONTINUOUS
62
7
10
333.941025499226725514745
20
160.201512745611125865253
40
2.56155281280884317141044
0
CIRCLE
8
Layer_1
6
CONTINUOUS
62
7
10
333.941025499226725514745
20
154.201512745611125865253
40
2.56155281280884317141044
0
CIRCLE
8
Layer_1
6
CONTINUOUS
62
7
10
327.941025499226725514745
20
175.201512745611125865253
40
2.56155281280884317141044
0
CIRCLE
8
Layer_1
6
CONTINUOUS
62
7
10
327.941025499226725514745
20
169.201512745611125865253
40
2.56155281280884317141044
0
CIRCLE
8
Layer_1
6
CONTINUOUS
62
7
10
327.941025499226725514745
20
163.201512745611125865253
40
2.56155281280884317141044
0
CIRCLE
8
Layer_1
6
CONTINUOUS
62
7
10
327.941025499226725514745
20
157.201512745611125865253
40
2.56155281280884317141044
0
CIRCLE
8
Layer_1
6
CONTINUOUS
62
7
10
257.941025499226725514745
20
175.201512745611125865253
40
2.56155281280884317141044
0
CIRCLE
8
Layer_1
6
CONTINUOUS
62
7
10
257.941025499226725514745
20
169.201512745611125865253
40
2.56155281280884317141044
0
CIRCLE
8
Layer_1
6
CONTINUOUS
62
7
10
257.941025499226725514745
20
163.201512745611125865253
40
2.56155281280884317141044
0
CIRCLE
8
Layer_1
6
CONTINUOUS
62
7
10
257.941025499226725514745
20
181.201512745611125865253
40
2.56155281280884317141044
0
CIRCLE
8
Layer_1
6
CONTINUOUS
62
7
10
257.941025499226725514745
20
157.201512745611125865253
40
2.56155281280884317141044
0
CIRCLE
8
Layer_1
6
CONTINUOUS
62
7
10
257.941025499226725514745
20
151.201512745611125865253
40
2.56155281280884317141044
0
CIRCLE
8
Layer_1
6
CONTINUOUS
62
7
10
263.941025499226725514745
20
178.201512745611125865253
40
2.56155281280884317141044
0
CIRCLE
8
Layer_1
6
CONTINUOUS
62
7
10
263.941025499226725514745
20
172.201512745611125865253
40
2.56155281280884317141044
0
CIRCLE
8
Layer_1
6
CONTINUOUS
62
7
10
263.941025499226725514745
20
184.201512745611125865253
40
2.56155281280884317141044
0
CIRCLE
8
Layer_1
6
CONTINUOUS
62
7
10
263.941025499226725514745
20
166.201512745611125865253
40
2.56155281280884317141044
0
CIRCLE
8
Layer_1
6
CONTINUOUS
62
7
10
263.941025499226725514745
20
160.201512745611125865253
40
2.56155281280884317141044
0
CIRCLE
8
Layer_1
6
CONTINUOUS
62
7
10
263.941025499226725514745
20
154.201512745611125865253
40
2.56155281280884317141044
0
CIRCLE
8
Layer_1
6
CONTINUOUS
62
7
10
263.941025499226725514745
20
148.201512745611125865253
40
2.56155281280884317141044
0
CIRCLE
8
Layer_1
6
CONTINUOUS
62
7
10
251.941025499226697093036
20
154.201512745611125865253
40
2.56155281280884317141044
0
CIRCLE
8
Layer_1
6
CONTINUOUS
62
7
10
251.941025499226697093036
20
148.201512745611125865253
40
2.56155281280884317141044
0
CIRCLE
8
Layer_1
6
CONTINUOUS
62
7
10
251.941025499226697093036
20
160.201512745611125865253
40
2.56155281280884317141044
0
CIRCLE
8
Layer_1
6
CONTINUOUS
62
7
10
251.941025499226697093036
20
166.201512745611125865253
40
2.56155281280884317141044
0
CIRCLE
8
Layer_1
6
CONTINUOUS
62
7
10
251.941025499226697093036
20
172.201512745611125865253
40
2.56155281280884317141044
0
CIRCLE
8
Layer_1
6
CONTINUOUS
62
7
10
251.941025499226697093036
20
178.201512745611125865253
40
2.56155281280884317141044
0
CIRCLE
8
Layer_1
6
CONTINUOUS
62
7
10
251.941025499226697093036
20
184.201512745611125865253
40
2.56155281280884317141044
0
CIRCLE
8
Layer_1
6
CONTINUOUS
62
7
10
269.941025499226725514745
20
175.201512745611125865253
40
2.56155281280884317141044
0
CIRCLE
8
Layer_1
6
CONTINUOUS
62
7
10
269.941025499226725514745
20
169.201512745611125865253
40
2.56155281280884317141044
0
CIRCLE
8
Layer_1
6
CONTINUOUS
62
7
10
269.941025499226725514745
20
163.201512745611125865253
40
2.56155281280884317141044
0
CIRCLE
8
Layer_1
6
CONTINUOUS
62
7
10
269.941025499226725514745
20
181.201512745611125865253
40
2.56155281280884317141044
0
CIRCLE
8
Layer_1
6
CONTINUOUS
62
7
10
269.941025499226725514745
20
157.201512745611125865253
40
2.56155281280884317141044
0
CIRCLE
8
Layer_1
6
CONTINUOUS
62
7
10
269.941025499226725514745
20
151.201512745611125865253
40
2.56155281280884317141044
0
CIRCLE
8
Layer_1
6
CONTINUOUS
62
7
10
245.941025499226697093036
20
175.201512745611125865253
40
2.56155281280884317141044
0
CIRCLE
8
Layer_1
6
CONTINUOUS
62
7
10
245.941025499226697093036
20
169.201512745611125865253
40
2.56155281280884317141044
0
CIRCLE
8
Layer_1
6
CONTINUOUS
62
7
10
245.941025499226697093036
20
163.201512745611125865253
40
2.56155281280884317141044
0
CIRCLE
8
Layer_1
6
CONTINUOUS
62
7
10
245.941025499226697093036
20
181.201512745611125865253
40
2.56155281280884317141044
0
CIRCLE
8
Layer_1
6
CONTINUOUS
62
7
10
245.941025499226697093036
20
157.201512745611125865253
40
2.56155281280884317141044
0
CIRCLE
8
Layer_1
6
CONTINUOUS
62
7
10
245.941025499226697093036
20
151.201512745611125865253
40
2.56155281280884317141044
0
CIRCLE
8
Layer_1
6
CONTINUOUS
62
7
10
275.941025499226725514745
20
178.201512745611125865253
40
2.56155281280884317141044
0
CIRCLE
8
Layer_1
6
CONTINUOUS
62
7
10
275.941025499226725514745
20
172.201512745611125865253
40
2.56155281280884317141044
0
CIRCLE
8
Layer_1
6
CONTINUOUS
62
7
10
275.941025499226725514745
20
166.201512745611125865253
40
2.56155281280884317141044
0
CIRCLE
8
Layer_1
6
CONTINUOUS
62
7
10
275.941025499226725514745
20
160.201512745611125865253
40
2.56155281280884317141044
0
CIRCLE
8
Layer_1
6
CONTINUOUS
62
7
10
275.941025499226725514745
20
154.201512745611125865253
40
2.56155281280884317141044
0
CIRCLE
8
Layer_1
6
CONTINUOUS
62
7
10
281.941025499226725514745
20
175.201512745611125865253
40
2.56155281280884317141044
0
CIRCLE
8
Layer_1
6
CONTINUOUS
62
7
10
281.941025499226725514745
20
169.201512745611125865253
40
2.56155281280884317141044
0
CIRCLE
8
Layer_1
6
CONTINUOUS
62
7
10
281.941025499226725514745
20
163.201512745611125865253
40
2.56155281280884317141044
0
CIRCLE
8
Layer_1
6
CONTINUOUS
62
7
10
281.941025499226725514745
20
157.201512745611125865253
40
2.56155281280884317141044
0
CIRCLE
8
Layer_1
6
CONTINUOUS
62
7
10
239.941025499226697093036
20
178.201512745611125865253
40
2.56155281280884317141044
0
CIRCLE
8
Layer_1
6
CONTINUOUS
62
7
10
239.941025499226697093036
20
172.201512745611125865253
40
2.56155281280884317141044
0
CIRCLE
8
Layer_1
6
CONTINUOUS
62
7
10
239.941025499226697093036
20
166.201512745611125865253
40
2.56155281280884317141044
0
CIRCLE
8
Layer_1
6
CONTINUOUS
62
7
10
239.941025499226697093036
20
160.201512745611125865253
40
2.56155281280884317141044
0
CIRCLE
8
Layer_1
6
CONTINUOUS
62
7
10
239.941025499226697093036
20
154.201512745611125865253
40
2.56155281280884317141044
0
CIRCLE
8
Layer_1
6
CONTINUOUS
62
7
10
233.941025499226697093036
20
175.201512745611125865253
40
2.56155281280884317141044
0
CIRCLE
8
Layer_1
6
CONTINUOUS
62
7
10
233.941025499226697093036
20
169.201512745611125865253
40
2.56155281280884317141044
0
CIRCLE
8
Layer_1
6
CONTINUOUS
62
7
10
233.941025499226697093036
20
163.201512745611125865253
40
2.56155281280884317141044
0
CIRCLE
8
Layer_1
6
CONTINUOUS
62
7
10
233.941025499226697093036
20
157.201512745611125865253
40
2.56155281280884317141044
0
LINE
8
Layer_1
6
CONTINUOUS
62
7
10
99.5025783120355242772348
20
131.639959932802298681054
11
419.502578312035552698944
21
131.639959932802298681054
0
LINE
8
Layer_1
6
CONTINUOUS
62
7
10
419.502578298566504599876
20
31.6399599328022986810538
11
99.5025782985665330215852
21
31.6399599328022986810538
0
LINE
8
Layer_1
6
CONTINUOUS
62
7
10
445.118701338624646268727
20
284.895865052098770320299
11
445.118701325155711856496
21
184.895865052098798742009
0
LINE
8
Layer_1
6
CONTINUOUS
62
7
10
417.50257829765064343519
20
201.83995993280228731237
11
417.502578298719186022936
21
225.639959932802298681054
0
LINE
8
Layer_1
6
CONTINUOUS
62
7
10
417.502578312035552698944
20
308.639959932802298681054
11
417.502578308937700057868
21
285.639959932802298681054
0
LINE
8
Layer_1
6
CONTINUOUS
62
7
10
507.62076517959923194212
20
184.895101593374789672453
11
515.977043936103427768103
21
207.179908196610000459259
0
LINE
8
Layer_1
6
CONTINUOUS
62
7
10
545.118701338624646268727
20
284.895865052098770320299
11
537.04330589779920046567
21
263.360127579834284006211
0
LINE
8
Layer_1
6
CONTINUOUS
62
7
10
417.502578298719186022936
20
225.639959932802298681054
11
422.502578298719186022936
21
225.639959932802298681054
0
LINE
8
Layer_1
6
CONTINUOUS
62
7
10
417.502578308937700057868
20
285.639959932802298681054
11
422.502578308937700057868
21
285.639959932802298681054
0
LINE
8
Layer_1
6
CONTINUOUS
62
7
10
422.502578308937700057868
20
285.639959932802298681054
11
422.502578298719186022936
21
225.639959932802298681054
0
LINE
8
Layer_1
6
CONTINUOUS
62
7
10
515.977043936103427768103
20
207.179908196610000459259
11
511.295524208671110955038
21
208.935861795558821540908
0
LINE
8
Layer_1
6
CONTINUOUS
62
7
10
537.04330589779920046567
20
263.360127579834284006211
11
532.361623838611308201507
21
265.115648327839835474151
0
LINE
8
Layer_1
6
CONTINUOUS
62
7
10
532.361623838611308201507
20
265.115648327839835474151
11
511.295524208671110955038
21
208.935861795558821540908
0
LINE
8
Layer_1
6
CONTINUOUS
62
7
10
507.62076517959923194212
20
184.895101593374789672453
11
496.120765180457169662986
21
184.895242065141388820848
0
LINE
8
Layer_1
6
CONTINUOUS
62
7
10
445.118701325155711856496
20
184.895865052098798742009
11
456.118701324335063418403
21
184.895730685824872807643
0
LINE
8
Layer_1
6
CONTINUOUS
62
7
10
456.118701324335063418403
20
184.895730685824872807643
11
456.118762399914146499214
21
189.895730685451837871369
0
LINE
8
Layer_1
6
CONTINUOUS
62
7
10
496.120765180457169662986
20
184.895242065141388820848
11
496.120826255138297256053
21
189.895242064768382306283
0
LINE
8
Layer_1
6
CONTINUOUS
62
7
10
456.118762399914146499214
20
189.895730685451837871369
11
496.120826255138297256053
21
189.895242064768382306283
0
LINE
8
Layer_1
6
CONTINUOUS
62
7
10
418.502578312035552698944
20
197.639959932802298681054
11
418.502578310486569534987
21
186.139959932802298681054
0
LINE
8
Layer_1
6
CONTINUOUS
62
7
10
418.502578303617383426172
20
135.139959932802298681054
11
418.502578304111239049234
21
146.139959932802298681054
0
LINE
8
Layer_1
6
CONTINUOUS
62
7
10
418.502578304111239049234
20
146.139959932802298681054
11
423.502578304111239049234
21
146.139959932802298681054
0
LINE
8
Layer_1
6
CONTINUOUS
62
7
10
418.502578310486569534987
20
186.139959932802298681054
11
423.502578310486569534987
21
186.139959932802298681054
0
LINE
8
Layer_1
6
CONTINUOUS
62
7
10
423.502578310486569534987
20
186.139959932802298681054
11
423.502578304111239049234
21
146.139959932802298681054
0
LINE
8
Layer_1
6
CONTINUOUS
62
7
10
445.118701338624646268727
20
284.895865052098770320299
11
465.118701338624646268727
21
284.895865052098770320299
0
LINE
8
Layer_1
6
CONTINUOUS
62
7
10
545.118701338624646268727
20
284.895865052098770320299
11
525.118701338624646268727
21
284.895865053894681295787
0
LINE
8
Layer_1
6
CONTINUOUS
62
7
10
465.118701338624646268727
20
284.895865052098770320299
11
465.118701337951222285483
21
279.895865052098770320299
0
LINE
8
Layer_1
6
CONTINUOUS
62
7
10
525.118701338624646268727
20
284.895865053894681295787
11
525.118701337951279128902
21
279.895865053894681295787
0
LINE
8
Layer_1
6
CONTINUOUS
62
7
10
465.118701337951222285483
20
279.895865052098770320299
11
525.118701337951279128902
21
279.895865053894681295787
0
LINE
8
Layer_1
6
CONTINUOUS
62
7
10
419.502578312035552698944
20
131.639959932802298681054
11
419.502578309341743079131
21
111.639959932802298681054
0
LINE
8
Layer_1
6
CONTINUOUS
62
7
10
419.502578298566504599876
20
31.6399599328022986810538
11
419.502578299464516931039
21
51.6399599328022986810538
0
LINE
8
Layer_1
6
CONTINUOUS
62
7
10
419.502578309341743079131
20
111.639959932802298681054
11
424.502578309341743079131
21
111.639959932802298681054
0
LINE
8
Layer_1
6
CONTINUOUS
62
7
10
419.502578299464516931039
20
51.6399599328022986810538
11
424.502578299464516931039
21
51.6399599328022986810538
0
LINE
8
Layer_1
6
CONTINUOUS
62
7
10
424.502578309341743079131
20
111.639959932802298681054
11
424.502578299464516931039
21
51.6399599328022986810538
0
LINE
8
Layer_1
6
CONTINUOUS
62
7
10
438.477109195975231159537
20
404.444523619789265467261
11
438.477109182506296747306
21
304.444523619789265467261
0
LINE
8
Layer_1
6
CONTINUOUS
62
7
10
500.97917303694981683293
20
304.443760161065256397706
11
509.335451793454069502332
21
326.728566764300467184512
0
LINE
8
Layer_1
6
CONTINUOUS
62
7
10
538.477109195975231159537
20
404.444523619789265467261
11
530.40171375514978535648
21
382.908786147524779153173
0
LINE
8
Layer_1
6
CONTINUOUS
62
7
10
509.335451793454069502332
20
326.728566764300467184512
11
504.653932066021695845848
21
328.48452036324931668787
0
LINE
8
Layer_1
6
CONTINUOUS
62
7
10
530.40171375514978535648
20
382.908786147524779153173
11
525.720031695961893092317
21
384.664306895530330621114
0
LINE
8
Layer_1
6
CONTINUOUS
62
7
10
525.720031695961893092317
20
384.664306895530330621114
11
504.653932066021695845848
21
328.48452036324931668787
0
LINE
8
Layer_1
6
CONTINUOUS
62
7
10
500.97917303694981683293
20
304.443760161065256397706
11
489.479173037807754553796
21
304.443900632831855546101
0
LINE
8
Layer_1
6
CONTINUOUS
62
7
10
438.477109182506296747306
20
304.444523619789265467261
11
449.477109181685648309212
21
304.444389253515396376315
0
LINE
8
Layer_1
6
CONTINUOUS
62
7
10
449.477109181685648309212
20
304.444389253515396376315
11
449.477170257264731390023
21
309.444389253142333018332
0
LINE
8
Layer_1
6
CONTINUOUS
62
7
10
489.479173037807754553796
20
304.443900632831855546101
11
489.479234112488882146863
21
309.443900632458849031536
0
LINE
8
Layer_1
6
CONTINUOUS
62
7
10
449.477170257264731390023
20
309.444389253142333018332
11
489.479234112488882146863
21
309.443900632458849031536
0
LINE
8
Layer_1
6
CONTINUOUS
62
7
10
438.477109195975231159537
20
404.444523619789265467261
11
458.477109195975231159537
21
404.444523619789265467261
0
LINE
8
Layer_1
6
CONTINUOUS
62
7
10
538.477109195975231159537
20
404.444523619789265467261
11
518.477109195975231159537
21
404.44452362158517644275
0
LINE
8
Layer_1
6
CONTINUOUS
62
7
10
458.477109195975231159537
20
404.444523619789265467261
11
458.477109195301807176293
21
399.444523619789265467261
0
LINE
8
Layer_1
6
CONTINUOUS
62
7
10
518.477109195975231159537
20
404.44452362158517644275
11
518.477109195301864019712
21
399.44452362158517644275
0
LINE
8
Layer_1
6
CONTINUOUS
62
7
10
458.477109195301807176293
20
399.444523619789265467261
11
518.477109195301864019712
21
399.44452362158517644275
0
LINE
8
Layer_1
6
CONTINUOUS
62
7
10
97.5025782976506718568999
20
201.83995993280228731237
11
97.5025782987192144446453
21
225.639959932802298681054
0
LINE
8
Layer_1
6
CONTINUOUS
62
7
10
97.5025783120355242772348
20
308.639959932802298681054
11
97.5025783089376574253038
21
285.639959932802298681054
0
LINE
8
Layer_1
6
CONTINUOUS
62
7
10
97.5025783089376574253038
20
285.639959932802298681054
11
92.5025783089376574253038
21
285.639959933251248003216
0
LINE
8
Layer_1
6
CONTINUOUS
62
7
10
97.5025782987192144446453
20
225.639959932802298681054
11
92.5025782987192144446453
21
225.639959933251276424926
0
LINE
8
Layer_1
6
CONTINUOUS
62
7
10
92.5025783089376574253038
20
285.639959933251248003216
11
92.5025782987192144446453
21
225.639959933251276424926
0
LINE
8
Layer_1
6
CONTINUOUS
62
7
10
98.5025783120355242772348
20
197.639959932802298681054
11
98.5025783104865979566966
21
186.139959932802298681054
0
LINE
8
Layer_1
6
CONTINUOUS
62
7
10
98.5025783036174118478812
20
135.139959932802298681054
11
98.5025783041112674709439
21
146.139959932802298681054
0
LINE
8
Layer_1
6
CONTINUOUS
62
7
10
98.5025783104865979566966
20
186.139959932802298681054
11
93.5025783104865979566966
21
186.139959933251276424926
0
LINE
8
Layer_1
6
CONTINUOUS
62
7
10
98.5025783041112674709439
20
146.139959932802298681054
11
93.5025783041112674709439
21
146.139959933251276424926
0
LINE
8
Layer_1
6
CONTINUOUS
62
7
10
93.5025783104865979566966
20
186.139959933251276424926
11
93.5025783041112674709439
21
146.139959933251276424926
0
LINE
8
Layer_1
6
CONTINUOUS
62
7
10
99.5025783120355242772348
20
131.639959932802298681054
11
99.5025783093417288682758
21
111.639959932802298681054
0
LINE
8
Layer_1
6
CONTINUOUS
62
7
10
99.5025782985665472324399
20
31.6399599328022986810538
11
99.5025782994644742984747
21
51.6399599328022986810538
0
LINE
8
Layer_1
6
CONTINUOUS
62
7
10
99.5025783093417288682758
20
111.639959932802298681054
11
94.5025783093417288682758
21
111.639959933251262214071
0
LINE
8
Layer_1
6
CONTINUOUS
62
7
10
99.5025782994644742984747
20
51.6399599328022986810538
11
94.5025782994644742984747
21
51.6399599332512622140712
0
LINE
8
Layer_1
6
CONTINUOUS
62
7
10
94.5025783093417288682758
20
111.639959933251262214071
11
94.5025782994644742984747
21
51.6399599332512622140712
0
ENDSEC
0
EOF
