0
SECTION
2
HEADER
9
$ANGDIR
70
0
9
$CHAMFERA
40
10
9
$CHAMFERB
40
10
9
$CLAYER
8
Layer_1
9
$EXTMAX
10
410.558298842482486179506
20
280.088784661391173358425
9
$EXTMIN
10
10.9999999840168207754232
20
10.9993503722604657468764
9
$LIMMAX
10
420
20
297
9
$LIMMIN
10
0
20
0
9
$LTSCALE
40
10
9
$PLINEGEN
70
0
9
$TEXTSIZE
40
20
9
$GRIDUNIT
10
10
20
10
9
$SNAPUNIT
10
1
20
1
0
ENDSEC
0
SECTION
2
TABLES
0
TABLE
2
STYLE
70
1
0
STYLE
2
STANDARD
70
0
40
0
41
1
50
0
71
0
42
0.20000000000000001110223
3
txt
4

0
ENDTAB
0
TABLE
2
LTYPE
70
14
0
LTYPE
2
CONTINUOUS
70
0
3
Solid line
72
65
73
0
40
0
0
LTYPE
2
DOT
70
0
3
............................................
72
65
73
2
40
0.25
49
0
49
-0.25
0
LTYPE
2
HIDDEN
70
0
3
_ _ _ _ _ _ _ _ _ _ _ _ _ _ _ _ _ _ _ _ _ _ 
72
65
73
2
40
0.375
49
0.25
49
-0.125
0
LTYPE
2
TSLONGDASH
70
0
3
__ __ __ __ __ __ __ __ __ __ __ __ __ __ _ 
72
65
73
2
40
1.28000000000000002664535
49
1
49
-0.280000000000000026645353
0
LTYPE
2
TSDASHDOT
70
0
3
______ . ______ . ______ . ______ . ______ .
72
65
73
4
40
1.28000000000000002664535
49
1
49
-0.140000000000000013322676
49
0
49
-0.140000000000000013322676
0
LTYPE
2
TSCENTER
70
0
3
______ _ ______ _ ______ _ ______ _ ______ _
72
65
73
4
40
2
49
1.5
49
-0.179999999999999993338662
49
0.140000000000000013322676
49
-0.179999999999999993338662
0
LTYPE
2
TSPHANTOM
70
0
3
_____ _ _ _____ _ _ _____ _ _ _____ _ _ ____
72
65
73
6
40
2.5
49
1.62999999999999989341859
49
-0.190000000000000002220446
49
0.149999999999999994448885
49
-0.190000000000000002220446
49
0.149999999999999994448885
49
-0.190000000000000002220446
0
LTYPE
2
DASHED
70
0
3
__ __ __ __ __ __ __ __ __ __ __ __ __ __ __
72
65
73
2
40
0.75
49
0.5
49
-0.25
0
LTYPE
2
CENTER
70
0
3
____ _ ____ _ ____ _ ____ _ ____ _ ____ _ __
72
65
73
4
40
2
49
1.25
49
-0.25
49
0.25
49
-0.25
0
LTYPE
2
PHANTOM
70
0
3
_____ _ _ _____ _ _ _____ _ _ _____ _ _ ____
72
65
73
6
40
2.5
49
1.25
49
-0.25
49
0.25
49
-0.25
49
0.25
49
-0.25
0
LTYPE
2
DASHDOT
70
0
3
__ . __ . __ . __ . __ . __ . __ . __ . __ .
72
65
73
4
40
1
49
0.5
49
-0.25
49
0
49
-0.25
0
LTYPE
2
BORDER
70
0
3
__ __ . __ __ . __ __ . __ __ . __ __ . __ _
72
65
73
6
40
1.75
49
0.5
49
-0.25
49
0.5
49
-0.25
49
0
49
-0.25
0
LTYPE
2
DIVIDE
70
0
3
__ . . __ . . __ . . __ . . __ . . __ . . __
72
65
73
6
40
1.25
49
0.5
49
-0.25
49
0
49
-0.25
49
0
49
-0.25
0
ENDTAB
0
TABLE
2
LAYER
70
3
0
LAYER
2
Layer_1
70
0
62
7
6
CONTINUOUS
0
LAYER
2
Layer_2
70
0
62
7
6
CONTINUOUS
0
LAYER
2
Layer_3
70
0
62
7
6
CONTINUOUS
0
ENDTAB
0
ENDSEC
0
SECTION
2
ENTITIES
0
LINE
8
Layer_1
6
CONTINUOUS
62
7
10
164.085777208085289657902
20
278.464229668223197222687
11
264.085777208085289657902
21
278.464229668223197222687
0
LINE
8
Layer_1
6
CONTINUOUS
62
7
10
264.085777208085289657902
20
178.464229668223197222687
11
164.085777208085289657902
21
178.464229668223197222687
0
LINE
8
Layer_1
6
CONTINUOUS
62
7
10
20
20
11
11
31.5
21
11
0
LINE
8
Layer_1
6
CONTINUOUS
62
7
10
20
20
136
11
19.9999999831637751412927
21
11
0
LINE
8
Layer_1
6
CONTINUOUS
62
7
10
16
20
279
11
116
21
279
0
LINE
8
Layer_1
6
CONTINUOUS
62
7
10
115.999999982422991706699
20
148.5
11
15.9999999824229917066987
21
148.5
0
LINE
8
Layer_1
6
CONTINUOUS
62
7
10
305.558298844031412500044
20
280.088784661391173358425
11
405.558298844031412500044
21
280.088784661391173358425
0
LINE
8
Layer_1
6
CONTINUOUS
62
7
10
405.558298835613356914109
20
217.588784661391173358425
11
305.55829883561330007069
21
217.588784661391173358425
0
LINE
8
Layer_1
6
CONTINUOUS
62
7
10
82.5
20
11
11
71
21
11.0000000010326210997391
0
LINE
8
Layer_1
6
CONTINUOUS
62
7
10
31.5
20
11
11
31.5000000002244817665087
21
16
0
LINE
8
Layer_1
6
CONTINUOUS
62
7
10
71
20
11.0000000010326210997391
11
71.000000000224488871936
21
16.0000000010326210997391
0
LINE
8
Layer_1
6
CONTINUOUS
62
7
10
31.5000000002244817665087
20
16
11
71.000000000224488871936
21
16.0000000010326210997391
0
LINE
8
Layer_1
6
CONTINUOUS
62
7
10
305.558298844031412500044
20
280.088784661391173358425
11
305.558298842482486179506
21
268.588784661391173358425
0
LINE
8
Layer_1
6
CONTINUOUS
62
7
10
305.55829883561330007069
20
217.588784661391173358425
11
305.558298836107155693753
21
228.588784661391173358425
0
LINE
8
Layer_1
6
CONTINUOUS
62
7
10
305.558298842482486179506
20
268.588784661391173358425
11
300.558298842482486179506
21
268.588784661840122680587
0
LINE
8
Layer_1
6
CONTINUOUS
62
7
10
305.558298836107155693753
20
228.588784661391173358425
11
300.558298836107155693753
21
228.588784661840151102297
0
LINE
8
Layer_1
6
CONTINUOUS
62
7
10
300.558298842482486179506
20
268.588784661840122680587
11
300.558298836107155693753
21
228.588784661840151102297
0
LINE
8
Layer_1
6
CONTINUOUS
62
7
10
405.558298844031412500044
20
280.088784661391173358425
11
405.558298842482486179506
21
268.588784661391173358425
0
LINE
8
Layer_1
6
CONTINUOUS
62
7
10
405.558298835613356914109
20
217.588784661391173358425
11
405.558298836107212537172
21
228.588784661391173358425
0
LINE
8
Layer_1
6
CONTINUOUS
62
7
10
405.558298842482486179506
20
268.588784661391173358425
11
410.558298842482486179506
21
268.588784661391173358425
0
LINE
8
Layer_1
6
CONTINUOUS
62
7
10
405.558298836107212537172
20
228.588784661391173358425
11
410.558298836107212537172
21
228.588784661391173358425
0
LINE
8
Layer_1
6
CONTINUOUS
62
7
10
410.558298842482486179506
20
268.588784661391173358425
11
410.558298836107212537172
21
228.588784661391173358425
0
LINE
8
Layer_1
6
CONTINUOUS
62
7
10
20
20
136
11
40
21
136
0
LINE
8
Layer_1
6
CONTINUOUS
62
7
10
120
20
136
11
100
21
136.00000000179585413207
0
LINE
8
Layer_1
6
CONTINUOUS
62
7
10
40
20
136
11
39.9999999993265475950466
21
131
0
LINE
8
Layer_1
6
CONTINUOUS
62
7
10
100
20
136.00000000179585413207
11
99.9999999993265475950466
21
131.00000000179585413207
0
LINE
8
Layer_1
6
CONTINUOUS
62
7
10
39.9999999993265475950466
20
131
11
99.9999999993265475950466
21
131.00000000179585413207
0
LINE
8
Layer_1
6
CONTINUOUS
62
7
10
264.085777208085289657902
20
278.464229668223197222687
11
264.085777205391480038088
21
258.464229668223197222687
0
LINE
8
Layer_1
6
CONTINUOUS
62
7
10
264.085777208085289657902
20
178.464229668223197222687
11
264.085777208983245145646
21
198.464229668223197222687
0
LINE
8
Layer_1
6
CONTINUOUS
62
7
10
164.085777221554280913551
20
278.464229668223197222687
11
164.085777218860471293738
21
258.464229668223197222687
0
LINE
8
Layer_1
6
CONTINUOUS
62
7
10
164.085777208085289657902
20
178.464229668223197222687
11
164.085777208983245145646
21
198.464229668223197222687
0
LINE
8
Layer_1
6
CONTINUOUS
62
7
10
164.085777218860471293738
20
258.464229668223197222687
11
159.085777218860471293738
21
258.46422966867214654485
0
LINE
8
Layer_1
6
CONTINUOUS
62
7
10
164.085777208983245145646
20
198.464229668223197222687
11
159.085777208983245145646
21
198.46422966867214654485
0
LINE
8
Layer_1
6
CONTINUOUS
62
7
10
264.085777208983245145646
20
198.464229668223197222687
11
269.085777208983245145646
21
198.464229668223197222687
0
LINE
8
Layer_1
6
CONTINUOUS
62
7
10
264.085777205391480038088
20
258.464229668223197222687
11
269.085777205391480038088
21
258.464229668223197222687
0
LINE
8
Layer_1
6
CONTINUOUS
62
7
10
159.085777218860471293738
20
258.46422966867214654485
11
159.085777208983245145646
21
198.46422966867214654485
0
LINE
8
Layer_1
6
CONTINUOUS
62
7
10
269.085777208983245145646
20
198.464229668223197222687
11
269.085777205391480038088
21
258.464229668223197222687
0
LINE
8
Layer_1
6
CONTINUOUS
62
7
10
120
20
136
11
109.942823999157482717237
21
102.476080019065832971137
0
LINE
8
Layer_1
6
CONTINUOUS
62
7
10
82.5021893535118238105497
20
10.9993503722604657468764
11
92.7024442731775621950874
21
45.0023619973185446951902
0
LINE
8
Layer_1
6
CONTINUOUS
62
7
10
109.942823999157482717237
20
102.476080019065832971137
11
105.153692573309740510012
21
103.912819447757627244755
0
LINE
8
Layer_1
6
CONTINUOUS
62
7
10
92.7024442731775621950874
20
45.0023619973185446951902
11
87.9133801351883903407725
21
46.4393256997919436912525
0
LINE
8
Layer_1
6
CONTINUOUS
62
7
10
105.153692573309740510012
20
103.912819447757627244755
11
87.9133801351883903407725
21
46.4393256997919436912525
0
LINE
8
Layer_1
6
CONTINUOUS
62
7
10
115.999999982422991706699
20
148.5
11
115.999999984016824328137
21
184
0
LINE
8
Layer_1
6
CONTINUOUS
62
7
10
116
20
279
11
115.999999995285861587035
21
244
0
LINE
8
Layer_1
6
CONTINUOUS
62
7
10
15.9999999824229917066987
20
148.5
11
15.9999999840168207754232
21
184
0
LINE
8
Layer_1
6
CONTINUOUS
62
7
10
16
20
279
11
15.9999999952858580343218
21
244
0
LINE
8
Layer_1
6
CONTINUOUS
62
7
10
15.9999999952858580343218
20
244
11
10.9999999952858580343218
21
244.000000000448977743872
0
LINE
8
Layer_1
6
CONTINUOUS
62
7
10
15.9999999840168207754232
20
184
11
10.9999999840168207754232
21
184.000000000448977743872
0
LINE
8
Layer_1
6
CONTINUOUS
62
7
10
115.999999995285861587035
20
244
11
120.999999995285861587035
21
244
0
LINE
8
Layer_1
6
CONTINUOUS
62
7
10
115.999999984016824328137
20
184
11
120.999999984016824328137
21
184
0
LINE
8
Layer_1
6
CONTINUOUS
62
7
10
10.9999999952858580343218
20
244.000000000448977743872
11
10.9999999840168207754232
21
184.000000000448977743872
0
LINE
8
Layer_1
6
CONTINUOUS
62
7
10
120.999999995285861587035
20
244
11
120.999999984016824328137
21
184
0
LINE
8
Layer_1
6
CONTINUOUS
62
7
10
129.83221262263742801224
20
13.1213368718595262407689
11
141.33221262263742801224
21
13.1213368718595262407689
0
LINE
8
Layer_1
6
CONTINUOUS
62
7
10
129.83221262263742801224
20
138.121336871859540451624
11
129.832212605801203153533
21
13.1213368718595262407689
0
LINE
8
Layer_1
6
CONTINUOUS
62
7
10
192.33221262263742801224
20
13.1213368718595262407689
11
180.83221262263742801224
21
13.1213368728921437877943
0
LINE
8
Layer_1
6
CONTINUOUS
62
7
10
141.33221262263742801224
20
13.1213368718595262407689
11
141.332212622861902673321
21
18.1213368718595404516236
0
LINE
8
Layer_1
6
CONTINUOUS
62
7
10
180.83221262263742801224
20
13.1213368728921437877943
11
180.832212622861902673321
21
18.1213368728921579986491
0
LINE
8
Layer_1
6
CONTINUOUS
62
7
10
141.332212622861902673321
20
18.1213368718595404516236
11
180.832212622861902673321
21
18.1213368728921579986491
0
LINE
8
Layer_1
6
CONTINUOUS
62
7
10
129.83221262263742801224
20
138.121336871859540451624
11
149.83221262263742801224
21
138.121336871859540451624
0
LINE
8
Layer_1
6
CONTINUOUS
62
7
10
229.83221262263742801224
20
138.121336871859540451624
11
209.83221262263742801224
21
138.121336873655394583693
0
LINE
8
Layer_1
6
CONTINUOUS
62
7
10
149.83221262263742801224
20
138.121336871859540451624
11
149.832212621963975607287
21
133.121336871859540451624
0
LINE
8
Layer_1
6
CONTINUOUS
62
7
10
209.83221262263742801224
20
138.121336873655394583693
11
209.832212621963975607287
21
133.121336873655394583693
0
LINE
8
Layer_1
6
CONTINUOUS
62
7
10
149.832212621963975607287
20
133.121336871859540451624
11
209.832212621963975607287
21
133.121336873655394583693
0
LINE
8
Layer_1
6
CONTINUOUS
62
7
10
229.83221262263742801224
20
138.121336871859540451624
11
219.775036621794924940332
21
104.597416890925359211906
0
LINE
8
Layer_1
6
CONTINUOUS
62
7
10
192.33440197614925182279
20
13.1206872441199919876453
11
202.534656895814975996473
21
47.1236988691780709359591
0
LINE
8
Layer_1
6
CONTINUOUS
62
7
10
219.775036621794924940332
20
104.597416890925359211906
11
214.985905195947168522252
21
106.034156319617153485524
0
LINE
8
Layer_1
6
CONTINUOUS
62
7
10
202.534656895814975996473
20
47.1236988691780709359591
11
197.745592757825818353012
21
48.5606625716514770374488
0
LINE
8
Layer_1
6
CONTINUOUS
62
7
10
214.985905195947168522252
20
106.034156319617153485524
11
197.745592757825818353012
21
48.5606625716514770374488
0
ENDSEC
0
EOF
