0
SECTION
2
HEADER
9
$ANGDIR
70
0
9
$CHAMFERA
40
10
9
$CHAMFERB
40
10
9
$CLAYER
8
Layer_1
9
$EXTMAX
10
352
20
280
9
$EXTMIN
10
59.9999999919186137731231
20
141.10231923592081670904
9
$LIMMAX
10
420
20
297
9
$LIMMIN
10
0
20
0
9
$LTSCALE
40
10
9
$PLINEGEN
70
0
9
$TEXTSIZE
40
20
9
$GRIDUNIT
10
10
20
10
9
$SNAPUNIT
10
1
20
1
0
ENDSEC
0
SECTION
2
TABLES
0
TABLE
2
STYLE
70
1
0
STYLE
2
STANDARD
70
0
40
0
41
1
50
0
71
0
42
0.20000000000000001110223
3
txt
4

0
ENDTAB
0
TABLE
2
LTYPE
70
14
0
LTYPE
2
CONTINUOUS
70
0
3
Solid line
72
65
73
0
40
0
0
LTYPE
2
DOT
70
0
3
............................................
72
65
73
2
40
0.25
49
0
49
-0.25
0
LTYPE
2
HIDDEN
70
0
3
_ _ _ _ _ _ _ _ _ _ _ _ _ _ _ _ _ _ _ _ _ _ 
72
65
73
2
40
0.375
49
0.25
49
-0.125
0
LTYPE
2
TSLONGDASH
70
0
3
__ __ __ __ __ __ __ __ __ __ __ __ __ __ _ 
72
65
73
2
40
1.28000000000000002664535
49
1
49
-0.280000000000000026645353
0
LTYPE
2
TSDASHDOT
70
0
3
______ . ______ . ______ . ______ . ______ .
72
65
73
4
40
1.28000000000000002664535
49
1
49
-0.140000000000000013322676
49
0
49
-0.140000000000000013322676
0
LTYPE
2
TSCENTER
70
0
3
______ _ ______ _ ______ _ ______ _ ______ _
72
65
73
4
40
2
49
1.5
49
-0.179999999999999993338662
49
0.140000000000000013322676
49
-0.179999999999999993338662
0
LTYPE
2
TSPHANTOM
70
0
3
_____ _ _ _____ _ _ _____ _ _ _____ _ _ ____
72
65
73
6
40
2.5
49
1.62999999999999989341859
49
-0.190000000000000002220446
49
0.149999999999999994448885
49
-0.190000000000000002220446
49
0.149999999999999994448885
49
-0.190000000000000002220446
0
LTYPE
2
DASHED
70
0
3
__ __ __ __ __ __ __ __ __ __ __ __ __ __ __
72
65
73
2
40
0.75
49
0.5
49
-0.25
0
LTYPE
2
CENTER
70
0
3
____ _ ____ _ ____ _ ____ _ ____ _ ____ _ __
72
65
73
4
40
2
49
1.25
49
-0.25
49
0.25
49
-0.25
0
LTYPE
2
PHANTOM
70
0
3
_____ _ _ _____ _ _ _____ _ _ _____ _ _ ____
72
65
73
6
40
2.5
49
1.25
49
-0.25
49
0.25
49
-0.25
49
0.25
49
-0.25
0
LTYPE
2
DASHDOT
70
0
3
__ . __ . __ . __ . __ . __ . __ . __ . __ .
72
65
73
4
40
1
49
0.5
49
-0.25
49
0
49
-0.25
0
LTYPE
2
BORDER
70
0
3
__ __ . __ __ . __ __ . __ __ . __ __ . __ _
72
65
73
6
40
1.75
49
0.5
49
-0.25
49
0.5
49
-0.25
49
0
49
-0.25
0
LTYPE
2
DIVIDE
70
0
3
__ . . __ . . __ . . __ . . __ . . __ . . __
72
65
73
6
40
1.25
49
0.5
49
-0.25
49
0
49
-0.25
49
0
49
-0.25
0
ENDTAB
0
TABLE
2
LAYER
70
3
0
LAYER
2
Layer_1
70
0
62
7
6
CONTINUOUS
0
LAYER
2
Layer_2
70
0
62
7
6
CONTINUOUS
0
LAYER
2
Layer_3
70
0
62
7
6
CONTINUOUS
0
ENDTAB
0
ENDSEC
0
SECTION
2
ENTITIES
0
LINE
8
Layer_1
6
CONTINUOUS
62
7
10
292
20
268
11
342
21
268
0
LINE
8
Layer_1
6
CONTINUOUS
62
7
10
342
20
268
11
341.999999997306190380186
21
248
0
LINE
8
Layer_1
6
CONTINUOUS
62
7
10
342
20
248
11
292
21
248
0
LINE
8
Layer_1
6
CONTINUOUS
62
7
10
292
20
248
11
292.000000002693809619814
21
268
0
LINE
8
Layer_1
6
CONTINUOUS
62
7
10
282
20
278
11
281.999999994612380760373
21
238
0
LINE
8
Layer_1
6
CONTINUOUS
62
7
10
282
20
278
11
352
21
278
0
LINE
8
Layer_1
6
CONTINUOUS
62
7
10
351.999999994612380760373
20
238
11
352
21
278
0
LINE
8
Layer_1
6
CONTINUOUS
62
7
10
351.999999994612380760373
20
238
11
281.999999994612380760373
21
238
0
ARC
8
Layer_1
6
CONTINUOUS
62
7
10
110
20
220
40
50
50
358.8540080015786770673
51
181.145991993276538778446
0
LINE
8
Layer_1
6
CONTINUOUS
62
7
10
60
20
219
11
60.0100010002000487929763
21
219
0
LINE
8
Layer_1
6
CONTINUOUS
62
7
10
159.989998999799951207024
20
219
11
160
21
219
0
LINE
8
Layer_1
6
CONTINUOUS
62
7
10
160
20
219
11
159.999999991918599562268
21
159
0
LINE
8
Layer_1
6
CONTINUOUS
62
7
10
60
20
219
11
59.9999999919186137731231
21
159
0
LINE
8
Layer_1
6
CONTINUOUS
62
7
10
60
20
159
11
80
21
159
0
CIRCLE
8
Layer_1
6
CONTINUOUS
62
7
10
220
20
230
40
50
0
CIRCLE
8
Layer_1
6
CONTINUOUS
62
7
10
220
20
230
40
40
0
LINE
8
Layer_1
6
CONTINUOUS
62
7
10
59.9999999996408277525006
20
178
11
59.9999999996408277525006
21
168
0
POLYLINE
8
Layer_1
6
CONTINUOUS
62
7
66
1
10
0
20
0
70
129
40
0
41
0
0
VERTEX
8
Layer_1
6
CONTINUOUS
62
7
10
60
20
170
0
VERTEX
8
Layer_1
6
CONTINUOUS
62
7
10
63.9392310120522964211887
20
170.694592710648066713475
0
VERTEX
8
Layer_1
6
CONTINUOUS
62
7
10
63.9392310120522964211887
20
169.305407289351933286525
0
VERTEX
8
Layer_1
6
CONTINUOUS
62
7
10
60
20
170
0
SEQEND
0
LINE
8
Layer_1
6
CONTINUOUS
62
7
10
60
20
170
11
160
21
170
0
POLYLINE
8
Layer_1
6
CONTINUOUS
62
7
66
1
10
0
20
0
70
129
40
0
41
0
0
VERTEX
8
Layer_1
6
CONTINUOUS
62
7
10
160
20
170
0
VERTEX
8
Layer_1
6
CONTINUOUS
62
7
10
156.060768987885325032039
20
169.305407289705641460387
0
VERTEX
8
Layer_1
6
CONTINUOUS
62
7
10
156.060768988010067914729
20
170.694592711001774887336
0
VERTEX
8
Layer_1
6
CONTINUOUS
62
7
10
160
20
170
0
SEQEND
0
LINE
8
Layer_1
6
CONTINUOUS
62
7
10
159.999999999640834857928
20
168
11
159.999999999640834857928
21
178
0
POLYLINE
8
Layer_1
6
CONTINUOUS
62
7
66
1
10
0
20
0
70
129
40
0
41
0
0
VERTEX
8
Layer_1
6
CONTINUOUS
62
7
10
107.420190995997018035268
20
172
0
VERTEX
8
Layer_1
6
CONTINUOUS
62
7
10
106.929058663118439653772
20
172
0
VERTEX
8
Layer_1
6
CONTINUOUS
62
7
10
106.929058663118439653772
20
175.129604365620735961784
0
VERTEX
8
Layer_1
6
CONTINUOUS
62
7
10
106.724079126965648356418
20
174.960436562073681443508
0
VERTEX
8
Layer_1
6
CONTINUOUS
62
7
10
106.463847203363997095948
20
174.791268758526598503522
0
VERTEX
8
Layer_1
6
CONTINUOUS
62
7
10
106.190654843200292134497
20
174.643246930422947116313
0
VERTEX
8
Layer_1
6
CONTINUOUS
62
7
10
105.946793997361268679924
20
174.537517053206016726108
0
VERTEX
8
Layer_1
6
CONTINUOUS
62
7
10
105.946793997361268679924
20
175.012278308321953090854
0
VERTEX
8
Layer_1
6
CONTINUOUS
62
7
10
106.146316507593198252835
20
175.114256480218273281935
0
VERTEX
8
Layer_1
6
CONTINUOUS
62
7
10
106.332878581263045703054
20
175.226466575716244733485
0
VERTEX
8
Layer_1
6
CONTINUOUS
62
7
10
106.506480218370825241436
20
175.348908594815839023795
0
VERTEX
8
Layer_1
6
CONTINUOUS
62
7
10
106.667121418916536867982
20
175.481582537517056152865
0
VERTEX
8
Layer_1
6
CONTINUOUS
62
7
10
106.810027285219405257521
20
175.618349249658933786122
0
VERTEX
8
Layer_1
6
CONTINUOUS
62
7
10
106.930422919598669295738
20
175.753069577080481167286
0
VERTEX
8
Layer_1
6
CONTINUOUS
62
7
10
107.028308322054328982631
20
175.885743519781698296356
0
VERTEX
8
Layer_1
6
CONTINUOUS
62
7
10
107.103683492586384318201
20
176.016371077762613595041
0
VERTEX
8
Layer_1
6
CONTINUOUS
62
7
10
107.420190995997018035268
20
176.016371077762613595041
0
VERTEX
8
Layer_1
6
CONTINUOUS
62
7
10
107.420190995997018035268
20
172
0
SEQEND
0
POLYLINE
8
Layer_1
6
CONTINUOUS
62
7
66
1
10
0
20
0
70
129
40
0
41
0
0
VERTEX
8
Layer_1
6
CONTINUOUS
62
7
10
108.67803547075828873858
20
173.972714870395634534361
0
VERTEX
8
Layer_1
6
CONTINUOUS
62
7
10
108.687158935969748085881
20
174.310112551159619442842
0
VERTEX
8
Layer_1
6
CONTINUOUS
62
7
10
108.714529331604126127786
20
174.612892223738072061678
0
VERTEX
8
Layer_1
6
CONTINUOUS
62
7
10
108.760146657661422864294
20
174.881053888130963969161
0
VERTEX
8
Layer_1
6
CONTINUOUS
62
7
10
108.824010914141638295405
20
175.114597544338323586999
0
VERTEX
8
Layer_1
6
CONTINUOUS
62
7
10
108.905866302954734692321
20
175.31846862210096560375
0
VERTEX
8
Layer_1
6
CONTINUOUS
62
7
10
109.005457026010674326244
20
175.497612551159619442842
0
VERTEX
8
Layer_1
6
CONTINUOUS
62
7
10
109.122783083309457197174
20
175.652029331514313525986
0
VERTEX
8
Layer_1
6
CONTINUOUS
62
7
10
109.257844474851054883402
20
175.78171896316507627489
0
VERTEX
8
Layer_1
6
CONTINUOUS
62
7
10
109.411067530785572898822
20
175.884379263301525497809
0
VERTEX
8
Layer_1
6
CONTINUOUS
62
7
10
109.582878581263059913908
20
175.957708049113250581286
0
VERTEX
8
Layer_1
6
CONTINUOUS
62
7
10
109.773277626283530139517
20
176.00170532060025152532
0
VERTEX
8
Layer_1
6
CONTINUOUS
62
7
10
109.982264665846969364793
20
176.016371077762613595041
0
VERTEX
8
Layer_1
6
CONTINUOUS
62
7
10
110.138301500771945029555
20
176.008270804911319373787
0
VERTEX
8
Layer_1
6
CONTINUOUS
62
7
10
110.284447476215319738913
20
175.983969986357408288313
0
VERTEX
8
Layer_1
6
CONTINUOUS
62
7
10
110.420702592177121914574
20
175.94346862210093718204
0
VERTEX
8
Layer_1
6
CONTINUOUS
62
7
10
110.547066848657337345685
20
175.886766712141877633258
0
VERTEX
8
Layer_1
6
CONTINUOUS
62
7
10
110.663199181535915727181
20
175.814802182810382191747
0
VERTEX
8
Layer_1
6
CONTINUOUS
62
7
10
110.768758526692806753999
20
175.728512960436574985579
0
VERTEX
8
Layer_1
6
CONTINUOUS
62
7
10
110.863744884128010426139
20
175.627899045020456014754
0
VERTEX
8
Layer_1
6
CONTINUOUS
62
7
10
110.948158253841512532745
20
175.512960436562082122691
0
VERTEX
8
Layer_1
6
CONTINUOUS
62
7
10
111.023021828193492410719
20
175.384208731241471923568
0
VERTEX
8
Layer_1
6
CONTINUOUS
62
7
10
111.089358799544100975254
20
175.242155525238729296689
0
VERTEX
8
Layer_1
6
CONTINUOUS
62
7
10
111.147169167893338226349
20
175.086800818553882663764
0
VERTEX
8
Layer_1
6
CONTINUOUS
62
7
10
111.196452933241232585715
20
174.918144611186903603084
0
VERTEX
8
Layer_1
6
CONTINUOUS
62
7
10
111.23584583910754020053
20
174.727575034106422435798
0
VERTEX
8
Layer_1
6
CONTINUOUS
62
7
10
111.263983629012045639683
20
174.506480218281041061346
0
VERTEX
8
Layer_1
6
CONTINUOUS
62
7
10
111.280866302954748903176
20
174.254860163710787901437
0
VERTEX
8
Layer_1
6
CONTINUOUS
62
7
10
111.286493860935649991006
20
173.972714870395634534361
0
VERTEX
8
Layer_1
6
CONTINUOUS
62
7
10
111.277455661754203219971
20
173.637704638472030183038
0
VERTEX
8
Layer_1
6
CONTINUOUS
62
7
10
111.250341064209862906864
20
173.336630286493857511232
0
VERTEX
8
Layer_1
6
CONTINUOUS
62
7
10
111.205150068302629051686
20
173.069491814461116518942
0
VERTEX
8
Layer_1
6
CONTINUOUS
62
7
10
111.141882674032501654438
20
172.836289222373807206168
0
VERTEX
8
Layer_1
6
CONTINUOUS
62
7
10
111.060624147429493291384
20
172.632332878581166824006
0
VERTEX
8
Layer_1
6
CONTINUOUS
62
7
10
110.961459754523630749645
20
172.45293315143248946697
0
VERTEX
8
Layer_1
6
CONTINUOUS
62
7
10
110.844389495314914029223
20
172.298090040927718291641
0
VERTEX
8
Layer_1
6
CONTINUOUS
62
7
10
110.709413369803314708406
20
172.16780354706685329802
0
VERTEX
8
Layer_1
6
CONTINUOUS
62
7
10
110.556019781808771540454
20
172.064546384720330252094
0
VERTEX
8
Layer_1
6
CONTINUOUS
62
7
10
110.383697135151194856917
20
171.990791268758528076432
0
VERTEX
8
Layer_1
6
CONTINUOUS
62
7
10
110.192445429830598868648
20
171.946538199181446771036
0
VERTEX
8
Layer_1
6
CONTINUOUS
62
7
10
109.982264665846969364793
20
171.931787175989086335903
0
VERTEX
8
Layer_1
6
CONTINUOUS
62
7
10
109.841533083309457197174
20
171.938267394270127397249
0
VERTEX
8
Layer_1
6
CONTINUOUS
62
7
10
109.708560709503188945746
20
171.957708049113250581286
0
VERTEX
8
Layer_1
6
CONTINUOUS
62
7
10
109.583347544428150399654
20
171.990109140518427466304
0
VERTEX
8
Layer_1
6
CONTINUOUS
62
7
10
109.465893588084355769752
20
172.035470668485686474014
0
VERTEX
8
Layer_1
6
CONTINUOUS
62
7
10
109.35619884047180505604
20
172.093792633014999182706
0
VERTEX
8
Layer_1
6
CONTINUOUS
62
7
10
109.25426330159049825852
20
172.165075034106394014088
0
VERTEX
8
Layer_1
6
CONTINUOUS
62
7
10
109.160086971440421166335
20
172.249317871759870968162
0
VERTEX
8
Layer_1
6
CONTINUOUS
62
7
10
109.073669850021587990341
20
172.346521145975430044928
0
VERTEX
8
Layer_1
6
CONTINUOUS
62
7
10
108.980943042381753116388
20
172.48115620736697906068
0
VERTEX
8
Layer_1
6
CONTINUOUS
62
7
10
108.900579809093898120409
20
172.635402455661676413001
0
VERTEX
8
Layer_1
6
CONTINUOUS
62
7
10
108.83258015015800879155
20
172.809259890859493680182
0
VERTEX
8
Layer_1
6
CONTINUOUS
62
7
10
108.77694406557411355152
20
173.002728512960430862222
0
VERTEX
8
Layer_1
6
CONTINUOUS
62
7
10
108.733671555342198189464
20
173.215808321964516380831
0
VERTEX
8
Layer_1
6
CONTINUOUS
62
7
10
108.702762619462248494528
20
173.448499317871750236009
0
VERTEX
8
Layer_1
6
CONTINUOUS
62
7
10
108.684217257934278677567
20
173.700801500682132427755
0
VERTEX
8
Layer_1
6
CONTINUOUS
62
7
10
108.67803547075828873858
20
173.972714870395634534361
0
SEQEND
0
POLYLINE
8
Layer_1
6
CONTINUOUS
62
7
66
1
10
0
20
0
70
129
40
0
41
0
0
VERTEX
8
Layer_1
6
CONTINUOUS
62
7
10
109.182810368439049852896
20
173.972714870395634534361
0
VERTEX
8
Layer_1
6
CONTINUOUS
62
7
10
109.197220327511359982964
20
173.521401773533455070719
0
VERTEX
8
Layer_1
6
CONTINUOUS
62
7
10
109.240450204728276162314
20
173.15245566166441903988
0
VERTEX
8
Layer_1
6
CONTINUOUS
62
7
10
109.272872612640952638685
20
172.998870225102365338898
0
VERTEX
8
Layer_1
6
CONTINUOUS
62
7
10
109.312500000089798390945
20
172.865876534788583285263
0
VERTEX
8
Layer_1
6
CONTINUOUS
62
7
10
109.35933236707479920824
20
172.753474590723101300682
0
VERTEX
8
Layer_1
6
CONTINUOUS
62
7
10
109.413369713595940879713
20
172.661664392905890963448
0
VERTEX
8
Layer_1
6
CONTINUOUS
62
7
10
109.535385402545472288693
20
172.519014324693046091852
0
VERTEX
8
Layer_1
6
CONTINUOUS
62
7
10
109.601445259298543533077
20
172.46297322646657335099
0
VERTEX
8
Layer_1
6
CONTINUOUS
62
7
10
109.670873124237147067106
20
172.417121418826752687892
0
VERTEX
8
Layer_1
6
CONTINUOUS
62
7
10
109.743668997361282890779
20
172.381458901773555680847
0
VERTEX
8
Layer_1
6
CONTINUOUS
62
7
10
109.819832878670979425806
20
172.355985675306953908148
0
VERTEX
8
Layer_1
6
CONTINUOUS
62
7
10
109.899364768166208250477
20
172.340701739427004213212
0
VERTEX
8
Layer_1
6
CONTINUOUS
62
7
10
109.982264665846969364793
20
172.33560709413370659604
0
VERTEX
8
Layer_1
6
CONTINUOUS
62
7
10
110.065164563527730479109
20
172.34072305593451801542
0
VERTEX
8
Layer_1
6
CONTINUOUS
62
7
10
110.14469645302295930378
20
172.356070941336980695269
0
VERTEX
8
Layer_1
6
CONTINUOUS
62
7
10
110.220860334332655838807
20
172.381650750341066213878
0
VERTEX
8
Layer_1
6
CONTINUOUS
62
7
10
110.29365620745679166248
20
172.417462482946802992956
0
VERTEX
8
Layer_1
6
CONTINUOUS
62
7
10
110.363084072395395196509
20
172.463506139154162610794
0
VERTEX
8
Layer_1
6
CONTINUOUS
62
7
10
110.429143929148466440893
20
172.519781718963173489101
0
VERTEX
8
Layer_1
6
CONTINUOUS
62
7
10
110.551159618097983639018
20
172.663028649386092183704
0
VERTEX
8
Layer_1
6
CONTINUOUS
62
7
10
110.605196964619139521346
20
172.75511596180081141938
0
VERTEX
8
Layer_1
6
CONTINUOUS
62
7
10
110.652029331604126127786
20
172.867667121418833175994
0
VERTEX
8
Layer_1
6
CONTINUOUS
62
7
10
110.691656719052957669192
20
173.000682128240100610128
0
VERTEX
8
Layer_1
6
CONTINUOUS
62
7
10
110.724079126965648356418
20
173.154160982264670565201
0
VERTEX
8
Layer_1
6
CONTINUOUS
62
7
10
110.767309004182578746622
20
173.522510231923604351323
0
VERTEX
8
Layer_1
6
CONTINUOUS
62
7
10
110.781718963254874665836
20
173.972714870395634534361
0
VERTEX
8
Layer_1
6
CONTINUOUS
62
7
10
110.767309004182578746622
20
174.425136425648020122026
0
VERTEX
8
Layer_1
6
CONTINUOUS
62
7
10
110.724079126965648356418
20
174.794679399727158397582
0
VERTEX
8
Layer_1
6
CONTINUOUS
62
7
10
110.691656719052957669192
20
174.948371418826752687892
0
VERTEX
8
Layer_1
6
CONTINUOUS
62
7
10
110.652029331604126127786
20
175.08134379263302093932
0
VERTEX
8
Layer_1
6
CONTINUOUS
62
7
10
110.605196964619139521346
20
175.193596521145991573576
0
VERTEX
8
Layer_1
6
CONTINUOUS
62
7
10
110.551159618097983639018
20
175.28512960436563616895
0
VERTEX
8
Layer_1
6
CONTINUOUS
62
7
10
110.428802865028416135829
20
175.427182810368350374119
0
VERTEX
8
Layer_1
6
CONTINUOUS
62
7
10
110.36231667812526779926
20
175.482989427012256555827
0
VERTEX
8
Layer_1
6
CONTINUOUS
62
7
10
110.292291950976562020514
20
175.528649386084566685895
0
VERTEX
8
Layer_1
6
CONTINUOUS
62
7
10
110.218728683582298799593
20
175.564162687585252342615
0
VERTEX
8
Layer_1
6
CONTINUOUS
62
7
10
110.141626875942449714785
20
175.589529331514313525986
0
VERTEX
8
Layer_1
6
CONTINUOUS
62
7
10
110.0609865280570431878
20
175.604749317871750236009
0
VERTEX
8
Layer_1
6
CONTINUOUS
62
7
10
109.976807639926093429494
20
175.609822646657562472683
0
VERTEX
8
Layer_1
6
CONTINUOUS
62
7
10
109.816166439380381802948
20
175.591916780354694083144
0
VERTEX
8
Layer_1
6
CONTINUOUS
62
7
10
109.672578444837412803281
20
175.538199181446088914527
0
VERTEX
8
Layer_1
6
CONTINUOUS
62
7
10
109.546043656297172219638
20
175.448669849931775388541
0
VERTEX
8
Layer_1
6
CONTINUOUS
62
7
10
109.436562073759660052019
20
175.323328785811725083477
0
VERTEX
8
Layer_1
6
CONTINUOUS
62
7
10
109.3770890178251420366
20
175.222245907230558259471
0
VERTEX
8
Layer_1
6
CONTINUOUS
62
7
10
109.325545702681893089903
20
175.101807639836295038549
0
VERTEX
8
Layer_1
6
CONTINUOUS
62
7
10
109.281932128329913211928
20
174.962013983628935420711
0
VERTEX
8
Layer_1
6
CONTINUOUS
62
7
10
109.246248294769202402676
20
174.802864938608450984248
0
VERTEX
8
Layer_1
6
CONTINUOUS
62
7
10
109.218494201999760662147
20
174.624360504774870150868
0
VERTEX
8
Layer_1
6
CONTINUOUS
62
7
10
109.198669850021587990341
20
174.426500682128221342282
0
VERTEX
8
Layer_1
6
CONTINUOUS
62
7
10
109.182810368439049852896
20
173.972714870395634534361
0
SEQEND
0
POLYLINE
8
Layer_1
6
CONTINUOUS
62
7
66
1
10
0
20
0
70
129
40
0
41
0
0
VERTEX
8
Layer_1
6
CONTINUOUS
62
7
10
111.785811732695520959169
20
173.972714870395634534361
0
VERTEX
8
Layer_1
6
CONTINUOUS
62
7
10
111.79493519790698030647
20
174.310112551159619442842
0
VERTEX
8
Layer_1
6
CONTINUOUS
62
7
10
111.822305593541358348375
20
174.612892223738072061678
0
VERTEX
8
Layer_1
6
CONTINUOUS
62
7
10
111.867922919598655084883
20
174.881053888130963969161
0
VERTEX
8
Layer_1
6
CONTINUOUS
62
7
10
111.931787176078870515994
20
175.114597544338323586999
0
VERTEX
8
Layer_1
6
CONTINUOUS
62
7
10
112.01364256489196691291
20
175.31846862210096560375
0
VERTEX
8
Layer_1
6
CONTINUOUS
62
7
10
112.113233287947906546833
20
175.497612551159619442842
0
VERTEX
8
Layer_1
6
CONTINUOUS
62
7
10
112.230559345246689417763
20
175.652029331514313525986
0
VERTEX
8
Layer_1
6
CONTINUOUS
62
7
10
112.365620736788287103991
20
175.78171896316507627489
0
VERTEX
8
Layer_1
6
CONTINUOUS
62
7
10
112.518843792722805119411
20
175.884379263301525497809
0
VERTEX
8
Layer_1
6
CONTINUOUS
62
7
10
112.690654843200292134497
20
175.957708049113250581286
0
VERTEX
8
Layer_1
6
CONTINUOUS
62
7
10
112.881053888220762360106
20
176.00170532060025152532
0
VERTEX
8
Layer_1
6
CONTINUOUS
62
7
10
113.090040927784201585382
20
176.016371077762613595041
0
VERTEX
8
Layer_1
6
CONTINUOUS
62
7
10
113.246077762709177250144
20
176.008270804911319373787
0
VERTEX
8
Layer_1
6
CONTINUOUS
62
7
10
113.392223738152551959502
20
175.983969986357408288313
0
VERTEX
8
Layer_1
6
CONTINUOUS
62
7
10
113.528478854114354135163
20
175.94346862210093718204
0
VERTEX
8
Layer_1
6
CONTINUOUS
62
7
10
113.654843110594569566274
20
175.886766712141877633258
0
VERTEX
8
Layer_1
6
CONTINUOUS
62
7
10
113.77097544347314794777
20
175.814802182810382191747
0
VERTEX
8
Layer_1
6
CONTINUOUS
62
7
10
113.876534788630038974588
20
175.728512960436574985579
0
VERTEX
8
Layer_1
6
CONTINUOUS
62
7
10
113.971521146065242646728
20
175.627899045020456014754
0
VERTEX
8
Layer_1
6
CONTINUOUS
62
7
10
114.055934515778744753334
20
175.512960436562082122691
0
VERTEX
8
Layer_1
6
CONTINUOUS
62
7
10
114.130798090130724631308
20
175.384208731241471923568
0
VERTEX
8
Layer_1
6
CONTINUOUS
62
7
10
114.197135061481333195843
20
175.242155525238729296689
0
VERTEX
8
Layer_1
6
CONTINUOUS
62
7
10
114.254945429830570446939
20
175.086800818553882663764
0
VERTEX
8
Layer_1
6
CONTINUOUS
62
7
10
114.304229195178464806304
20
174.918144611186903603084
0
VERTEX
8
Layer_1
6
CONTINUOUS
62
7
10
114.343622101044772421119
20
174.727575034106422435798
0
VERTEX
8
Layer_1
6
CONTINUOUS
62
7
10
114.371759890949277860273
20
174.506480218281041061346
0
VERTEX
8
Layer_1
6
CONTINUOUS
62
7
10
114.388642564891981123765
20
174.254860163710787901437
0
VERTEX
8
Layer_1
6
CONTINUOUS
62
7
10
114.394270122872882211595
20
173.972714870395634534361
0
VERTEX
8
Layer_1
6
CONTINUOUS
62
7
10
114.38523192369143544056
20
173.637704638472030183038
0
VERTEX
8
Layer_1
6
CONTINUOUS
62
7
10
114.358117326147095127453
20
173.336630286493857511232
0
VERTEX
8
Layer_1
6
CONTINUOUS
62
7
10
114.312926330239861272275
20
173.069491814461116518942
0
VERTEX
8
Layer_1
6
CONTINUOUS
62
7
10
114.249658935969733875027
20
172.836289222373807206168
0
VERTEX
8
Layer_1
6
CONTINUOUS
62
7
10
114.168400409366725511973
20
172.632332878581166824006
0
VERTEX
8
Layer_1
6
CONTINUOUS
62
7
10
114.069236016460862970234
20
172.45293315143248946697
0
VERTEX
8
Layer_1
6
CONTINUOUS
62
7
10
113.952165757252146249812
20
172.298090040927718291641
0
VERTEX
8
Layer_1
6
CONTINUOUS
62
7
10
113.817189631740546928995
20
172.16780354706685329802
0
VERTEX
8
Layer_1
6
CONTINUOUS
62
7
10
113.663796043746003761044
20
172.064546384720330252094
0
VERTEX
8
Layer_1
6
CONTINUOUS
62
7
10
113.491473397088427077506
20
171.990791268758528076432
0
VERTEX
8
Layer_1
6
CONTINUOUS
62
7
10
113.300221691767831089237
20
171.946538199181446771036
0
VERTEX
8
Layer_1
6
CONTINUOUS
62
7
10
113.090040927784201585382
20
171.931787175989086335903
0
VERTEX
8
Layer_1
6
CONTINUOUS
62
7
10
112.949309345246689417763
20
171.938267394270127397249
0
VERTEX
8
Layer_1
6
CONTINUOUS
62
7
10
112.816336971440421166335
20
171.957708049113250581286
0
VERTEX
8
Layer_1
6
CONTINUOUS
62
7
10
112.691123806365382620243
20
171.990109140518427466304
0
VERTEX
8
Layer_1
6
CONTINUOUS
62
7
10
112.573669850021587990341
20
172.035470668485686474014
0
VERTEX
8
Layer_1
6
CONTINUOUS
62
7
10
112.46397510240903727663
20
172.093792633014999182706
0
VERTEX
8
Layer_1
6
CONTINUOUS
62
7
10
112.362039563527730479109
20
172.165075034106394014088
0
VERTEX
8
Layer_1
6
CONTINUOUS
62
7
10
112.267863233377653386924
20
172.249317871759870968162
0
VERTEX
8
Layer_1
6
CONTINUOUS
62
7
10
112.18144611195882021093
20
172.346521145975430044928
0
VERTEX
8
Layer_1
6
CONTINUOUS
62
7
10
112.088719304318985336977
20
172.48115620736697906068
0
VERTEX
8
Layer_1
6
CONTINUOUS
62
7
10
112.008356071031130340998
20
172.635402455661676413001
0
VERTEX
8
Layer_1
6
CONTINUOUS
62
7
10
111.940356412095241012139
20
172.809259890859493680182
0
VERTEX
8
Layer_1
6
CONTINUOUS
62
7
10
111.884720327511345772109
20
173.002728512960430862222
0
VERTEX
8
Layer_1
6
CONTINUOUS
62
7
10
111.841447817279430410053
20
173.215808321964516380831
0
VERTEX
8
Layer_1
6
CONTINUOUS
62
7
10
111.810538881399480715118
20
173.448499317871750236009
0
VERTEX
8
Layer_1
6
CONTINUOUS
62
7
10
111.791993519871510898156
20
173.700801500682132427755
0
VERTEX
8
Layer_1
6
CONTINUOUS
62
7
10
111.785811732695520959169
20
173.972714870395634534361
0
SEQEND
0
POLYLINE
8
Layer_1
6
CONTINUOUS
62
7
66
1
10
0
20
0
70
129
40
0
41
0
0
VERTEX
8
Layer_1
6
CONTINUOUS
62
7
10
112.290586630376282073485
20
173.972714870395634534361
0
VERTEX
8
Layer_1
6
CONTINUOUS
62
7
10
112.304996589448592203553
20
173.521401773533455070719
0
VERTEX
8
Layer_1
6
CONTINUOUS
62
7
10
112.348226466665508382903
20
173.15245566166441903988
0
VERTEX
8
Layer_1
6
CONTINUOUS
62
7
10
112.380648874578184859274
20
172.998870225102365338898
0
VERTEX
8
Layer_1
6
CONTINUOUS
62
7
10
112.420276262027030611534
20
172.865876534788583285263
0
VERTEX
8
Layer_1
6
CONTINUOUS
62
7
10
112.467108629012031428829
20
172.753474590723101300682
0
VERTEX
8
Layer_1
6
CONTINUOUS
62
7
10
112.521145975533173100303
20
172.661664392905890963448
0
VERTEX
8
Layer_1
6
CONTINUOUS
62
7
10
112.643161664482704509282
20
172.519014324693046091852
0
VERTEX
8
Layer_1
6
CONTINUOUS
62
7
10
112.709221521235775753667
20
172.46297322646657335099
0
VERTEX
8
Layer_1
6
CONTINUOUS
62
7
10
112.778649386174379287695
20
172.417121418826752687892
0
VERTEX
8
Layer_1
6
CONTINUOUS
62
7
10
112.851445259298515111368
20
172.381458901773555680847
0
VERTEX
8
Layer_1
6
CONTINUOUS
62
7
10
112.927609140608211646395
20
172.355985675306953908148
0
VERTEX
8
Layer_1
6
CONTINUOUS
62
7
10
113.007141030103440471066
20
172.340701739427004213212
0
VERTEX
8
Layer_1
6
CONTINUOUS
62
7
10
113.090040927784201585382
20
172.33560709413370659604
0
VERTEX
8
Layer_1
6
CONTINUOUS
62
7
10
113.172940825464962699698
20
172.34072305593451801542
0
VERTEX
8
Layer_1
6
CONTINUOUS
62
7
10
113.252472714960191524369
20
172.356070941336980695269
0
VERTEX
8
Layer_1
6
CONTINUOUS
62
7
10
113.328636596269888059396
20
172.381650750341066213878
0
VERTEX
8
Layer_1
6
CONTINUOUS
62
7
10
113.401432469394023883069
20
172.417462482946802992956
0
VERTEX
8
Layer_1
6
CONTINUOUS
62
7
10
113.470860334332627417098
20
172.463506139154162610794
0
VERTEX
8
Layer_1
6
CONTINUOUS
62
7
10
113.536920191085698661482
20
172.519781718963173489101
0
VERTEX
8
Layer_1
6
CONTINUOUS
62
7
10
113.658935880035215859607
20
172.663028649386092183704
0
VERTEX
8
Layer_1
6
CONTINUOUS
62
7
10
113.712973226556371741935
20
172.75511596180081141938
0
VERTEX
8
Layer_1
6
CONTINUOUS
62
7
10
113.759805593541358348375
20
172.867667121418833175994
0
VERTEX
8
Layer_1
6
CONTINUOUS
62
7
10
113.799432980990189889781
20
173.000682128240100610128
0
VERTEX
8
Layer_1
6
CONTINUOUS
62
7
10
113.831855388902880577007
20
173.154160982264670565201
0
VERTEX
8
Layer_1
6
CONTINUOUS
62
7
10
113.875085266119810967211
20
173.522510231923604351323
0
VERTEX
8
Layer_1
6
CONTINUOUS
62
7
10
113.889495225192106886425
20
173.972714870395634534361
0
VERTEX
8
Layer_1
6
CONTINUOUS
62
7
10
113.875085266119810967211
20
174.425136425648020122026
0
VERTEX
8
Layer_1
6
CONTINUOUS
62
7
10
113.831855388902880577007
20
174.794679399727158397582
0
VERTEX
8
Layer_1
6
CONTINUOUS
62
7
10
113.799432980990189889781
20
174.948371418826752687892
0
VERTEX
8
Layer_1
6
CONTINUOUS
62
7
10
113.759805593541358348375
20
175.08134379263302093932
0
VERTEX
8
Layer_1
6
CONTINUOUS
62
7
10
113.712973226556371741935
20
175.193596521145991573576
0
VERTEX
8
Layer_1
6
CONTINUOUS
62
7
10
113.658935880035215859607
20
175.28512960436563616895
0
VERTEX
8
Layer_1
6
CONTINUOUS
62
7
10
113.536579126965648356418
20
175.427182810368350374119
0
VERTEX
8
Layer_1
6
CONTINUOUS
62
7
10
113.470092940062500019849
20
175.482989427012256555827
0
VERTEX
8
Layer_1
6
CONTINUOUS
62
7
10
113.400068212913794241103
20
175.528649386084566685895
0
VERTEX
8
Layer_1
6
CONTINUOUS
62
7
10
113.326504945519531020182
20
175.564162687585252342615
0
VERTEX
8
Layer_1
6
CONTINUOUS
62
7
10
113.249403137879681935374
20
175.589529331514313525986
0
VERTEX
8
Layer_1
6
CONTINUOUS
62
7
10
113.16876278999427540839
20
175.604749317871750236009
0
VERTEX
8
Layer_1
6
CONTINUOUS
62
7
10
113.084583901863325650083
20
175.609822646657562472683
0
VERTEX
8
Layer_1
6
CONTINUOUS
62
7
10
112.923942701317614023537
20
175.591916780354694083144
0
VERTEX
8
Layer_1
6
CONTINUOUS
62
7
10
112.78035470677464502387
20
175.538199181446088914527
0
VERTEX
8
Layer_1
6
CONTINUOUS
62
7
10
112.653819918234404440227
20
175.448669849931775388541
0
VERTEX
8
Layer_1
6
CONTINUOUS
62
7
10
112.544338335696892272608
20
175.323328785811725083477
0
VERTEX
8
Layer_1
6
CONTINUOUS
62
7
10
112.484865279762374257189
20
175.222245907230558259471
0
VERTEX
8
Layer_1
6
CONTINUOUS
62
7
10
112.433321964619125310492
20
175.101807639836295038549
0
VERTEX
8
Layer_1
6
CONTINUOUS
62
7
10
112.389708390267145432517
20
174.962013983628935420711
0
VERTEX
8
Layer_1
6
CONTINUOUS
62
7
10
112.354024556706434623266
20
174.802864938608450984248
0
VERTEX
8
Layer_1
6
CONTINUOUS
62
7
10
112.326270463936992882736
20
174.624360504774870150868
0
VERTEX
8
Layer_1
6
CONTINUOUS
62
7
10
112.30644611195882021093
20
174.426500682128221342282
0
VERTEX
8
Layer_1
6
CONTINUOUS
62
7
10
112.290586630376282073485
20
173.972714870395634534361
0
SEQEND
0
LINE
8
Layer_1
6
CONTINUOUS
62
7
10
140
20
159
11
160
21
159
0
LINE
8
Layer_1
6
CONTINUOUS
62
7
10
80
20
153
11
80
21
159
0
LINE
8
Layer_1
6
CONTINUOUS
62
7
10
140
20
159
11
140
21
153
0
LINE
8
Layer_1
6
CONTINUOUS
62
7
10
80
20
153
11
140
21
153
0
LINE
8
Layer_1
6
CONTINUOUS
62
7
10
78
20
159
11
72
21
159
0
POLYLINE
8
Layer_1
6
CONTINUOUS
62
7
66
1
10
0
20
0
70
129
40
0
41
0
0
VERTEX
8
Layer_1
6
CONTINUOUS
62
7
10
74
20
159
0
VERTEX
8
Layer_1
6
CONTINUOUS
62
7
10
73.305407289528787373456
20
162.939231012083496352716
0
VERTEX
8
Layer_1
6
CONTINUOUS
62
7
10
74.6945927108249350112601
20
162.939231012021110700516
0
VERTEX
8
Layer_1
6
CONTINUOUS
62
7
10
74
20
159
0
SEQEND
0
LINE
8
Layer_1
6
CONTINUOUS
62
7
10
74
20
159
11
74
21
166
0
POLYLINE
8
Layer_1
6
CONTINUOUS
62
7
66
1
10
0
20
0
70
129
40
0
41
0
0
VERTEX
8
Layer_1
6
CONTINUOUS
62
7
10
74
20
153
0
VERTEX
8
Layer_1
6
CONTINUOUS
62
7
10
74.6945927101175044526826
20
149.060768987854146416794
0
VERTEX
8
Layer_1
6
CONTINUOUS
62
7
10
73.3054072888213568148785
20
149.060768988041246529974
0
VERTEX
8
Layer_1
6
CONTINUOUS
62
7
10
74
20
153
0
SEQEND
0
LINE
8
Layer_1
6
CONTINUOUS
62
7
10
74
20
153
11
74
21
146
0
LINE
8
Layer_1
6
CONTINUOUS
62
7
10
72
20
153
11
78
21
153
0
POLYLINE
8
Layer_1
6
CONTINUOUS
62
7
66
1
10
0
20
0
70
129
40
0
41
0
0
VERTEX
8
Layer_1
6
CONTINUOUS
62
7
10
72.9795361526922334860501
20
143.672578444703646027847
0
VERTEX
8
Layer_1
6
CONTINUOUS
62
7
10
73.0177353341164234734606
20
143.184174624783764784297
0
VERTEX
8
Layer_1
6
CONTINUOUS
62
7
10
72.8830150066932418440047
20
143.148021828064031524264
0
VERTEX
8
Layer_1
6
CONTINUOUS
62
7
10
72.7680763982329210648459
20
143.105047748942297403119
0
VERTEX
8
Layer_1
6
CONTINUOUS
62
7
10
72.6729195087354611359842
20
143.055252387418619264281
0
VERTEX
8
Layer_1
6
CONTINUOUS
62
7
10
72.5975443382008620574197
20
142.998635743492968686041
0
VERTEX
8
Layer_1
6
CONTINUOUS
62
7
10
72.505627557841421548801
20
142.893246930400209748768
0
VERTEX
8
Layer_1
6
CONTINUOUS
62
7
10
72.4399727147256555781496
20
142.776261937224461462392
0
VERTEX
8
Layer_1
6
CONTINUOUS
62
7
10
72.4005798088535925671749
20
142.647680763965666983495
0
VERTEX
8
Layer_1
6
CONTINUOUS
62
7
10
72.3874488402251898833129
20
142.507503410623797890366
0
VERTEX
8
Layer_1
6
CONTINUOUS
62
7
10
72.3956343791013949839908
20
142.393758526585259005515
0
VERTEX
8
Layer_1
6
CONTINUOUS
62
7
10
72.4201909957405405293684
20
142.287175989067094405982
0
VERTEX
8
Layer_1
6
CONTINUOUS
62
7
10
72.4611186901426265194459
20
142.187755798069332513478
0
VERTEX
8
Layer_1
6
CONTINUOUS
62
7
10
72.5184174623076529542232
20
142.095497953592001749712
0
VERTEX
8
Layer_1
6
CONTINUOUS
62
7
10
72.6127216914977964279387
20
141.985675306930176020614
0
VERTEX
8
Layer_1
6
CONTINUOUS
62
7
10
72.726466575531617309025
20
141.888130968589479152797
0
VERTEX
8
Layer_1
6
CONTINUOUS
62
7
10
72.8596521144091013866273
20
141.802864938569882724551
0
VERTEX
8
Layer_1
6
CONTINUOUS
62
7
10
73.0122783081302486607456
20
141.729877216871329892456
0
VERTEX
8
Layer_1
6
CONTINUOUS
62
7
10
73.1918485673363363730459
20
141.67104365615386996069
0
VERTEX
8
Layer_1
6
CONTINUOUS
62
7
10
73.4058663026686701869039
20
141.628240109077410124883
0
VERTEX
8
Layer_1
6
CONTINUOUS
62
7
10
73.6543315141272216806101
20
141.601466575641978806743
0
VERTEX
8
Layer_1
6
CONTINUOUS
62
7
10
73.9372442017120050650192
20
141.590723055847547584563
0
VERTEX
8
Layer_1
6
CONTINUOUS
62
7
10
73.8108799452359960469039
20
141.684345156808205956622
0
VERTEX
8
Layer_1
6
CONTINUOUS
62
7
10
73.7019099588831920755183
20
141.787858117249641054514
0
VERTEX
8
Layer_1
6
CONTINUOUS
62
7
10
73.6103342426536357834266
20
141.901261937171909721656
0
VERTEX
8
Layer_1
6
CONTINUOUS
62
7
10
73.5361527965472987489193
20
142.024556616574955114629
0
VERTEX
8
Layer_1
6
CONTINUOUS
62
7
10
73.4788540243839634058531
20
142.154331514258302604503
0
VERTEX
8
Layer_1
6
CONTINUOUS
62
7
10
73.4379263299833837663755
20
142.287175989021392297218
0
VERTEX
8
Layer_1
6
CONTINUOUS
62
7
10
73.4133697133455598304863
20
142.423090040864224192774
0
VERTEX
8
Layer_1
6
CONTINUOUS
62
7
10
73.4051841744704773873309
20
142.562073669786855134589
0
VERTEX
8
Layer_1
6
CONTINUOUS
62
7
10
73.4108330489642924021609
20
142.682575886703375545039
0
VERTEX
8
Layer_1
6
CONTINUOUS
62
7
10
73.4277796724347240342468
20
142.798516371013676007351
0
VERTEX
8
Layer_1
6
CONTINUOUS
62
7
10
73.4560240448817438618789
20
142.909895122717728099815
0
VERTEX
8
Layer_1
6
CONTINUOUS
62
7
10
73.4955661663053660959122
20
143.016712141815531822431
0
VERTEX
8
Layer_1
6
CONTINUOUS
62
7
10
73.5464060367055907363465
20
143.118967428307087175199
0
VERTEX
8
Layer_1
6
CONTINUOUS
62
7
10
73.6085436560824177831819
20
143.216660982192422579828
0
VERTEX
8
Layer_1
6
CONTINUOUS
62
7
10
73.6819790244358472364183
20
143.30979280347153803632
0
VERTEX
8
Layer_1
6
CONTINUOUS
62
7
10
73.7667121417658790960559
20
143.398362892144405122963
0
VERTEX
8
Layer_1
6
CONTINUOUS
62
7
10
73.8603981922470040899498
20
143.479259038115628754895
0
VERTEX
8
Layer_1
6
CONTINUOUS
62
7
10
73.9606923600536845242459
20
143.549369031289870690671
0
VERTEX
8
Layer_1
6
CONTINUOUS
62
7
10
74.0675946451859630315084
20
143.608692871667074086872
0
VERTEX
8
Layer_1
6
CONTINUOUS
62
7
10
74.1811050476437969791732
20
143.657230559247210521789
0
VERTEX
8
Layer_1
6
CONTINUOUS
62
7
10
74.3012235674272005780949
20
143.694982094030336838841
0
VERTEX
8
Layer_1
6
CONTINUOUS
62
7
10
74.4279502045361880391283
20
143.721947476016481459737
0
VERTEX
8
Layer_1
6
CONTINUOUS
62
7
10
74.5612849589707593622734
20
143.738126705205615962768
0
VERTEX
8
Layer_1
6
CONTINUOUS
62
7
10
74.7012278307308861258207
20
143.743519781597683504515
0
VERTEX
8
Layer_1
6
CONTINUOUS
62
7
10
74.8861698498300256687799
20
143.733373124017759892013
0
VERTEX
8
Layer_1
6
CONTINUOUS
62
7
10
75.0644611185871895031596
20
143.702933151294871549908
0
VERTEX
8
Layer_1
6
CONTINUOUS
62
7
10
75.2361016370023776289599
20
143.65219986342904689991
0
VERTEX
8
Layer_1
6
CONTINUOUS
62
7
10
75.4010914050755900461809
20
143.581173260420285942018
0
VERTEX
8
Layer_1
6
CONTINUOUS
62
7
10
75.5532912686459496853786
20
143.492411323169250181309
0
VERTEX
8
Layer_1
6
CONTINUOUS
62
7
10
75.6865620735526078988187
20
143.388472032576629544565
0
VERTEX
8
Layer_1
6
CONTINUOUS
62
7
10
75.8009038197955504756465
20
143.269355388642452453496
0
VERTEX
8
Layer_1
6
CONTINUOUS
62
7
10
75.8963165073747916267166
20
143.135061391366662064684
0
VERTEX
8
Layer_1
6
CONTINUOUS
62
7
10
75.9715211458402421840219
20
142.988403819739829714308
0
VERTEX
8
Layer_1
6
CONTINUOUS
62
7
10
76.0252387447418129795551
20
142.832196452752441473422
0
VERTEX
8
Layer_1
6
CONTINUOUS
62
7
10
76.0574693040795182241709
20
142.666439290404468920315
0
VERTEX
8
Layer_1
6
CONTINUOUS
62
7
10
76.068212823853372128724
20
142.491132332695940476697
0
VERTEX
8
Layer_1
6
CONTINUOUS
62
7
10
76.0611570598630066797341
20
142.341192018917240602605
0
VERTEX
8
Layer_1
6
CONTINUOUS
62
7
10
76.0399897679057090726928
20
142.198328785630337733892
0
VERTEX
8
Layer_1
6
CONTINUOUS
62
7
10
76.0047109479814650967455
20
142.062542632835231870558
0
VERTEX
8
Layer_1
6
CONTINUOUS
62
7
10
75.9553206000902889627469
20
141.933833560531837747476
0
VERTEX
8
Layer_1
6
CONTINUOUS
62
7
10
75.8918187242321664598421
20
141.812201568720240629773
0
VERTEX
8
Layer_1
6
CONTINUOUS
62
7
10
75.814205320407111798886
20
141.697646657400355252321
0
VERTEX
8
Layer_1
6
CONTINUOUS
62
7
10
75.7224803886151107690239
20
141.590168826572266880248
0
VERTEX
8
Layer_1
6
CONTINUOUS
62
7
10
75.6166439288561775811104
20
141.489768076235975513555
0
VERTEX
8
Layer_1
6
CONTINUOUS
62
7
10
75.4946069233950680654743
20
141.398959754276916100935
0
VERTEX
8
Layer_1
6
CONTINUOUS
62
7
10
75.3542803544965806850087
20
141.320259208580637277919
0
VERTEX
8
Layer_1
6
CONTINUOUS
62
7
10
75.1956642221607154397134
20
141.253666439147082201089
0
VERTEX
8
Layer_1
6
CONTINUOUS
62
7
10
75.0187585263874723295885
20
141.199181445976336135573
0
VERTEX
8
Layer_1
6
CONTINUOUS
62
7
10
74.8235632671768371437793
20
141.156804229068342237952
0
VERTEX
8
Layer_1
6
CONTINUOUS
62
7
10
74.6100784445288240931404
20
141.126534788423072086516
0
VERTEX
8
Layer_1
6
CONTINUOUS
62
7
10
74.3783040584434189668173
20
141.108373124040554102976
0
VERTEX
8
Layer_1
6
CONTINUOUS
62
7
10
74.1282401089206359756645
20
141.10231923592081670904
0
VERTEX
8
Layer_1
6
CONTINUOUS
62
7
10
73.8482264663561380757528
20
141.109012619289472922901
0
VERTEX
8
Layer_1
6
CONTINUOUS
62
7
10
73.5879945427554105208401
20
141.129092769369378856936
0
VERTEX
8
Layer_1
6
CONTINUOUS
62
7
10
73.3475443381184391000716
20
141.162559686160534511146
0
VERTEX
8
Layer_1
6
CONTINUOUS
62
7
10
73.1268758524452238134472
20
141.20941336966291146382
0
VERTEX
8
Layer_1
6
CONTINUOUS
62
7
10
72.9259890857357788718218
20
141.269653819876566558378
0
VERTEX
8
Layer_1
6
CONTINUOUS
62
7
10
72.7448840379901042751953
20
141.34328103680147137311
0
VERTEX
8
Layer_1
6
CONTINUOUS
62
7
10
72.5835607092082000235678
20
141.430295020437654329726
0
VERTEX
8
Layer_1
6
CONTINUOUS
62
7
10
72.4420190993900661169391
20
141.530695770785058584806
0
VERTEX
8
Layer_1
6
CONTINUOUS
62
7
10
72.3345839015772469338117
20
141.628197476110500474533
0
VERTEX
8
Layer_1
6
CONTINUOUS
62
7
10
72.2414733968070947867091
20
141.733799454286582886198
0
VERTEX
8
Layer_1
6
CONTINUOUS
62
7
10
72.1626875850795954647765
20
141.8475017053133058198
0
VERTEX
8
Layer_1
6
CONTINUOUS
62
7
10
72.098226466394748968014
20
141.969304229190697697049
0
VERTEX
8
Layer_1
6
CONTINUOUS
62
7
10
72.0480900407525695072763
20
142.099207025918730096237
0
VERTEX
8
Layer_1
6
CONTINUOUS
62
7
10
72.0122783081530428717087
20
142.237210095497403017362
0
VERTEX
8
Layer_1
6
CONTINUOUS
62
7
10
71.9907912685961548504565
20
142.383313437926744882134
0
VERTEX
8
Layer_1
6
CONTINUOUS
62
7
10
71.9836289220819338652291
20
142.537517053206727268844
0
VERTEX
8
Layer_1
6
CONTINUOUS
62
7
10
72.0001705319147049522144
20
142.762875170532026913861
0
VERTEX
8
Layer_1
6
CONTINUOUS
62
7
10
72.0497953613918014070805
20
142.966916780352448768099
0
VERTEX
8
Layer_1
6
CONTINUOUS
62
7
10
72.1325034105132374406821
20
143.149641882667992831557
0
VERTEX
8
Layer_1
6
CONTINUOUS
62
7
10
72.2482946792790130530193
20
143.311050477478602260817
0
VERTEX
8
Layer_1
6
CONTINUOUS
62
7
10
72.3932469303082939404703
20
143.446708731223793620302
0
VERTEX
8
Layer_1
6
CONTINUOUS
62
7
10
72.5634379262202457994135
20
143.552182810343055052726
0
VERTEX
8
Layer_1
6
CONTINUOUS
62
7
10
72.7588676670148970515584
20
143.627472714836329714672
0
VERTEX
8
Layer_1
6
CONTINUOUS
62
7
10
72.9795361526922334860501
20
143.672578444703646027847
0
SEQEND
0
POLYLINE
8
Layer_1
6
CONTINUOUS
62
7
66
1
10
0
20
0
70
129
40
0
41
0
0
VERTEX
8
Layer_1
6
CONTINUOUS
62
7
10
74.7039563435981079919657
20
141.667121418705335145205
0
VERTEX
8
Layer_1
6
CONTINUOUS
62
7
10
74.8294679397784818775108
20
141.673857435070772226027
0
VERTEX
8
Layer_1
6
CONTINUOUS
62
7
10
74.9522510229990359675867
20
141.694065484178508995683
0
VERTEX
8
Layer_1
6
CONTINUOUS
62
7
10
75.0723055932597560513386
20
141.727745566028488610755
0
VERTEX
8
Layer_1
6
CONTINUOUS
62
7
10
75.1896316505606421287666
20
141.774897680620767914661
0
VERTEX
8
Layer_1
6
CONTINUOUS
62
7
10
75.2986869029507488448871
20
141.834157571475344639111
0
VERTEX
8
Layer_1
6
CONTINUOUS
62
7
10
75.3939290584791308447166
20
141.904160982112273359235
0
VERTEX
8
Layer_1
6
CONTINUOUS
62
7
10
75.4753581171457881282549
20
141.984907912531554075031
0
VERTEX
8
Layer_1
6
CONTINUOUS
62
7
10
75.5429740789507206955022
20
142.07639836273315836479
0
VERTEX
8
Layer_1
6
CONTINUOUS
62
7
10
75.5960948156536289843643
20
142.174454297246455780623
0
VERTEX
8
Layer_1
6
CONTINUOUS
62
7
10
75.6340381990142134327471
20
142.274897680600815874641
0
VERTEX
8
Layer_1
6
CONTINUOUS
62
7
10
75.6568042290324740406504
20
142.377728512796238646843
0
VERTEX
8
Layer_1
6
CONTINUOUS
62
7
10
75.6643929057083965972197
20
142.482946793832752518938
0
VERTEX
8
Layer_1
6
CONTINUOUS
62
7
10
75.6487039561926195574415
20
142.633015006657444700977
0
VERTEX
8
Layer_1
6
CONTINUOUS
62
7
10
75.6016371076313475896313
20
142.7721691676418345196
0
VERTEX
8
Layer_1
6
CONTINUOUS
62
7
10
75.5231923600245522720797
20
142.900409276785865131387
0
VERTEX
8
Layer_1
6
CONTINUOUS
62
7
10
75.4133697133722478156415
20
143.017735334089593379758
0
VERTEX
8
Layer_1
6
CONTINUOUS
62
7
10
75.2766030012347613364909
20
143.115620736551420577598
0
VERTEX
8
Layer_1
6
CONTINUOUS
62
7
10
75.1173260571724199508026
20
143.185538881169748037792
0
VERTEX
8
Layer_1
6
CONTINUOUS
62
7
10
74.9355388811852094477217
20
143.227489767944632603758
0
VERTEX
8
Layer_1
6
CONTINUOUS
62
7
10
74.7312414732731582489578
20
143.241473396876017432078
0
VERTEX
8
Layer_1
6
CONTINUOUS
62
7
10
74.5348738061511255637015
20
143.227660300022648698359
0
VERTEX
8
Layer_1
6
CONTINUOUS
62
7
10
74.3605047747713570061023
20
143.186221009443841012398
0
VERTEX
8
Layer_1
6
CONTINUOUS
62
7
10
74.2081343791338809978697
20
143.117155525139594374195
0
VERTEX
8
Layer_1
6
CONTINUOUS
62
7
10
74.0777626192386833281489
20
143.020463847109994048878
0
VERTEX
8
Layer_1
6
CONTINUOUS
62
7
10
73.9733117324666977765446
20
142.90279672569585045494
0
VERTEX
8
Layer_1
6
CONTINUOUS
62
7
10
73.898703956198829700952
20
142.770804911238087697711
0
VERTEX
8
Layer_1
6
CONTINUOUS
62
7
10
73.8539392904350933122259
20
142.624488403736677355482
0
VERTEX
8
Layer_1
6
CONTINUOUS
62
7
10
73.8390177351754886103663
20
142.463847203191647849962
0
VERTEX
8
Layer_1
6
CONTINUOUS
62
7
10
73.8539392904206835055447
20
142.303717598825357981696
0
VERTEX
8
Layer_1
6
CONTINUOUS
62
7
10
73.8987039561712322210951
20
142.156207366899764110713
0
VERTEX
8
Layer_1
6
CONTINUOUS
62
7
10
73.9733117324271063353081
20
142.021316507414837815304
0
VERTEX
8
Layer_1
6
CONTINUOUS
62
7
10
74.0777626191883200590382
20
141.89904502037057909547
0
VERTEX
8
Layer_1
6
CONTINUOUS
62
7
10
74.2064290584743559975323
20
141.797578444648564754971
0
VERTEX
8
Layer_1
6
CONTINUOUS
62
7
10
74.3536834923046683343273
20
141.725102319130343175857
0
VERTEX
8
Layer_1
6
CONTINUOUS
62
7
10
74.5195259206792570694233
20
141.681616643815914358129
0
VERTEX
8
Layer_1
6
CONTINUOUS
62
7
10
74.7039563435981079919657
20
141.667121418705335145205
0
SEQEND
0
ENDSEC
0
EOF
