0
SECTION
2
HEADER
9
$ANGDIR
70
0
9
$CHAMFERA
40
10
9
$CHAMFERB
40
10
9
$CLAYER
8
Layer_1
9
$EXTMAX
10
166
20
145
9
$EXTMIN
10
3.48362892230634813017787
20
8
9
$LIMMAX
10
210
20
148
9
$LIMMIN
10
0
20
0
9
$LTSCALE
40
10
9
$PLINEGEN
70
0
9
$TEXTSIZE
40
20
9
$GRIDUNIT
10
10
20
10
9
$SNAPUNIT
10
0.5
20
0.5
0
ENDSEC
0
SECTION
2
TABLES
0
TABLE
2
STYLE
70
1
0
STYLE
2
STANDARD
70
0
40
0
41
1
50
0
71
0
42
0.20000000000000001110223
3
txt
4

0
ENDTAB
0
TABLE
2
LTYPE
70
14
0
LTYPE
2
CONTINUOUS
70
0
3
Solid line
72
65
73
0
40
0
0
LTYPE
2
DOT
70
0
3
............................................
72
65
73
2
40
0.25
49
0
49
-0.25
0
LTYPE
2
HIDDEN
70
0
3
_ _ _ _ _ _ _ _ _ _ _ _ _ _ _ _ _ _ _ _ _ _ 
72
65
73
2
40
0.375
49
0.25
49
-0.125
0
LTYPE
2
TSLONGDASH
70
0
3
__ __ __ __ __ __ __ __ __ __ __ __ __ __ _ 
72
65
73
2
40
1.28000000000000002664535
49
1
49
-0.280000000000000026645353
0
LTYPE
2
TSDASHDOT
70
0
3
______ . ______ . ______ . ______ . ______ .
72
65
73
4
40
1.28000000000000002664535
49
1
49
-0.140000000000000013322676
49
0
49
-0.140000000000000013322676
0
LTYPE
2
TSCENTER
70
0
3
______ _ ______ _ ______ _ ______ _ ______ _
72
65
73
4
40
2
49
1.5
49
-0.179999999999999993338662
49
0.140000000000000013322676
49
-0.179999999999999993338662
0
LTYPE
2
TSPHANTOM
70
0
3
_____ _ _ _____ _ _ _____ _ _ _____ _ _ ____
72
65
73
6
40
2.5
49
1.62999999999999989341859
49
-0.190000000000000002220446
49
0.149999999999999994448885
49
-0.190000000000000002220446
49
0.149999999999999994448885
49
-0.190000000000000002220446
0
LTYPE
2
DASHED
70
0
3
__ __ __ __ __ __ __ __ __ __ __ __ __ __ __
72
65
73
2
40
0.75
49
0.5
49
-0.25
0
LTYPE
2
CENTER
70
0
3
____ _ ____ _ ____ _ ____ _ ____ _ ____ _ __
72
65
73
4
40
2
49
1.25
49
-0.25
49
0.25
49
-0.25
0
LTYPE
2
PHANTOM
70
0
3
_____ _ _ _____ _ _ _____ _ _ _____ _ _ ____
72
65
73
6
40
2.5
49
1.25
49
-0.25
49
0.25
49
-0.25
49
0.25
49
-0.25
0
LTYPE
2
DASHDOT
70
0
3
__ . __ . __ . __ . __ . __ . __ . __ . __ .
72
65
73
4
40
1
49
0.5
49
-0.25
49
0
49
-0.25
0
LTYPE
2
BORDER
70
0
3
__ __ . __ __ . __ __ . __ __ . __ __ . __ _
72
65
73
6
40
1.75
49
0.5
49
-0.25
49
0.5
49
-0.25
49
0
49
-0.25
0
LTYPE
2
DIVIDE
70
0
3
__ . . __ . . __ . . __ . . __ . . __ . . __
72
65
73
6
40
1.25
49
0.5
49
-0.25
49
0
49
-0.25
49
0
49
-0.25
0
ENDTAB
0
TABLE
2
LAYER
70
3
0
LAYER
2
Layer_1
70
0
62
7
6
CONTINUOUS
0
LAYER
2
Layer_2
70
0
62
7
6
CONTINUOUS
0
LAYER
2
Layer_3
70
0
62
7
6
CONTINUOUS
0
ENDTAB
0
ENDSEC
0
SECTION
2
ENTITIES
0
LINE
8
Layer_1
6
CONTINUOUS
62
7
10
20
20
20.0000000000000142108547
11
30
21
20
0
LINE
8
Layer_1
6
CONTINUOUS
62
7
10
60
20
20.0000000000000142108547
11
30
21
139.999999998922476152075
0
LINE
8
Layer_1
6
CONTINUOUS
62
7
10
30
20
139.999999998922476152075
11
20
21
139.999999998922476152075
0
LINE
8
Layer_1
6
CONTINUOUS
62
7
10
20
20
139.999999998922476152075
11
20
21
130
0
LINE
8
Layer_1
6
CONTINUOUS
62
7
10
69.9999999955103362481168
20
20.0000000021550334849962
11
59.9999999955103362481168
21
20.0000000032325857546311
0
LINE
8
Layer_1
6
CONTINUOUS
62
7
10
70.0000000044896637518832
20
140.000000001077523847925
11
60
21
140
0
LINE
8
Layer_1
6
CONTINUOUS
62
7
10
110
20
20.000000005926338531026
11
140
21
20.000000005926338531026
0
LINE
8
Layer_1
6
CONTINUOUS
62
7
10
140
20
20.000000005926338531026
11
150
21
20.000000005926338531026
0
LINE
8
Layer_1
6
CONTINUOUS
62
7
10
150
20
20.000000005926338531026
11
150
21
140.000000004848828893955
0
LINE
8
Layer_1
6
CONTINUOUS
62
7
10
150
20
140.000000004848828893955
11
110
21
140.000000004848828893955
0
LINE
8
Layer_1
6
CONTINUOUS
62
7
10
110
20
20.000000005926338531026
11
110
21
30
0
LINE
8
Layer_1
6
CONTINUOUS
62
7
10
160
20
140.000000004848828893955
11
150
21
140.000000004848828893955
0
LINE
8
Layer_1
6
CONTINUOUS
62
7
10
150
20
20.000000005926338531026
11
160
21
20.000000005926338531026
0
LINE
8
Layer_1
6
CONTINUOUS
62
7
10
70
20
20.0000000059263456364533
11
70
21
30
0
LINE
8
Layer_1
6
CONTINUOUS
62
7
10
70
20
130
11
76
21
130
0
LINE
8
Layer_1
6
CONTINUOUS
62
7
10
70
20
30
11
76
21
30
0
LINE
8
Layer_1
6
CONTINUOUS
62
7
10
70
20
70
11
76
21
70
0
LINE
8
Layer_1
6
CONTINUOUS
62
7
10
70
20
130
11
70
21
140.000000004848828893955
0
LINE
8
Layer_1
6
CONTINUOUS
62
7
10
70
20
70
11
70
21
90
0
LINE
8
Layer_1
6
CONTINUOUS
62
7
10
70
20
90
11
76
21
90
0
LINE
8
Layer_1
6
CONTINUOUS
62
7
10
20
20
130
11
14
21
130
0
LINE
8
Layer_1
6
CONTINUOUS
62
7
10
20
20
90
11
14
21
90
0
LINE
8
Layer_1
6
CONTINUOUS
62
7
10
20
20
30
11
14
21
30
0
LINE
8
Layer_1
6
CONTINUOUS
62
7
10
20
20
90
11
20
21
70
0
LINE
8
Layer_1
6
CONTINUOUS
62
7
10
20
20
30
11
20
21
20.0000000000000142108547
0
LINE
8
Layer_1
6
CONTINUOUS
62
7
10
14
20
70
11
20
21
70
0
LINE
8
Layer_1
6
CONTINUOUS
62
7
10
19.9999999996408277525006
20
128
11
19.9999999996408277525006
21
125
0
POLYLINE
8
Layer_1
6
CONTINUOUS
62
7
66
1
10
0
20
0
70
129
40
0
41
0
0
VERTEX
8
Layer_1
6
CONTINUOUS
62
7
10
20
20
127
0
VERTEX
8
Layer_1
6
CONTINUOUS
62
7
10
16.0607689878853321374663
20
126.305407289705641460387
0
VERTEX
8
Layer_1
6
CONTINUOUS
62
7
10
16.0607689880100714674427
20
127.694592711001789098191
0
VERTEX
8
Layer_1
6
CONTINUOUS
62
7
10
20
20
127
0
SEQEND
0
LINE
8
Layer_1
6
CONTINUOUS
62
7
10
20
20
127
11
14
21
127
0
POLYLINE
8
Layer_1
6
CONTINUOUS
62
7
66
1
10
0
20
0
70
129
40
0
41
0
0
VERTEX
8
Layer_1
6
CONTINUOUS
62
7
10
14
20
127
0
VERTEX
8
Layer_1
6
CONTINUOUS
62
7
10
17.9392310120522964211887
20
127.694592710648066713475
0
VERTEX
8
Layer_1
6
CONTINUOUS
62
7
10
17.9392310120522964211887
20
126.305407289351933286525
0
VERTEX
8
Layer_1
6
CONTINUOUS
62
7
10
14
20
127
0
SEQEND
0
LINE
8
Layer_1
6
CONTINUOUS
62
7
10
13.9999999996408277525006
20
125
11
13.9999999996408277525006
21
128
0
POLYLINE
8
Layer_1
6
CONTINUOUS
62
7
66
1
10
0
20
0
70
129
40
0
41
0
0
VERTEX
8
Layer_1
6
CONTINUOUS
62
7
10
18.2264665767076365909816
20
132.020463846983005851143
0
VERTEX
8
Layer_1
6
CONTINUOUS
62
7
10
17.738062756782632334307
20
131.98226466562459791021
0
VERTEX
8
Layer_1
6
CONTINUOUS
62
7
10
17.7019099600810392303174
20
132.116984993052653862833
0
VERTEX
8
Layer_1
6
CONTINUOUS
62
7
10
17.658935880974805598953
20
132.231923601518758459861
0
VERTEX
8
Layer_1
6
CONTINUOUS
62
7
10
17.6091405194639278875002
20
132.327080491022911701293
0
VERTEX
8
Layer_1
6
CONTINUOUS
62
7
10
17.5525238755484060959589
20
132.40245566156514200884
0
VERTEX
8
Layer_1
6
CONTINUOUS
62
7
10
17.4471350624680496821384
20
132.494372441938764950464
0
VERTEX
8
Layer_1
6
CONTINUOUS
62
7
10
17.3301500693011227838269
20
132.56002728507027654814
0
VERTEX
8
Layer_1
6
CONTINUOUS
62
7
10
17.2015688960476254010246
20
132.599420190959676801867
0
VERTEX
8
Layer_1
6
CONTINUOUS
62
7
10
17.0613915427075539810176
20
132.612551159606965711646
0
VERTEX
8
Layer_1
6
CONTINUOUS
62
7
10
16.947646658667885333216
20
132.604365620746079912351
0
VERTEX
8
Layer_1
6
CONTINUOUS
62
7
10
16.8410641211464238153894
20
132.57980900412130154109
0
VERTEX
8
Layer_1
6
CONTINUOUS
62
7
10
16.7416439301431658748243
20
132.538881309732630597864
0
VERTEX
8
Layer_1
6
CONTINUOUS
62
7
10
16.6493860856581150642342
20
132.481582537580010239253
0
VERTEX
8
Layer_1
6
CONTINUOUS
62
7
10
16.5395634389836061473034
20
132.387278308404631843587
0
VERTEX
8
Layer_1
6
CONTINUOUS
62
7
10
16.4420191006275722145347
20
132.273533424383970213967
0
VERTEX
8
Layer_1
6
CONTINUOUS
62
7
10
16.3567530705900097132144
20
132.140347885517968506974
0
VERTEX
8
Layer_1
6
CONTINUOUS
62
7
10
16.2837653488709221960562
20
131.987721691806655144319
0
VERTEX
8
Layer_1
6
CONTINUOUS
62
7
10
16.2249317881292611787103
20
131.80815143260849708895
0
VERTEX
8
Layer_1
6
CONTINUOUS
62
7
10
16.1821282410239781768269
20
131.594133697281932882106
0
VERTEX
8
Layer_1
6
CONTINUOUS
62
7
10
16.1553547075550767431196
20
131.345668485826990945498
0
VERTEX
8
Layer_1
6
CONTINUOUS
62
7
10
16.1446111877225497721611
20
131.062755798243642857415
0
VERTEX
8
Layer_1
6
CONTINUOUS
62
7
10
16.2382332887002220900285
20
131.189120054707046847398
0
VERTEX
8
Layer_1
6
CONTINUOUS
62
7
10
16.3417462491563512116954
20
131.298090041045895759453
0
VERTEX
8
Layer_1
6
CONTINUOUS
62
7
10
16.4551500690909406898754
20
131.389665757260161171871
0
VERTEX
8
Layer_1
6
CONTINUOUS
62
7
10
16.5784447485039905245685
20
131.463847203349899928071
0
VERTEX
8
Layer_1
6
CONTINUOUS
62
7
10
16.7082196461950474031255
20
131.521145975495755919837
0
VERTEX
8
Layer_1
6
CONTINUOUS
62
7
10
16.8410641209636509074699
20
131.562073669878458304083
0
VERTEX
8
Layer_1
6
CONTINUOUS
62
7
10
16.9769781728098081430289
20
131.586630286497978659099
0
VERTEX
8
Layer_1
6
CONTINUOUS
62
7
10
17.115961801733515557089
20
131.594815825354345406595
0
VERTEX
8
Layer_1
6
CONTINUOUS
62
7
10
17.236464018649286344953
20
131.589166950844287384825
0
VERTEX
8
Layer_1
6
CONTINUOUS
62
7
10
17.3524045029572917542282
20
131.572220327358252234262
0
VERTEX
8
Layer_1
6
CONTINUOUS
62
7
10
17.4637832546575424430557
20
131.543975954896239954905
0
VERTEX
8
Layer_1
6
CONTINUOUS
62
7
10
17.5706002737500277532945
20
131.504433833458222125046
0
VERTEX
8
Layer_1
6
CONTINUOUS
62
7
10
17.6728555602347583430856
20
131.453593963044227166392
0
VERTEX
8
Layer_1
6
CONTINUOUS
62
7
10
17.7705491141117306597152
20
131.391456343654226657236
0
VERTEX
8
Layer_1
6
CONTINUOUS
62
7
10
17.8636809353809411504699
20
131.318020975288249019286
0
VERTEX
8
Layer_1
6
CONTINUOUS
62
7
10
17.9522510240423969207768
20
131.233287857946294252542
0
VERTEX
8
Layer_1
6
CONTINUOUS
62
7
10
18.0331471700010155245764
20
131.139601807454283743937
0
VERTEX
8
Layer_1
6
CONTINUOUS
62
7
10
18.1032571631617216212362
20
131.0393076396381388804
0
VERTEX
8
Layer_1
6
CONTINUOUS
62
7
10
18.1625810035245152107564
20
130.932405354497888083642
0
VERTEX
8
Layer_1
6
CONTINUOUS
62
7
10
18.2111186910893962931368
20
130.818894952033502931954
0
VERTEX
8
Layer_1
6
CONTINUOUS
62
7
10
18.2488702258563648683776
20
130.698776432244983425335
0
VERTEX
8
Layer_1
6
CONTINUOUS
62
7
10
18.2758356078254209364786
20
130.572049795132386407204
0
VERTEX
8
Layer_1
6
CONTINUOUS
62
7
10
18.29201483699656449744
20
130.438715040695626612433
0
VERTEX
8
Layer_1
6
CONTINUOUS
62
7
10
18.2974079133697955512616
20
130.298772168934789306149
0
VERTEX
8
Layer_1
6
CONTINUOUS
62
7
10
18.2872612557649603104437
20
130.113830149837042426952
0
VERTEX
8
Layer_1
6
CONTINUOUS
62
7
10
18.2568212830180698347249
20
129.935538881083971318731
0
VERTEX
8
Layer_1
6
CONTINUOUS
62
7
10
18.2060879951291241241051
20
129.763898362675604403194
0
VERTEX
8
Layer_1
6
CONTINUOUS
62
7
10
18.1350613920981302840119
20
129.598908594611970102051
0
VERTEX
8
Layer_1
6
CONTINUOUS
62
7
10
18.0462994548265953653754
20
129.446708731053576002523
0
VERTEX
8
Layer_1
6
CONTINUOUS
62
7
10
17.9423601642160335245535
20
129.313437926160929691832
0
VERTEX
8
Layer_1
6
CONTINUOUS
62
7
10
17.8232435202664376561188
20
129.199096179934031169978
0
VERTEX
8
Layer_1
6
CONTINUOUS
62
7
10
17.6889495229778184182123
20
129.103683492372852015251
0
VERTEX
8
Layer_1
6
CONTINUOUS
62
7
10
17.5422919513408501757112
20
129.028478853927140335145
0
VERTEX
8
Layer_1
6
CONTINUOUS
62
7
10
17.3860845843462072934926
20
128.974761255046587393736
0
VERTEX
8
Layer_1
6
CONTINUOUS
62
7
10
17.2203274219939004296975
20
128.942530695731221612732
0
VERTEX
8
Layer_1
6
CONTINUOUS
62
7
10
17.0450204642839224788986
20
128.931787175980986148716
0
VERTEX
8
Layer_1
6
CONTINUOUS
62
7
10
16.8950801505061996010681
20
128.938842939991531011401
0
VERTEX
8
Layer_1
6
CONTINUOUS
62
7
10
16.7522169172221424560121
20
128.960010231968055904872
0
VERTEX
8
Layer_1
6
CONTINUOUS
62
7
10
16.6164307644317510437304
20
128.995289051910589250838
0
VERTEX
8
Layer_1
6
CONTINUOUS
62
7
10
16.4877216921350289169368
20
129.044679399819131049298
0
VERTEX
8
Layer_1
6
CONTINUOUS
62
7
10
16.3660897003319725229176
20
129.108181275693652878545
0
VERTEX
8
Layer_1
6
CONTINUOUS
62
7
10
16.2515347890225818616727
20
129.185794679534126316867
0
VERTEX
8
Layer_1
6
CONTINUOUS
62
7
10
16.1440569582068569332023
20
129.277519611340608207684
0
VERTEX
8
Layer_1
6
CONTINUOUS
62
7
10
16.0436562078847977375062
20
129.383356071113070129286
0
VERTEX
8
Layer_1
6
CONTINUOUS
62
7
10
15.9528478859421838365051
20
129.505393076586386769122
0
VERTEX
8
Layer_1
6
CONTINUOUS
62
7
10
15.8741473402647912394059
20
129.64571964549548965806
0
VERTEX
8
Layer_1
6
CONTINUOUS
62
7
10
15.8075545708526217225653
20
129.804335777840321952681
0
VERTEX
8
Layer_1
6
CONTINUOUS
62
7
10
15.7530695777056752859835
20
129.981241473620912074693
0
VERTEX
8
Layer_1
6
CONTINUOUS
62
7
10
15.7106923608239501533035
20
130.176436732837260024098
0
VERTEX
8
Layer_1
6
CONTINUOUS
62
7
10
15.6804229202074463245253
20
130.389921555489365800895
0
VERTEX
8
Layer_1
6
CONTINUOUS
62
7
10
15.6622612558561655760059
20
130.621695941577200983374
0
VERTEX
8
Layer_1
6
CONTINUOUS
62
7
10
15.6562073677701043550314
20
130.871759891100793993246
0
VERTEX
8
Layer_1
6
CONTINUOUS
62
7
10
15.6629007511764619664518
20
131.151773533664396609311
0
VERTEX
8
Layer_1
6
CONTINUOUS
62
7
10
15.682980901291408315501
20
131.412005457262438312682
0
VERTEX
8
Layer_1
6
CONTINUOUS
62
7
10
15.7164478181149451785359
20
131.652455661894919103361
0
VERTEX
8
Layer_1
6
CONTINUOUS
62
7
10
15.7633015016470707791996
20
131.873124147561782137927
0
VERTEX
8
Layer_1
6
CONTINUOUS
62
7
10
15.8235419518877868938489
20
132.07401091426311268151
0
VERTEX
8
Layer_1
6
CONTINUOUS
62
7
10
15.8971691688370899697702
20
132.255115961998853890691
0
VERTEX
8
Layer_1
6
CONTINUOUS
62
7
10
15.9841831524949835596772
20
132.416439290769034187178
0
VERTEX
8
Layer_1
6
CONTINUOUS
62
7
10
16.0845839028614676635698
20
132.557980900573653570973
0
VERTEX
8
Layer_1
6
CONTINUOUS
62
7
10
16.1820856082013619925419
20
132.665416098373327713489
0
VERTEX
8
Layer_1
6
CONTINUOUS
62
7
10
16.2876875863899783780653
20
132.758526603129269005876
0
VERTEX
8
Layer_1
6
CONTINUOUS
62
7
10
16.4013898374273203728535
20
132.837312414841449026426
0
VERTEX
8
Layer_1
6
CONTINUOUS
62
7
10
16.5231923613133844241929
20
132.901773533509896196847
0
VERTEX
8
Layer_1
6
CONTINUOUS
62
7
10
16.6530951580481740847972
20
132.95190995913458209543
0
VERTEX
8
Layer_1
6
CONTINUOUS
62
7
10
16.7910982276316858019527
20
132.987721691715535143885
0
VERTEX
8
Layer_1
6
CONTINUOUS
62
7
10
16.9372015700639195756594
20
133.009208731252726920502
0
VERTEX
8
Layer_1
6
CONTINUOUS
62
7
10
17.0914051853448789586309
20
133.016371077746185846991
0
VERTEX
8
Layer_1
6
CONTINUOUS
62
7
10
17.3167633026679652630264
20
132.999829467883074585188
0
VERTEX
8
Layer_1
6
CONTINUOUS
62
7
10
17.5208049124817009101207
20
132.950204638378494337303
0
VERTEX
8
Layer_1
6
CONTINUOUS
62
7
10
17.7035300147860823472001
20
132.867496589232473525044
0
VERTEX
8
Layer_1
6
CONTINUOUS
62
7
10
17.8649386095811131269784
20
132.751705320444955304993
0
VERTEX
8
Layer_1
6
CONTINUOUS
62
7
10
18.0005968633067894302258
20
132.606753069397399258378
0
VERTEX
8
Layer_1
6
CONTINUOUS
62
7
10
18.1060709424031003322852
20
132.436562073471236544719
0
VERTEX
8
Layer_1
6
CONTINUOUS
62
7
10
18.1813608468700493858705
20
132.241132332666438742308
0
VERTEX
8
Layer_1
6
CONTINUOUS
62
7
10
18.2264665767076365909816
20
132.020463846983005851143
0
SEQEND
0
POLYLINE
8
Layer_1
6
CONTINUOUS
62
7
66
1
10
0
20
0
70
129
40
0
41
0
0
VERTEX
8
Layer_1
6
CONTINUOUS
62
7
10
16.2210095504770812624429
20
130.296043656347251271654
0
VERTEX
8
Layer_1
6
CONTINUOUS
62
7
10
16.2277455668256180842945
20
130.170532060165953680553
0
VERTEX
8
Layer_1
6
CONTINUOUS
62
7
10
16.2479536159168027609212
20
130.047748976942671106372
0
VERTEX
8
Layer_1
6
CONTINUOUS
62
7
10
16.2816336977506317396092
20
129.927694406677403549111
0
VERTEX
8
Layer_1
6
CONTINUOUS
62
7
10
16.3287858123271050203584
20
129.81036834937017943048
0
VERTEX
8
Layer_1
6
CONTINUOUS
62
7
10
16.3880457031670019318881
20
129.701313096972114635719
0
VERTEX
8
Layer_1
6
CONTINUOUS
62
7
10
16.4580491137910982502035
20
129.606070941434268206649
0
VERTEX
8
Layer_1
6
CONTINUOUS
62
7
10
16.5387960441993939753047
20
129.524641882756753830108
0
VERTEX
8
Layer_1
6
CONTINUOUS
62
7
10
16.6302864943918891071917
20
129.457025920939486240968
0
VERTEX
8
Layer_1
6
CONTINUOUS
62
7
10
16.7283424288980384631031
20
129.40390518422339027893
0
VERTEX
8
Layer_1
6
CONTINUOUS
62
7
10
16.8287858122472968602779
20
129.365961800849277096859
0
VERTEX
8
Layer_1
6
CONTINUOUS
62
7
10
16.9316166444396607460021
20
129.343195770817146694753
0
VERTEX
8
Layer_1
6
CONTINUOUS
62
7
10
17.0368349254751336729896
20
129.335607094127055916033
0
VERTEX
8
Layer_1
6
CONTINUOUS
62
7
10
17.1869031383019610359497
20
129.351296043622653542116
0
VERTEX
8
Layer_1
6
CONTINUOUS
62
7
10
17.3260572992926782376344
20
129.398362892165181392556
0
VERTEX
8
Layer_1
6
CONTINUOUS
62
7
10
17.45429740844728172533
20
129.476807639754696310774
0
VERTEX
8
Layer_1
6
CONTINUOUS
62
7
10
17.5716234657657786044638
20
129.586630286391198296769
0
VERTEX
8
Layer_1
6
CONTINUOUS
62
7
10
17.6695088682460017537323
20
129.723396998515511313599
0
VERTEX
8
Layer_1
6
CONTINUOUS
62
7
10
17.7394270128857947099732
20
129.882673942568430902611
0
VERTEX
8
Layer_1
6
CONTINUOUS
62
7
10
17.7813778996851539204727
20
130.064461118549985485515
0
VERTEX
8
Layer_1
6
CONTINUOUS
62
7
10
17.795361528644075832517
20
130.268758526460146640602
0
VERTEX
8
Layer_1
6
CONTINUOUS
62
7
10
17.7815484318171321831414
20
130.465126193584069369535
0
VERTEX
8
Layer_1
6
CONTINUOUS
62
7
10
17.7401091412618185927386
20
130.639495224969408582183
0
VERTEX
8
Layer_1
6
CONTINUOUS
62
7
10
17.6710436569781315085947
20
130.791865620616192700254
0
VERTEX
8
Layer_1
6
CONTINUOUS
62
7
10
17.57435197896607093071
20
130.922237380524393302039
0
VERTEX
8
Layer_1
6
CONTINUOUS
62
7
10
17.4566848575660031883672
20
131.026688267312238167506
0
VERTEX
8
Layer_1
6
CONTINUOUS
62
7
10
17.3246930431182839527082
20
131.101296043597869811492
0
VERTEX
8
Layer_1
6
CONTINUOUS
62
7
10
17.1783765356229096710194
20
131.146060709381316655708
0
VERTEX
8
Layer_1
6
CONTINUOUS
62
7
10
17.0177353350798874487282
20
131.160982264662550278445
0
VERTEX
8
Layer_1
6
CONTINUOUS
62
7
10
16.8576057307115902972328
20
131.146060709438927460724
0
VERTEX
8
Layer_1
6
CONTINUOUS
62
7
10
16.7100954987799497075684
20
131.10129604370825973092
0
VERTEX
8
Layer_1
6
CONTINUOUS
62
7
10
16.5752046392849692324489
20
131.026688267470547089033
0
VERTEX
8
Layer_1
6
CONTINUOUS
62
7
10
16.4529331522266453191605
20
130.922237380725789535063
0
VERTEX
8
Layer_1
6
CONTINUOUS
62
7
10
16.3514665764873043940497
20
130.793570941453424438805
0
VERTEX
8
Layer_1
6
CONTINUOUS
62
7
10
16.2789904509492622253219
20
130.646316507632889170054
0
VERTEX
8
Layer_1
6
CONTINUOUS
62
7
10
16.2355047756125223656909
20
130.480474079264155307101
0
VERTEX
8
Layer_1
6
CONTINUOUS
62
7
10
16.2210095504770812624429
20
130.296043656347251271654
0
SEQEND
0
LINE
8
Layer_1
6
CONTINUOUS
62
7
10
14
20
30
11
14
21
70
0
LINE
8
Layer_1
6
CONTINUOUS
62
7
10
14
20
90
11
14
21
130
0
LINE
8
Layer_1
6
CONTINUOUS
62
7
10
76
20
130
11
76
21
90
0
LINE
8
Layer_1
6
CONTINUOUS
62
7
10
76
20
70
11
76
21
30
0
LINE
8
Layer_1
6
CONTINUOUS
62
7
10
110
20
130
11
104
21
130
0
LINE
8
Layer_1
6
CONTINUOUS
62
7
10
104
20
130
11
104
21
90
0
LINE
8
Layer_1
6
CONTINUOUS
62
7
10
104
20
90
11
110
21
90
0
LINE
8
Layer_1
6
CONTINUOUS
62
7
10
104
20
70
11
110
21
70
0
LINE
8
Layer_1
6
CONTINUOUS
62
7
10
104
20
70
11
104
21
30
0
LINE
8
Layer_1
6
CONTINUOUS
62
7
10
110
20
70
11
110
21
90
0
LINE
8
Layer_1
6
CONTINUOUS
62
7
10
110
20
130
11
110
21
140.000000004848828893955
0
LINE
8
Layer_1
6
CONTINUOUS
62
7
10
110
20
30
11
104
21
30
0
LINE
8
Layer_1
6
CONTINUOUS
62
7
10
160
20
20.0000000059263456364533
11
160
21
30
0
LINE
8
Layer_1
6
CONTINUOUS
62
7
10
160
20
130
11
166
21
130
0
LINE
8
Layer_1
6
CONTINUOUS
62
7
10
160
20
30
11
166
21
30
0
LINE
8
Layer_1
6
CONTINUOUS
62
7
10
160
20
70
11
166
21
70
0
LINE
8
Layer_1
6
CONTINUOUS
62
7
10
160
20
130
11
160
21
140.000000004848828893955
0
LINE
8
Layer_1
6
CONTINUOUS
62
7
10
160
20
70
11
160
21
90
0
LINE
8
Layer_1
6
CONTINUOUS
62
7
10
160
20
90
11
166
21
90
0
LINE
8
Layer_1
6
CONTINUOUS
62
7
10
166
20
130
11
166
21
90
0
LINE
8
Layer_1
6
CONTINUOUS
62
7
10
166
20
70
11
166
21
30
0
LINE
8
Layer_1
6
CONTINUOUS
62
7
10
50
20
20
11
50
21
16
0
LINE
8
Layer_1
6
CONTINUOUS
62
7
10
30
20
20
11
30
21
16
0
LINE
8
Layer_1
6
CONTINUOUS
62
7
10
50
20
20
11
60
21
20.0000000000000142108547
0
LINE
8
Layer_1
6
CONTINUOUS
62
7
10
40
20
140
11
30.0000000044896637518832
21
140.000000005387562396209
0
LINE
8
Layer_1
6
CONTINUOUS
62
7
10
120
20
22
11
120
21
27
0
LINE
8
Layer_1
6
CONTINUOUS
62
7
10
140
20
22
11
140
21
27
0
LINE
8
Layer_1
6
CONTINUOUS
62
7
10
120
20
27
11
140
21
27
0
LINE
8
Layer_1
6
CONTINUOUS
62
7
10
120
20
22
11
140
21
22
0
LINE
8
Layer_1
6
CONTINUOUS
62
7
10
120
20
133
11
120
21
138
0
LINE
8
Layer_1
6
CONTINUOUS
62
7
10
140
20
133
11
140
21
138
0
LINE
8
Layer_1
6
CONTINUOUS
62
7
10
120
20
138
11
140
21
138
0
LINE
8
Layer_1
6
CONTINUOUS
62
7
10
120
20
133
11
140
21
133
0
LINE
8
Layer_1
6
CONTINUOUS
62
7
10
50
20
20
11
50
21
15
0
LINE
8
Layer_1
6
CONTINUOUS
62
7
10
50
20
15
11
30
21
15
0
LINE
8
Layer_1
6
CONTINUOUS
62
7
10
30
20
16
11
30
21
15
0
LINE
8
Layer_1
6
CONTINUOUS
62
7
10
60
20
140
11
60
21
145
0
LINE
8
Layer_1
6
CONTINUOUS
62
7
10
40
20
140
11
40
21
145
0
LINE
8
Layer_1
6
CONTINUOUS
62
7
10
40
20
145
11
60
21
145
0
LINE
8
Layer_1
6
CONTINUOUS
62
7
10
118
20
138
11
115.5
21
138
0
POLYLINE
8
Layer_1
6
CONTINUOUS
62
7
66
1
10
0
20
0
70
129
40
0
41
0
0
VERTEX
8
Layer_1
6
CONTINUOUS
62
7
10
117.5
20
138
0
VERTEX
8
Layer_1
6
CONTINUOUS
62
7
10
116.805407289528787373456
20
141.939231012083496352716
0
VERTEX
8
Layer_1
6
CONTINUOUS
62
7
10
118.19459271082493501126
20
141.939231012021110700516
0
VERTEX
8
Layer_1
6
CONTINUOUS
62
7
10
117.5
20
138
0
SEQEND
0
LINE
8
Layer_1
6
CONTINUOUS
62
7
10
117.5
20
138
11
117.5
21
143.5
0
POLYLINE
8
Layer_1
6
CONTINUOUS
62
7
66
1
10
0
20
0
70
129
40
0
41
0
0
VERTEX
8
Layer_1
6
CONTINUOUS
62
7
10
117.5
20
133
0
VERTEX
8
Layer_1
6
CONTINUOUS
62
7
10
118.194592710117504452683
20
129.060768987854146416794
0
VERTEX
8
Layer_1
6
CONTINUOUS
62
7
10
116.805407288821356814879
20
129.060768988041246529974
0
VERTEX
8
Layer_1
6
CONTINUOUS
62
7
10
117.5
20
133
0
SEQEND
0
LINE
8
Layer_1
6
CONTINUOUS
62
7
10
117.5
20
133
11
117.5
21
127.5
0
LINE
8
Layer_1
6
CONTINUOUS
62
7
10
115.5
20
133
11
118
21
133
0
POLYLINE
8
Layer_1
6
CONTINUOUS
62
7
66
1
10
0
20
0
70
129
40
0
41
0
0
VERTEX
8
Layer_1
6
CONTINUOUS
62
7
10
118.452251022973456429099
20
122.624147339567315384556
0
VERTEX
8
Layer_1
6
CONTINUOUS
62
7
10
118.408594815629612639896
20
123.13983628909178946742
0
VERTEX
8
Layer_1
6
CONTINUOUS
62
7
10
118.585180763789580282719
20
123.177950204499950359605
0
VERTEX
8
Layer_1
6
CONTINUOUS
62
7
10
118.738403819726656251987
20
123.234993178572210581478
0
VERTEX
8
Layer_1
6
CONTINUOUS
62
7
10
118.868263983440840547701
20
123.310965211308541711333
0
VERTEX
8
Layer_1
6
CONTINUOUS
62
7
10
118.974761254932161591569
20
123.405866302708943749167
0
VERTEX
8
Layer_1
6
CONTINUOUS
62
7
10
119.057725102140352646529
20
123.515603683332770401648
0
VERTEX
8
Layer_1
6
CONTINUOUS
62
7
10
119.116984993005246451503
20
123.636084583739389586299
0
VERTEX
8
Layer_1
6
CONTINUOUS
62
7
10
119.152540927526828795635
20
123.767309003928787092264
0
VERTEX
8
Layer_1
6
CONTINUOUS
62
7
10
119.164392905705099678926
20
123.909276943900962919543
0
VERTEX
8
Layer_1
6
CONTINUOUS
62
7
10
119.147680763830067007802
20
124.079809003929000255084
0
VERTEX
8
Layer_1
6
CONTINUOUS
62
7
10
119.097544338189095469716
20
124.236698499156346997552
0
VERTEX
8
Layer_1
6
CONTINUOUS
62
7
10
119.01398362878217085381
20
124.3799454295830173578
0
VERTEX
8
Layer_1
6
CONTINUOUS
62
7
10
118.896998635609264738378
20
124.509549795209011335828
0
VERTEX
8
Layer_1
6
CONTINUOUS
62
7
10
118.752387448710948092412
20
124.616984993032701822813
0
VERTEX
8
Layer_1
6
CONTINUOUS
62
7
10
118.585948158127763463199
20
124.693724420052447499074
0
VERTEX
8
Layer_1
6
CONTINUOUS
62
7
10
118.397680763859710850738
20
124.739768076268262575468
0
VERTEX
8
Layer_1
6
CONTINUOUS
62
7
10
118.187585265906776044176
20
124.755115961680161262848
0
VERTEX
8
Layer_1
6
CONTINUOUS
62
7
10
117.988574351854268229545
20
124.740364938496739455331
0
VERTEX
8
Layer_1
6
CONTINUOUS
62
7
10
117.811732605603992851684
20
124.696111868927587806866
0
VERTEX
8
Layer_1
6
CONTINUOUS
62
7
10
117.657060027155935699739
20
124.622356752972720528305
0
VERTEX
8
Layer_1
6
CONTINUOUS
62
7
10
117.524556616510096773709
20
124.519099590632151830505
0
VERTEX
8
Layer_1
6
CONTINUOUS
62
7
10
117.418315143107392373167
20
124.391967939886583849329
0
VERTEX
8
Layer_1
6
CONTINUOUS
62
7
10
117.342428376388724586832
20
124.246589358716732931498
0
VERTEX
8
Layer_1
6
CONTINUOUS
62
7
10
117.296896316354093414702
20
124.082963847122599077011
0
VERTEX
8
Layer_1
6
CONTINUOUS
62
7
10
117.281718963003498856779
20
123.901091405104182285868
0
VERTEX
8
Layer_1
6
CONTINUOUS
62
7
10
117.288454979369376474096
20
123.785300136345355781486
0
VERTEX
8
Layer_1
6
CONTINUOUS
62
7
10
117.308663028477667467087
20
123.675306957626844450715
0
VERTEX
8
Layer_1
6
CONTINUOUS
62
7
10
117.342343110328386046604
20
123.571111868948662504408
0
VERTEX
8
Layer_1
6
CONTINUOUS
62
7
10
117.389495224921518001793
20
123.472714870310795731712
0
VERTEX
8
Layer_1
6
CONTINUOUS
62
7
10
117.44739085929671773556
20
123.382332878493741645798
0
VERTEX
8
Layer_1
6
CONTINUOUS
62
7
10
117.513301500493668072522
20
123.302182810277955127276
0
VERTEX
8
Layer_1
6
CONTINUOUS
62
7
10
117.587227148512354801824
20
123.232264665663450387001
0
VERTEX
8
Layer_1
6
CONTINUOUS
62
7
10
117.669167803352777923465
20
123.172578444650227424972
0
VERTEX
8
Layer_1
6
CONTINUOUS
62
7
10
117.609140518202480052423
20
122.711459754339145433732
0
VERTEX
8
Layer_1
6
CONTINUOUS
62
7
10
115.554570259011143207317
20
123.098908594813380545929
0
VERTEX
8
Layer_1
6
CONTINUOUS
62
7
10
115.554570259100444218348
20
125.087994542971628675332
0
VERTEX
8
Layer_1
6
CONTINUOUS
62
7
10
116.023874488295533069504
20
125.087994542950553977789
0
VERTEX
8
Layer_1
6
CONTINUOUS
62
7
10
116.023874488223867729175
20
123.491814461095174237926
0
VERTEX
8
Layer_1
6
CONTINUOUS
62
7
10
117.098908594626195167621
20
123.276261937172421312425
0
VERTEX
8
Layer_1
6
CONTINUOUS
62
7
10
116.989085947976803936399
20
123.458560709346528483366
0
VERTEX
8
Layer_1
6
CONTINUOUS
62
7
10
116.910641200372651837824
20
123.645293315079925378086
0
VERTEX
8
Layer_1
6
CONTINUOUS
62
7
10
116.863574351813696239333
20
123.836459754372611996587
0
VERTEX
8
Layer_1
6
CONTINUOUS
62
7
10
116.847885402299965562634
20
124.032060027224616760577
0
VERTEX
8
Layer_1
6
CONTINUOUS
62
7
10
116.853555593301649651039
20
124.160470668424906648397
0
VERTEX
8
Layer_1
6
CONTINUOUS
62
7
10
116.870566166294906906842
20
124.283765347823873526067
0
VERTEX
8
Layer_1
6
CONTINUOUS
62
7
10
116.898917121279751540897
20
124.401944065421503182733
0
VERTEX
8
Layer_1
6
CONTINUOUS
62
7
10
116.938608458256169342349
20
124.51500682121780982925
0
VERTEX
8
Layer_1
6
CONTINUOUS
62
7
10
116.989640177224174522053
20
124.622953615212793465616
0
VERTEX
8
Layer_1
6
CONTINUOUS
62
7
10
117.052012278183781290863
20
124.725784447406454091833
0
VERTEX
8
Layer_1
6
CONTINUOUS
62
7
10
117.125724761134961227071
20
124.823499317798777497046
0
VERTEX
8
Layer_1
6
CONTINUOUS
62
7
10
117.210777626077714330677
20
124.916098226389777892109
0
VERTEX
8
Layer_1
6
CONTINUOUS
62
7
10
117.304740791156532964123
20
125.000511596099059374865
0
VERTEX
8
Layer_1
6
CONTINUOUS
62
7
10
117.405184174515881068146
20
125.073669849846254464865
0
VERTEX
8
Layer_1
6
CONTINUOUS
62
7
10
117.512107776155772853599
20
125.135572987631363162109
0
VERTEX
8
Layer_1
6
CONTINUOUS
62
7
10
117.625511596076194109628
20
125.186221009454371255742
0
VERTEX
8
Layer_1
6
CONTINUOUS
62
7
10
117.745395634277144836233
20
125.225613915315278745766
0
VERTEX
8
Layer_1
6
CONTINUOUS
62
7
10
117.871759890758625033413
20
125.253751705214114053888
0
VERTEX
8
Layer_1
6
CONTINUOUS
62
7
10
118.00460436552063470117
20
125.2706343791508487584
0
VERTEX
8
Layer_1
6
CONTINUOUS
62
7
10
118.143929058563188050357
20
125.276261937125497070156
0
VERTEX
8
Layer_1
6
CONTINUOUS
62
7
10
118.277370395534305203
20
125.271316507378713822618
0
VERTEX
8
Layer_1
6
CONTINUOUS
62
7
10
118.406207366884260068218
20
125.256480218150556993351
0
VERTEX
8
Layer_1
6
CONTINUOUS
62
7
10
118.530439972613038435156
20
125.231753069441026582354
0
VERTEX
8
Layer_1
6
CONTINUOUS
62
7
10
118.650068212720611882105
20
125.197135061250108378772
0
VERTEX
8
Layer_1
6
CONTINUOUS
62
7
10
118.765092087207023041628
20
125.152626193577816593461
0
VERTEX
8
Layer_1
6
CONTINUOUS
62
7
10
118.875511596072243492017
20
125.098226466424165437274
0
VERTEX
8
Layer_1
6
CONTINUOUS
62
7
10
118.981326739316287444126
20
125.033935879789126488504
0
VERTEX
8
Layer_1
6
CONTINUOUS
62
7
10
119.082537516939154897955
20
124.959754433672713958003
0
VERTEX
8
Layer_1
6
CONTINUOUS
62
7
10
119.19636766700284624676
20
124.859183151266506683896
0
VERTEX
8
Layer_1
6
CONTINUOUS
62
7
10
119.295020463723730586025
20
124.749829467769586699433
0
VERTEX
8
Layer_1
6
CONTINUOUS
62
7
10
119.378495907101779494042
20
124.631693383181925582903
0
VERTEX
8
Layer_1
6
CONTINUOUS
62
7
10
119.446793997137007181664
20
124.504774897503565966872
0
VERTEX
8
Layer_1
6
CONTINUOUS
62
7
10
119.499914733829427859746
20
124.36907401073447942963
0
VERTEX
8
Layer_1
6
CONTINUOUS
62
7
10
119.537858117179013106579
20
124.224590722874651760321
0
VERTEX
8
Layer_1
6
CONTINUOUS
62
7
10
119.560624147185762922163
20
124.071325033924097169802
0
VERTEX
8
Layer_1
6
CONTINUOUS
62
7
10
119.568212823849705728207
20
123.909276943882844079781
0
VERTEX
8
Layer_1
6
CONTINUOUS
62
7
10
119.549113233114951526659
20
123.648959754252047105183
0
VERTEX
8
Layer_1
6
CONTINUOUS
62
7
10
119.525238744705717408578
20
123.528201739246298984654
0
VERTEX
8
Layer_1
6
CONTINUOUS
62
7
10
119.491814460935231068106
20
123.413710777446979705019
0
VERTEX
8
Layer_1
6
CONTINUOUS
62
7
10
119.448840381803492505242
20
123.305486868854103477133
0
VERTEX
8
Layer_1
6
CONTINUOUS
62
7
10
119.39631650731051593084
20
123.203530013467641879288
0
VERTEX
8
Layer_1
6
CONTINUOUS
62
7
10
119.334242837456287134046
20
123.107840211287609122337
0
VERTEX
8
Layer_1
6
CONTINUOUS
62
7
10
119.26261937224080611486
20
123.018417462314019417136
0
VERTEX
8
Layer_1
6
CONTINUOUS
62
7
10
119.18310879924942469188
20
122.936753922072028899493
0
VERTEX
8
Layer_1
6
CONTINUOUS
62
7
10
119.097373806067452051138
20
122.864341746086779494362
0
VERTEX
8
Layer_1
6
CONTINUOUS
62
7
10
119.005414392694916614346
20
122.801180934358313834309
0
VERTEX
8
Layer_1
6
CONTINUOUS
62
7
10
118.907230559131775748938
20
122.747271486886589286769
0
VERTEX
8
Layer_1
6
CONTINUOUS
62
7
10
118.802822305378057876624
20
122.702613403671634273451
0
VERTEX
8
Layer_1
6
CONTINUOUS
62
7
10
118.692189631433777208258
20
122.6672066847134345835
0
VERTEX
8
Layer_1
6
CONTINUOUS
62
7
10
118.575332537298919532986
20
122.641051330011990216917
0
VERTEX
8
Layer_1
6
CONTINUOUS
62
7
10
118.452251022973456429099
20
122.624147339567315384556
0
SEQEND
0
LINE
8
Layer_1
6
CONTINUOUS
62
7
10
142
20
22
11
143.5
21
22
0
POLYLINE
8
Layer_1
6
CONTINUOUS
62
7
66
1
10
0
20
0
70
129
40
0
41
0
0
VERTEX
8
Layer_1
6
CONTINUOUS
62
7
10
141.5
20
22
0
VERTEX
8
Layer_1
6
CONTINUOUS
62
7
10
142.194592710117490241828
20
18.0607689878541499695075
0
VERTEX
8
Layer_1
6
CONTINUOUS
62
7
10
140.805407288821356814879
20
18.0607689880412571881152
0
VERTEX
8
Layer_1
6
CONTINUOUS
62
7
10
141.5
20
22
0
SEQEND
0
LINE
8
Layer_1
6
CONTINUOUS
62
7
10
141.5
20
22
11
141.5
21
16.5
0
POLYLINE
8
Layer_1
6
CONTINUOUS
62
7
66
1
10
0
20
0
70
129
40
0
41
0
0
VERTEX
8
Layer_1
6
CONTINUOUS
62
7
10
141.5
20
27
0
VERTEX
8
Layer_1
6
CONTINUOUS
62
7
10
140.805407289528773162601
20
30.9392310120834821418612
0
VERTEX
8
Layer_1
6
CONTINUOUS
62
7
10
142.19459271082493501126
20
30.9392310120211107005161
0
VERTEX
8
Layer_1
6
CONTINUOUS
62
7
10
141.5
20
27
0
SEQEND
0
LINE
8
Layer_1
6
CONTINUOUS
62
7
10
141.5
20
27
11
141.5
21
32.5
0
LINE
8
Layer_1
6
CONTINUOUS
62
7
10
143.5
20
27
11
142
21
27
0
POLYLINE
8
Layer_1
6
CONTINUOUS
62
7
66
1
10
0
20
0
70
129
40
0
41
0
0
VERTEX
8
Layer_1
6
CONTINUOUS
62
7
10
142.452251023292546960874
20
34.7319236015045618160002
0
VERTEX
8
Layer_1
6
CONTINUOUS
62
7
10
142.40859481594873159338
20
35.2476125510290287934367
0
VERTEX
8
Layer_1
6
CONTINUOUS
62
7
10
142.585180764108685025349
20
35.2857264664372038964757
0
VERTEX
8
Layer_1
6
CONTINUOUS
62
7
10
142.738403820045760994617
20
35.3427694405094499074949
0
VERTEX
8
Layer_1
6
CONTINUOUS
62
7
10
142.868263983759959501185
20
35.4187414732457739319216
0
VERTEX
8
Layer_1
6
CONTINUOUS
62
7
10
142.974761255251252123344
20
35.5136425646461759697559
0
VERTEX
8
Layer_1
6
CONTINUOUS
62
7
10
143.057725102459471600014
20
35.6233799452700026222374
0
VERTEX
8
Layer_1
6
CONTINUOUS
62
7
10
143.116984993324365404987
20
35.7438608456766218068879
0
VERTEX
8
Layer_1
6
CONTINUOUS
62
7
10
143.152540927845933538265
20
35.8750852658660193128526
0
VERTEX
8
Layer_1
6
CONTINUOUS
62
7
10
143.164392906024204421556
20
36.0170532058382093509863
0
VERTEX
8
Layer_1
6
CONTINUOUS
62
7
10
143.147680764149185961287
20
36.187585265866246686528
0
VERTEX
8
Layer_1
6
CONTINUOUS
62
7
10
143.0975443385082144232
20
36.3444747610935934289955
0
VERTEX
8
Layer_1
6
CONTINUOUS
62
7
10
143.013983629101261385586
20
36.4877216915202708946708
0
VERTEX
8
Layer_1
6
CONTINUOUS
62
7
10
142.896998635928355270153
20
36.6173260571462577672719
0
VERTEX
8
Layer_1
6
CONTINUOUS
62
7
10
142.752387449030067045896
20
36.7247612549699340434017
0
VERTEX
8
Layer_1
6
CONTINUOUS
62
7
10
142.585948158446882416683
20
36.8015006819896868250908
0
VERTEX
8
Layer_1
6
CONTINUOUS
62
7
10
142.397680764178801382513
20
36.8475443382055090069116
0
VERTEX
8
Layer_1
6
CONTINUOUS
62
7
10
142.187585266225880786806
20
36.8628922236173934834369
0
VERTEX
8
Layer_1
6
CONTINUOUS
62
7
10
141.988574352173372972175
20
36.8481412004339716759205
0
VERTEX
8
Layer_1
6
CONTINUOUS
62
7
10
141.811732605923111805168
20
36.8038881308648271328821
0
VERTEX
8
Layer_1
6
CONTINUOUS
62
7
10
141.657060027475040442368
20
36.730133014909966959749
0
VERTEX
8
Layer_1
6
CONTINUOUS
62
7
10
141.524556616829215727194
20
36.6268758525693982619487
0
VERTEX
8
Layer_1
6
CONTINUOUS
62
7
10
141.418315143426497115797
20
36.4997442018238302807731
0
VERTEX
8
Layer_1
6
CONTINUOUS
62
7
10
141.342428376707829329462
20
36.3543656206539793629418
0
VERTEX
8
Layer_1
6
CONTINUOUS
62
7
10
141.296896316673212368187
20
36.1907401090598455084546
0
VERTEX
8
Layer_1
6
CONTINUOUS
62
7
10
141.281718963322589388554
20
36.0088676670414216118843
0
VERTEX
8
Layer_1
6
CONTINUOUS
62
7
10
141.288454979688452795017
20
35.8930763982825880020755
0
VERTEX
8
Layer_1
6
CONTINUOUS
62
7
10
141.308663028796757998862
20
35.7830832195640837767314
0
VERTEX
8
Layer_1
6
CONTINUOUS
62
7
10
141.342343110647476578379
20
35.6788881308859018304247
0
VERTEX
8
Layer_1
6
CONTINUOUS
62
7
10
141.389495225240608533568
20
35.5804911322480421631553
0
VERTEX
8
Layer_1
6
CONTINUOUS
62
7
10
141.447390859615836689045
20
35.4901091404309880772416
0
VERTEX
8
Layer_1
6
CONTINUOUS
62
7
10
141.513301500812758604297
20
35.4099590722152015587199
0
VERTEX
8
Layer_1
6
CONTINUOUS
62
7
10
141.587227148831459544454
20
35.3400409276006968184447
0
VERTEX
8
Layer_1
6
CONTINUOUS
62
7
10
141.669167803671882666094
20
35.2803547065874667509888
0
VERTEX
8
Layer_1
6
CONTINUOUS
62
7
10
141.609140518521570584198
20
34.8192360162763847597489
0
VERTEX
8
Layer_1
6
CONTINUOUS
62
7
10
139.554570259330233739092
20
35.2066848567506127665183
0
VERTEX
8
Layer_1
6
CONTINUOUS
62
7
10
139.554570259419534750123
20
37.1957708049088680013483
0
VERTEX
8
Layer_1
6
CONTINUOUS
62
7
10
140.023874488614637812134
20
37.195770804887800409233
0
VERTEX
8
Layer_1
6
CONTINUOUS
62
7
10
140.02387448854295826095
20
35.5995907230324135639421
0
VERTEX
8
Layer_1
6
CONTINUOUS
62
7
10
141.09890859494529991025
20
35.3840381991096606384417
0
VERTEX
8
Layer_1
6
CONTINUOUS
62
7
10
140.989085948295922889884
20
35.5663369712837607039546
0
VERTEX
8
Layer_1
6
CONTINUOUS
62
7
10
140.9106412006917423696
20
35.7530695770171575986751
0
VERTEX
8
Layer_1
6
CONTINUOUS
62
7
10
140.863574352132786771108
20
35.9442360163098584280306
0
VERTEX
8
Layer_1
6
CONTINUOUS
62
7
10
140.847885402619056094409
20
36.1398362891618560865936
0
VERTEX
8
Layer_1
6
CONTINUOUS
62
7
10
140.853555593620740182814
20
36.2682469303621459744136
0
VERTEX
8
Layer_1
6
CONTINUOUS
62
7
10
140.870566166613969016908
20
36.3915416097611128520839
0
VERTEX
8
Layer_1
6
CONTINUOUS
62
7
10
140.898917121598799440108
20
36.5097203273587496141772
0
VERTEX
8
Layer_1
6
CONTINUOUS
62
7
10
140.938608458575259874124
20
36.6227830831550562606935
0
VERTEX
8
Layer_1
6
CONTINUOUS
62
7
10
140.989640177543293475537
20
36.7307298771500398970602
0
VERTEX
8
Layer_1
6
CONTINUOUS
62
7
10
141.052012278502871822639
20
36.8335607093436863124225
0
VERTEX
8
Layer_1
6
CONTINUOUS
62
7
10
141.125724761454023337137
20
36.9312755797360168230625
0
VERTEX
8
Layer_1
6
CONTINUOUS
62
7
10
141.210777626396804862452
20
37.0238744883270101126982
0
VERTEX
8
Layer_1
6
CONTINUOUS
62
7
10
141.304740791475637706753
20
37.1082878580362915954538
0
VERTEX
8
Layer_1
6
CONTINUOUS
62
7
10
141.405184174834971599921
20
37.1814461117834866854537
0
VERTEX
8
Layer_1
6
CONTINUOUS
62
7
10
141.512107776474863385374
20
37.2433492495685953826978
0
VERTEX
8
Layer_1
6
CONTINUOUS
62
7
10
141.625511596395284641403
20
37.2939972713916034763315
0
VERTEX
8
Layer_1
6
CONTINUOUS
62
7
10
141.745395634596235368008
20
37.3333901772525251772095
0
VERTEX
8
Layer_1
6
CONTINUOUS
62
7
10
141.871759891077715565189
20
37.3615279671513533799043
0
VERTEX
8
Layer_1
6
CONTINUOUS
62
7
10
142.004604365839725232945
20
37.3784106410880951898434
0
VERTEX
8
Layer_1
6
CONTINUOUS
62
7
10
142.143929058882292792987
20
37.3840381990627363961721
0
VERTEX
8
Layer_1
6
CONTINUOUS
62
7
10
142.27737039585343836734
20
37.3790927693159602540618
0
VERTEX
8
Layer_1
6
CONTINUOUS
62
7
10
142.406207367203364810848
20
37.3642564800878034247944
0
VERTEX
8
Layer_1
6
CONTINUOUS
62
7
10
142.530439972932157388641
20
37.3395293313782659083699
0
VERTEX
8
Layer_1
6
CONTINUOUS
62
7
10
142.65006821303973083559
20
37.3049113231873548102158
0
VERTEX
8
Layer_1
6
CONTINUOUS
62
7
10
142.765092087526113573404
20
37.2604024555150701303319
0
VERTEX
8
Layer_1
6
CONTINUOUS
62
7
10
142.875511596391334023792
20
37.2060027283614118687183
0
VERTEX
8
Layer_1
6
CONTINUOUS
62
7
10
142.981326739635392186756
20
37.1417121417263729199476
0
VERTEX
8
Layer_1
6
CONTINUOUS
62
7
10
143.082537517258259640585
20
37.0675306956099603894472
0
VERTEX
8
Layer_1
6
CONTINUOUS
62
7
10
143.196367667321965200244
20
36.9669594132037602207674
0
VERTEX
8
Layer_1
6
CONTINUOUS
62
7
10
143.295020464042806906946
20
36.8576057297068331308765
0
VERTEX
8
Layer_1
6
CONTINUOUS
62
7
10
143.378495907420870025817
20
36.7394696451191862252017
0
VERTEX
8
Layer_1
6
CONTINUOUS
62
7
10
143.446793997456097713439
20
36.6125511594408123983158
0
VERTEX
8
Layer_1
6
CONTINUOUS
62
7
10
143.499914734148518391521
20
36.4768502726717116502186
0
VERTEX
8
Layer_1
6
CONTINUOUS
62
7
10
143.537858117498103638354
20
36.3323669848118910863377
0
VERTEX
8
Layer_1
6
CONTINUOUS
62
7
10
143.560624147504853453938
20
36.1791012958613436012456
0
VERTEX
8
Layer_1
6
CONTINUOUS
62
7
10
143.568212824168796259983
20
36.0170532058200763003697
0
VERTEX
8
Layer_1
6
CONTINUOUS
62
7
10
143.549113233434070480143
20
35.7567360161892864311994
0
VERTEX
8
Layer_1
6
CONTINUOUS
62
7
10
143.525238745024836362063
20
35.63597800118353831067
0
VERTEX
8
Layer_1
6
CONTINUOUS
62
7
10
143.491814461254335810736
20
35.5214870393842190310352
0
VERTEX
8
Layer_1
6
CONTINUOUS
62
7
10
143.448840382122597247871
20
35.4132631307913356977224
0
VERTEX
8
Layer_1
6
CONTINUOUS
62
7
10
143.39631650762962067347
20
35.3113062754048740998769
0
VERTEX
8
Layer_1
6
CONTINUOUS
62
7
10
143.334242837775377665821
20
35.2156164732248555537808
0
VERTEX
8
Layer_1
6
CONTINUOUS
62
7
10
143.262619372559925068344
20
35.126193724251258743152
0
VERTEX
8
Layer_1
6
CONTINUOUS
62
7
10
143.183108799568515223655
20
35.0445301840092611200816
0
VERTEX
8
Layer_1
6
CONTINUOUS
62
7
10
143.097373806386571004623
20
34.9721180080240259258062
0
VERTEX
8
Layer_1
6
CONTINUOUS
62
7
10
143.00541439301403556783
20
34.9089571962955460548983
0
VERTEX
8
Layer_1
6
CONTINUOUS
62
7
10
142.907230559450880491568
20
34.8550477488238286127853
0
VERTEX
8
Layer_1
6
CONTINUOUS
62
7
10
142.802822305697134197544
20
34.8103896656088735994672
0
VERTEX
8
Layer_1
6
CONTINUOUS
62
7
10
142.692189631752853529179
20
34.7749829466506739095166
0
VERTEX
8
Layer_1
6
CONTINUOUS
62
7
10
142.575332537618010064762
20
34.748827591949236648361
0
VERTEX
8
Layer_1
6
CONTINUOUS
62
7
10
142.452251023292546960874
20
34.7319236015045618160002
0
SEQEND
0
LINE
8
Layer_1
6
CONTINUOUS
62
7
10
72
20
140
11
88.5
21
140
0
POLYLINE
8
Layer_1
6
CONTINUOUS
62
7
66
1
10
0
20
0
70
129
40
0
41
0
0
VERTEX
8
Layer_1
6
CONTINUOUS
62
7
10
86.5
20
140
0
VERTEX
8
Layer_1
6
CONTINUOUS
62
7
10
87.1945927101175044526826
20
136.060768987854146416794
0
VERTEX
8
Layer_1
6
CONTINUOUS
62
7
10
85.8054072888213568148785
20
136.060768988041246529974
0
VERTEX
8
Layer_1
6
CONTINUOUS
62
7
10
86.5
20
140
0
SEQEND
0
LINE
8
Layer_1
6
CONTINUOUS
62
7
10
86.5
20
140
11
86.5
21
20
0
POLYLINE
8
Layer_1
6
CONTINUOUS
62
7
66
1
10
0
20
0
70
129
40
0
41
0
0
VERTEX
8
Layer_1
6
CONTINUOUS
62
7
10
86.5
20
20
0
VERTEX
8
Layer_1
6
CONTINUOUS
62
7
10
85.805407289528787373456
20
23.9392310120834821418612
0
VERTEX
8
Layer_1
6
CONTINUOUS
62
7
10
87.1945927108249350112601
20
23.9392310120211107005161
0
VERTEX
8
Layer_1
6
CONTINUOUS
62
7
10
86.5
20
20
0
SEQEND
0
LINE
8
Layer_1
6
CONTINUOUS
62
7
10
88.5
20
20
11
72
21
20
0
POLYLINE
8
Layer_1
6
CONTINUOUS
62
7
66
1
10
0
20
0
70
129
40
0
41
0
0
VERTEX
8
Layer_1
6
CONTINUOUS
62
7
10
84.4999999998841673232164
20
77.4201909960868164262138
0
VERTEX
8
Layer_1
6
CONTINUOUS
62
7
10
84.4999999998621262875531
20
76.9290586632082380447173
0
VERTEX
8
Layer_1
6
CONTINUOUS
62
7
10
81.3703956342413903257693
20
76.9290586633487407652865
0
VERTEX
8
Layer_1
6
CONTINUOUS
62
7
10
81.5395634377792504210447
20
76.7240791271883608715143
0
VERTEX
8
Layer_1
6
CONTINUOUS
62
7
10
81.7087312413146378275997
20
76.4638472035791210146272
0
VERTEX
8
Layer_1
6
CONTINUOUS
62
7
10
81.8567530694060536688994
20
76.1906548434087653731694
0
VERTEX
8
Layer_1
6
CONTINUOUS
62
7
10
81.9624829466120132792639
20
75.9467939975649954931214
0
VERTEX
8
Layer_1
6
CONTINUOUS
62
7
10
81.4877216914960627036635
20
75.9467939975863117751942
0
VERTEX
8
Layer_1
6
CONTINUOUS
62
7
10
81.385743519608695351053
20
76.1463165078228030324681
0
VERTEX
8
Layer_1
6
CONTINUOUS
62
7
10
81.2735334241191225146395
20
76.3328785814977095469658
0
VERTEX
8
Layer_1
6
CONTINUOUS
62
7
10
81.1510914050273299835681
20
76.5064802186109744752684
0
VERTEX
8
Layer_1
6
CONTINUOUS
62
7
10
81.0184174623333035469841
20
76.6671214191626404499402
0
VERTEX
8
Layer_1
6
CONTINUOUS
62
7
10
80.8816507501978492200578
20
76.8100272854716479287163
0
VERTEX
8
Layer_1
6
CONTINUOUS
62
7
10
80.7469304227816877528312
20
76.9304229198569657910411
0
VERTEX
8
Layer_1
6
CONTINUOUS
62
7
10
80.6142564800848475670136
20
77.0283083223185656152054
0
VERTEX
8
Layer_1
6
CONTINUOUS
62
7
10
80.4836289221073428734599
20
77.1036834928564900337733
0
VERTEX
8
Layer_1
6
CONTINUOUS
62
7
10
80.4836289221215537281751
20
77.420190996267137961695
0
VERTEX
8
Layer_1
6
CONTINUOUS
62
7
10
84.4999999998841673232164
20
77.4201909960868164262138
0
SEQEND
0
POLYLINE
8
Layer_1
6
CONTINUOUS
62
7
66
1
10
0
20
0
70
129
40
0
41
0
0
VERTEX
8
Layer_1
6
CONTINUOUS
62
7
10
84.0279672579010110666786
20
81.259208731442242878984
0
VERTEX
8
Layer_1
6
CONTINUOUS
62
7
10
84.5000000000565307800571
20
81.2592087314210544946036
0
VERTEX
8
Layer_1
6
CONTINUOUS
62
7
10
84.499999999937827510621
20
78.6152796727580209790176
0
VERTEX
8
Layer_1
6
CONTINUOUS
62
7
10
84.3260572987105092579441
20
78.6268758528476894298365
0
VERTEX
8
Layer_1
6
CONTINUOUS
62
7
10
84.1589358798858313548408
20
78.6725784449425020739
0
VERTEX
8
Layer_1
6
CONTINUOUS
62
7
10
84.024386084526909712622
20
78.7306446113878308779022
0
VERTEX
8
Layer_1
6
CONTINUOUS
62
7
10
83.8908594815288495283312
20
78.8038881311755403658026
0
VERTEX
8
Layer_1
6
CONTINUOUS
62
7
10
83.7583560708916081694042
20
78.892309004305644748456
0
VERTEX
8
Layer_1
6
CONTINUOUS
62
7
10
83.6268758526152282684052
20
78.9959072307781298150076
0
VERTEX
8
Layer_1
6
CONTINUOUS
62
7
10
83.4907912687189934786147
20
79.1194577082740124751581
0
VERTEX
8
Layer_1
6
CONTINUOUS
62
7
10
83.3444747612222442967322
20
79.2677353344742954277535
0
VERTEX
8
Layer_1
6
CONTINUOUS
62
7
10
83.0211459754271601241271
20
79.638472032988119053698
0
VERTEX
8
Layer_1
6
CONTINUOUS
62
7
10
82.7676500682100595440716
20
79.9380968624674466127544
0
VERTEX
8
Layer_1
6
CONTINUOUS
62
7
10
82.5419508867750266745134
20
80.1848567533370584214936
0
VERTEX
8
Layer_1
6
CONTINUOUS
62
7
10
82.3440484311220615154525
20
80.3787517055969544799154
0
VERTEX
8
Layer_1
6
CONTINUOUS
62
7
10
82.1739427012511782777437
20
80.5197817192471632097295
0
VERTEX
8
Layer_1
6
CONTINUOUS
62
7
10
82.019866985021025129754
20
80.620054570550124140027
0
VERTEX
8
Layer_1
6
CONTINUOUS
62
7
10
81.8700545702902644507049
20
80.6916780357683194324636
0
VERTEX
8
Layer_1
6
CONTINUOUS
62
7
10
81.7245054570589104514511
20
80.7346521149017348761845
0
VERTEX
8
Layer_1
6
CONTINUOUS
62
7
10
81.583219645326948921138
20
80.7489768079503704711897
0
VERTEX
8
Layer_1
6
CONTINUOUS
62
7
10
81.4429570259539161725115
20
80.735931105364585391726
0
VERTEX
8
Layer_1
6
CONTINUOUS
62
7
10
81.3141200546015454619919
20
80.6967939975940993235781
0
VERTEX
8
Layer_1
6
CONTINUOUS
62
7
10
81.1967087312698367895791
20
80.6315654846389264776008
0
VERTEX
8
Layer_1
6
CONTINUOUS
62
7
10
81.0907230559587759444184
20
80.5402455664990810646486
0
VERTEX
8
Layer_1
6
CONTINUOUS
62
7
10
81.0029843110696958774497
20
80.4279502049750476544432
0
VERTEX
8
Layer_1
6
CONTINUOUS
62
7
10
80.940313779003915328758
20
80.29979536186735344927
0
VERTEX
8
Layer_1
6
CONTINUOUS
62
7
10
80.9027114597614342983434
20
80.1557810371760126599838
0
VERTEX
8
Layer_1
6
CONTINUOUS
62
7
10
80.8901773533422527862058
20
79.9959072309009826540205
0
VERTEX
8
Layer_1
6
CONTINUOUS
62
7
10
80.9034788540168108283979
20
79.8274215555934176791197
0
VERTEX
8
Layer_1
6
CONTINUOUS
62
7
10
80.9433833560564295339645
20
79.6766712145275164402847
0
VERTEX
8
Layer_1
6
CONTINUOUS
62
7
10
81.0098908594610946920511
20
79.5436562077032647266606
0
VERTEX
8
Layer_1
6
CONTINUOUS
62
7
10
81.1030013642308205135123
20
79.428376535120634116538
0
VERTEX
8
Layer_1
6
CONTINUOUS
62
7
10
81.2196452932852963613186
20
79.3350954982804807968932
0
VERTEX
8
Layer_1
6
CONTINUOUS
62
7
10
81.3567530695442258092953
20
79.2680763986835899004291
0
VERTEX
8
Layer_1
6
CONTINUOUS
62
7
10
81.5143246930076088574424
20
79.2273192363299898488549
0
VERTEX
8
Layer_1
6
CONTINUOUS
62
7
10
81.6923601636754455057599
20
79.2128240112196806421707
0
VERTEX
8
Layer_1
6
CONTINUOUS
62
7
10
81.6405184174044791234337
20
78.7080491135412501080282
0
VERTEX
8
Layer_1
6
CONTINUOUS
62
7
10
81.5035172236808449497403
20
78.7254860166851955227685
0
VERTEX
8
Layer_1
6
CONTINUOUS
62
7
10
81.3749147339139540235919
20
78.751875852980191439201
0
VERTEX
8
Layer_1
6
CONTINUOUS
62
7
10
81.2547109481038205558434
20
78.7872186224262378573258
0
VERTEX
8
Layer_1
6
CONTINUOUS
62
7
10
81.1429058662504161247853
20
78.8315143250233347771427
0
VERTEX
8
Layer_1
6
CONTINUOUS
62
7
10
81.0394994883537549412722
20
78.8847629607714964095067
0
VERTEX
8
Layer_1
6
CONTINUOUS
62
7
10
80.9444918144138512161589
20
78.9469645296707085435628
0
VERTEX
8
Layer_1
6
CONTINUOUS
62
7
10
80.8578828444306907385908
20
79.0181190317209853901659
0
VERTEX
8
Layer_1
6
CONTINUOUS
62
7
10
80.7796725784042735085677
20
79.0982264669223269493159
0
VERTEX
8
Layer_1
6
CONTINUOUS
62
7
10
80.7102873464846197748557
20
79.1864341749745648257885
0
VERTEX
8
Layer_1
6
CONTINUOUS
62
7
10
80.6501534788217924187848
20
79.2818894955775306243595
0
VERTEX
8
Layer_1
6
CONTINUOUS
62
7
10
80.5992709754157630186455
20
79.3845924287312385558835
0
VERTEX
8
Layer_1
6
CONTINUOUS
62
7
10
80.557639836266531574438
20
79.4945429744357028312152
0
VERTEX
8
Layer_1
6
CONTINUOUS
62
7
10
80.5252600613741122970168
20
79.6117411326909092394999
0
VERTEX
8
Layer_1
6
CONTINUOUS
62
7
10
80.5021316507384909755274
20
79.7361869034968577807376
0
VERTEX
8
Layer_1
6
CONTINUOUS
62
7
10
80.4836289222376848329077
20
80.0068212827609812620722
0
VERTEX
8
Layer_1
6
CONTINUOUS
62
7
10
80.4886169849997656911
20
80.1469986361031772048591
0
VERTEX
8
Layer_1
6
CONTINUOUS
62
7
10
80.5035811732731190204504
20
80.279672578803740634612
0
VERTEX
8
Layer_1
6
CONTINUOUS
62
7
10
80.528521487057730610104
20
80.4048431108626573404763
0
VERTEX
8
Layer_1
6
CONTINUOUS
62
7
10
80.563437926353600460061
20
80.5225102322799131115971
0
VERTEX
8
Layer_1
6
CONTINUOUS
62
7
10
80.6083304911607427811759
20
80.6326739430555221588293
0
VERTEX
8
Layer_1
6
CONTINUOUS
62
7
10
80.6631991814791291517395
20
80.7353342431894986930274
0
VERTEX
8
Layer_1
6
CONTINUOUS
62
7
10
80.7280439973087737826063
20
80.8304911326818000816274
0
VERTEX
8
Layer_1
6
CONTINUOUS
62
7
10
80.8028649386496908846311
20
80.9181446115324689571935
0
VERTEX
8
Layer_1
6
CONTINUOUS
62
7
10
80.8850613915863760894354
20
80.9968025242163633947712
0
VERTEX
8
Layer_1
6
CONTINUOUS
62
7
10
80.9720327422033392394951
20
81.0649727152083556802609
0
VERTEX
8
Layer_1
6
CONTINUOUS
62
7
10
81.0637789905006229673745
20
81.1226551845084600245173
0
VERTEX
8
Layer_1
6
CONTINUOUS
62
7
10
81.1603001364781704296547
20
81.1698499321166906383951
0
VERTEX
8
Layer_1
6
CONTINUOUS
62
7
10
81.2615961801360242588999
20
81.2065569580330191001849
0
VERTEX
8
Layer_1
6
CONTINUOUS
62
7
10
81.3676671214741702442552
20
81.2327762622574596207414
0
VERTEX
8
Layer_1
6
CONTINUOUS
62
7
10
81.4785129604926225965755
20
81.2485078447899837783552
0
VERTEX
8
Layer_1
6
CONTINUOUS
62
7
10
81.5941336971913528941514
20
81.2537517056306342055905
0
VERTEX
8
Layer_1
6
CONTINUOUS
62
7
10
81.7136766712702069526131
20
81.2476125514642859570813
0
VERTEX
8
Layer_1
6
CONTINUOUS
62
7
10
81.832196452988341661694
20
81.2291950889760130394279
0
VERTEX
8
Layer_1
6
CONTINUOUS
62
7
10
81.9496930423457570213941
20
81.1984993181658296634851
0
VERTEX
8
Layer_1
6
CONTINUOUS
62
7
10
82.0661664393424672425681
20
81.155525239033721618398
0
VERTEX
8
Layer_1
6
CONTINUOUS
62
7
10
82.1836630286987031013268
20
81.0983117328893001740653
0
VERTEX
8
Layer_1
6
CONTINUOUS
62
7
10
82.3042291951346953737811
20
81.0248976810421339678214
0
VERTEX
8
Layer_1
6
CONTINUOUS
62
7
10
82.4278649386504582707857
20
80.9352830834922372105211
0
VERTEX
8
Layer_1
6
CONTINUOUS
62
7
10
82.5545702592459775814859
20
80.8294679402396241130191
0
VERTEX
8
Layer_1
6
CONTINUOUS
62
7
10
82.8587994543210442088821
20
80.5262619374974519814714
0
VERTEX
8
Layer_1
6
CONTINUOUS
62
7
10
83.2585266030046113883145
20
80.0723055936868775006587
0
VERTEX
8
Layer_1
6
CONTINUOUS
62
7
10
83.569918144598148046498
20
79.7094133699348361687953
0
VERTEX
8
Layer_1
6
CONTINUOUS
62
7
10
83.761937244179677009015
20
79.504774897893469187693
0
VERTEX
8
Layer_1
6
CONTINUOUS
62
7
10
83.8946111868757640195327
20
79.3901773535491770417138
0
VERTEX
8
Layer_1
6
CONTINUOUS
62
7
10
84.0279672578129321891538
20
79.2974079128883460043653
0
VERTEX
8
Layer_1
6
CONTINUOUS
62
7
10
84.0279672579010110666786
20
81.259208731442242878984
0
SEQEND
0
POLYLINE
8
Layer_1
6
CONTINUOUS
62
7
66
1
10
0
20
0
70
129
40
0
41
0
0
VERTEX
8
Layer_1
6
CONTINUOUS
62
7
10
82.5272851296845431079419
20
81.785811732873895607554
0
VERTEX
8
Layer_1
6
CONTINUOUS
62
7
10
82.1898874489209703142478
20
81.7949351981004895151273
0
VERTEX
8
Layer_1
6
CONTINUOUS
62
7
10
81.8871077763437540397717
20
81.8223055937484673449944
0
VERTEX
8
Layer_1
6
CONTINUOUS
62
7
10
81.6189461119528942845136
20
81.8679229198178006754461
0
VERTEX
8
Layer_1
6
CONTINUOUS
62
7
10
81.3854024557483910484734
20
81.9317871763085179281916
0
VERTEX
8
Layer_1
6
CONTINUOUS
62
7
10
81.1815313779894438539486
20
82.0136425651307661155442
0
VERTEX
8
Layer_1
6
CONTINUOUS
62
7
10
81.0023874489352522232366
20
82.1132332881947490932362
0
VERTEX
8
Layer_1
6
CONTINUOUS
62
7
10
80.8479706685858161563374
20
82.2305593455004384395579
0
VERTEX
8
Layer_1
6
CONTINUOUS
62
7
10
80.718281036941135653251
20
82.3656207370478767870736
0
VERTEX
8
Layer_1
6
CONTINUOUS
62
7
10
80.615620736811592905724
20
82.5188437929869991194209
0
VERTEX
8
Layer_1
6
CONTINUOUS
62
7
10
80.542291951007570105503
20
82.6906548434677830528017
0
VERTEX
8
Layer_1
6
CONTINUOUS
62
7
10
80.498294679529067252588
20
82.8810538884902285872158
0
VERTEX
8
Layer_1
6
CONTINUOUS
62
7
10
80.4836289223761127686885
20
83.0900409280543215118087
0
VERTEX
8
Layer_1
6
CONTINUOUS
62
7
10
80.4917291952344129413177
20
83.2460777629789276943484
0
VERTEX
8
Layer_1
6
CONTINUOUS
62
7
10
80.5160300137948610199601
20
83.3922237384212223787472
0
VERTEX
8
Layer_1
6
CONTINUOUS
62
7
10
80.5565313780574570046156
20
83.5284788543812055650051
0
VERTEX
8
Layer_1
6
CONTINUOUS
62
7
10
80.6132332880222008952842
20
83.654843110858877253122
0
VERTEX
8
Layer_1
6
CONTINUOUS
62
7
10
80.6851978173589259313303
20
83.7709754437342155597435
0
VERTEX
8
Layer_1
6
CONTINUOUS
62
7
10
80.7714870397374653521183
20
83.8765347888872412340788
0
VERTEX
8
Layer_1
6
CONTINUOUS
62
7
10
80.8721009551578333685029
20
83.9715211463179258544187
0
VERTEX
8
Layer_1
6
CONTINUOUS
62
7
10
80.9870395636200157696294
20
84.0559345160262694207631
0
VERTEX
8
Layer_1
6
CONTINUOUS
62
7
10
81.1157912689439797304658
20
84.1307980903724654808684
0
VERTEX
8
Layer_1
6
CONTINUOUS
62
7
10
81.2578444749496924259802
20
84.1971350617166933716362
0
VERTEX
8
Layer_1
6
CONTINUOUS
62
7
10
81.4131991816371396453178
20
84.2549454300589673039212
0
VERTEX
8
Layer_1
6
CONTINUOUS
62
7
10
81.5818553890063355993334
20
84.3042291953992730668688
0
VERTEX
8
Layer_1
6
CONTINUOUS
62
7
10
81.7724249660885931234588
20
84.3436221012570115362905
0
VERTEX
8
Layer_1
6
CONTINUOUS
62
7
10
81.9935197819152392639808
20
84.3717598911515977988529
0
VERTEX
8
Layer_1
6
CONTINUOUS
62
7
10
82.2451398364862598100444
20
84.3886425650830034328465
0
VERTEX
8
Layer_1
6
CONTINUOUS
62
7
10
82.5272851298016547616498
20
84.3942701230512426491259
0
VERTEX
8
Layer_1
6
CONTINUOUS
62
7
10
82.862295361724846998186
20
84.385231923854746582947
0
VERTEX
8
Layer_1
6
CONTINUOUS
62
7
10
83.163369713701797536487
20
84.3581173262969059578609
0
VERTEX
8
Layer_1
6
CONTINUOUS
62
7
10
83.4305081857325205874076
20
84.3129263303776781413035
0
VERTEX
8
Layer_1
6
CONTINUOUS
62
7
10
83.6637107778169877292385
20
84.2496589360970915549842
0
VERTEX
8
Layer_1
6
CONTINUOUS
62
7
10
83.8676671216059759217387
20
84.1684004094849314014937
0
VERTEX
8
Layer_1
6
CONTINUOUS
62
7
10
84.0470668487502337029582
20
84.0692360165710113051318
0
VERTEX
8
Layer_1
6
CONTINUOUS
62
7
10
84.2019099592497468620422
20
83.952165757355317055044
0
VERTEX
8
Layer_1
6
CONTINUOUS
62
7
10
84.3321964531045296098455
20
83.8171896318378770729396
0
VERTEX
8
Layer_1
6
CONTINUOUS
62
7
10
84.4354536154441603912346
20
83.6637960438387011663508
0
VERTEX
8
Layer_1
6
CONTINUOUS
62
7
10
84.5092087313982176510763
20
83.4914733971778133536645
0
VERTEX
8
Layer_1
6
CONTINUOUS
62
7
10
84.5534618009667156002251
20
83.3002216918552278457355
0
VERTEX
8
Layer_1
6
CONTINUOUS
62
7
10
84.5682128241496400278265
20
83.090040927870930431709
0
VERTEX
8
Layer_1
6
CONTINUOUS
62
7
10
84.5617326058622893469874
20
82.9493093453337166920392
0
VERTEX
8
Layer_1
6
CONTINUOUS
62
7
10
84.5422919510131976039702
20
82.8163369715283010918938
0
VERTEX
8
Layer_1
6
CONTINUOUS
62
7
10
84.5098908596023932204844
20
82.6911238064547262638371
0
VERTEX
8
Layer_1
6
CONTINUOUS
62
7
10
84.4645293316298761965299
20
82.5736698501129637861595
0
VERTEX
8
Layer_1
6
CONTINUOUS
62
7
10
84.4062073670956181103975
20
82.4639751025030420805706
0
VERTEX
8
Layer_1
6
CONTINUOUS
62
7
10
84.3349249659996473837964
20
82.3620395636249327253608
0
VERTEX
8
Layer_1
6
CONTINUOUS
62
7
10
84.2506821283419355950173
20
82.2678632334786357205303
0
VERTEX
8
Layer_1
6
CONTINUOUS
62
7
10
84.1534788541224969549148
20
82.1814461120641794877884
0
VERTEX
8
Layer_1
6
CONTINUOUS
62
7
10
84.0188437927267841587309
20
82.0887193044303842270892
0
VERTEX
8
Layer_1
6
CONTINUOUS
62
7
10
83.8645975444285056710214
20
82.0083560711494499173568
0
VERTEX
8
Layer_1
6
CONTINUOUS
62
7
10
83.690740109227633070077
20
81.9403564122213765585911
0
VERTEX
8
Layer_1
6
CONTINUOUS
62
7
10
83.4972714871241805667523
20
81.8847203276461641507922
0
VERTEX
8
Layer_1
6
CONTINUOUS
62
7
10
83.2841916781181481610474
20
81.8414478174238126939599
0
VERTEX
8
Layer_1
6
CONTINUOUS
62
7
10
83.0515006822095358529623
20
81.8105388815543221880944
0
VERTEX
8
Layer_1
6
CONTINUOUS
62
7
10
82.7991984993983294316422
20
81.7919935200376784223408
0
VERTEX
8
Layer_1
6
CONTINUOUS
62
7
10
82.5272851296845431079419
20
81.785811732873895607554
0
SEQEND
0
POLYLINE
8
Layer_1
6
CONTINUOUS
62
7
66
1
10
0
20
0
70
129
40
0
41
0
0
VERTEX
8
Layer_1
6
CONTINUOUS
62
7
10
82.5272851297071952103579
20
82.2905866305546567218698
0
VERTEX
8
Layer_1
6
CONTINUOUS
62
7
10
82.9785982265700567950262
20
82.3049965896067021731142
0
VERTEX
8
Layer_1
6
CONTINUOUS
62
7
10
83.3475443384410255021066
20
82.3482264668070484958662
0
VERTEX
8
Layer_1
6
CONTINUOUS
62
7
10
83.5011297750045429211241
20
82.3806488747128469185554
0
VERTEX
8
Layer_1
6
CONTINUOUS
62
7
10
83.6341234653201013315993
20
82.4202762621557099009806
0
VERTEX
8
Layer_1
6
CONTINUOUS
62
7
10
83.7465254093876865226775
20
82.4671086291356516539963
0
VERTEX
8
Layer_1
6
CONTINUOUS
62
7
10
83.8383356072073127052136
20
82.5211459756526721776027
0
VERTEX
8
Layer_1
6
CONTINUOUS
62
7
10
83.9809856754256145450199
20
82.6431616645957944911061
0
VERTEX
8
Layer_1
6
CONTINUOUS
62
7
10
84.0370267736550431436626
20
82.7092215213463362033508
0
VERTEX
8
Layer_1
6
CONTINUOUS
62
7
10
84.082878581298004405653
20
82.7786493862828933743003
0
VERTEX
8
Layer_1
6
CONTINUOUS
62
7
10
84.1185410983544841201365
20
82.8514452594054375822452
0
VERTEX
8
Layer_1
6
CONTINUOUS
62
7
10
84.1440143248244822871129
20
82.9276091407139830380402
0
VERTEX
8
Layer_1
6
CONTINUOUS
62
7
10
84.1592982607079989065824
20
83.0071410302085297416852
0
VERTEX
8
Layer_1
6
CONTINUOUS
62
7
10
84.1643929060050339785448
20
83.0900409278890634823256
0
VERTEX
8
Layer_1
6
CONTINUOUS
62
7
10
84.1592769442079315922456
20
83.1729408255700661811716
0
VERTEX
8
Layer_1
6
CONTINUOUS
62
7
10
84.1439290588090500477847
20
83.2524727150659771268693
0
VERTEX
8
Layer_1
6
CONTINUOUS
62
7
10
84.1183492498083751343074
20
83.3286365963768105302734
0
VERTEX
8
Layer_1
6
CONTINUOUS
62
7
10
84.0825375172059210626685
20
83.4014324695025663913839
0
VERTEX
8
Layer_1
6
CONTINUOUS
62
7
10
84.0364938610016736220132
20
83.4708603344432447102008
0
VERTEX
8
Layer_1
6
CONTINUOUS
62
7
10
83.9802182811956328123415
20
83.5369201911988454867242
0
VERTEX
8
Layer_1
6
CONTINUOUS
62
7
10
83.8369713507781852968037
20
83.6589358801547859911807
0
VERTEX
8
Layer_1
6
CONTINUOUS
62
7
10
83.7448840383658819064294
20
83.7129732266800772322313
0
VERTEX
8
Layer_1
6
CONTINUOUS
62
7
10
83.6323328787499633563129
20
83.7598055936701229029495
0
VERTEX
8
Layer_1
6
CONTINUOUS
62
7
10
83.4993178719304580681637
20
83.7994329811249372141901
0
VERTEX
8
Layer_1
6
CONTINUOUS
62
7
10
83.3458390179073660419817
20
83.8318553890445059550984
0
VERTEX
8
Layer_1
6
CONTINUOUS
62
7
10
82.9774897682503649321006
20
83.8750852662779777801916
0
VERTEX
8
Layer_1
6
CONTINUOUS
62
7
10
82.5272851297789884483791
20
83.8894952253704815348101
0
VERTEX
8
Layer_1
6
CONTINUOUS
62
7
10
82.0748635745259491613979
20
83.8750852663184787161299
0
VERTEX
8
Layer_1
6
CONTINUOUS
62
7
10
81.7053206004448924204553
20
83.8318553891181466042326
0
VERTEX
8
Layer_1
6
CONTINUOUS
62
7
10
81.5516285813438486229643
20
83.7994329812123623923981
0
VERTEX
8
Layer_1
6
CONTINUOUS
62
7
10
81.4186562075357898038419
20
83.7598055937694994099729
0
VERTEX
8
Layer_1
6
CONTINUOUS
62
7
10
81.3064034790207301739429
20
83.7129732267895434461025
0
VERTEX
8
Layer_1
6
CONTINUOUS
62
7
10
81.2148703957986413115577
20
83.6589358802725087116414
0
VERTEX
8
Layer_1
6
CONTINUOUS
62
7
10
81.0728171897904132947588
20
83.5365791272093076713645
0
VERTEX
8
Layer_1
6
CONTINUOUS
62
7
10
81.0170105731434944118519
20
83.4700929403086746560803
0
VERTEX
8
Layer_1
6
CONTINUOUS
62
7
10
80.9713506140680578937463
20
83.4000682131620294512686
0
VERTEX
8
Layer_1
6
CONTINUOUS
62
7
10
80.9358373125640753187326
20
83.3265049457693578460749
0
VERTEX
8
Layer_1
6
CONTINUOUS
62
7
10
80.9104706686315608976656
20
83.2494031381306456296443
0
VERTEX
8
Layer_1
6
CONTINUOUS
62
7
10
80.8952506822705004196905
20
83.1687627902459212236863
0
VERTEX
8
Layer_1
6
CONTINUOUS
62
7
10
80.890177353480908095662
20
83.0845839021151988390557
0
VERTEX
8
Layer_1
6
CONTINUOUS
62
7
10
80.9080832197765573710058
20
82.9239427015686914046455
0
VERTEX
8
Layer_1
6
CONTINUOUS
62
7
10
80.9618008186787108115823
20
82.7803547070233065596767
0
VERTEX
8
Layer_1
6
CONTINUOUS
62
7
10
81.0513301501873542065368
20
82.6538199184790300932946
0
VERTEX
8
Layer_1
6
CONTINUOUS
62
7
10
81.1766712143025017667242
20
82.5443383359358904272085
0
VERTEX
8
Layer_1
6
CONTINUOUS
62
7
10
81.2777540928809969500435
20
82.4848652799968391491348
0
VERTEX
8
Layer_1
6
CONTINUOUS
62
7
10
81.3981923602729580125015
20
82.433321964848190077646
0
VERTEX
8
Layer_1
6
CONTINUOUS
62
7
10
81.5379860164783565323887
20
82.3897083904899432127422
0
VERTEX
8
Layer_1
6
CONTINUOUS
62
7
10
81.6971350614972209314146
20
82.354024556922070132714
0
VERTEX
8
Layer_1
6
CONTINUOUS
62
7
10
81.8756394953295369987245
20
82.3262704641446276809802
0
VERTEX
8
Layer_1
6
CONTINUOUS
62
7
10
82.0734993179753047343183
20
82.3064461121575732249767
0
VERTEX
8
Layer_1
6
CONTINUOUS
62
7
10
82.5272851297071952103579
20
82.2905866305546567218698
0
SEQEND
0
LINE
8
Layer_1
6
CONTINUOUS
62
7
10
52
20
20
11
54.5
21
20
0
POLYLINE
8
Layer_1
6
CONTINUOUS
62
7
66
1
10
0
20
0
70
129
40
0
41
0
0
VERTEX
8
Layer_1
6
CONTINUOUS
62
7
10
52.5
20
20
0
VERTEX
8
Layer_1
6
CONTINUOUS
62
7
10
53.1945927101174973472553
20
16.0607689878541499695075
0
VERTEX
8
Layer_1
6
CONTINUOUS
62
7
10
51.8054072888213568148785
20
16.0607689880412571881152
0
VERTEX
8
Layer_1
6
CONTINUOUS
62
7
10
52.5
20
20
0
SEQEND
0
LINE
8
Layer_1
6
CONTINUOUS
62
7
10
52.5
20
20
11
52.5
21
15
0
POLYLINE
8
Layer_1
6
CONTINUOUS
62
7
66
1
10
0
20
0
70
129
40
0
41
0
0
VERTEX
8
Layer_1
6
CONTINUOUS
62
7
10
52.5
20
15
0
VERTEX
8
Layer_1
6
CONTINUOUS
62
7
10
51.805407289528787373456
20
18.9392310120834821418612
0
VERTEX
8
Layer_1
6
CONTINUOUS
62
7
10
53.1945927108249279058327
20
18.9392310120211107005161
0
VERTEX
8
Layer_1
6
CONTINUOUS
62
7
10
52.5
20
15
0
SEQEND
0
LINE
8
Layer_1
6
CONTINUOUS
62
7
10
54.5
20
15
11
52
21
15
0
POLYLINE
8
Layer_1
6
CONTINUOUS
62
7
66
1
10
0
20
0
70
129
40
0
41
0
0
VERTEX
8
Layer_1
6
CONTINUOUS
62
7
10
49.4522510231330088004142
20
16.1780354708951108477777
0
VERTEX
8
Layer_1
6
CONTINUOUS
62
7
10
49.4085948157891792220653
20
16.6937244204195813779279
0
VERTEX
8
Layer_1
6
CONTINUOUS
62
7
10
49.5851807639491468648885
20
16.7318383358277529282532
0
VERTEX
8
Layer_1
6
CONTINUOUS
62
7
10
49.7384038198862228341568
20
16.7888813098999989392723
0
VERTEX
8
Layer_1
6
CONTINUOUS
62
7
10
49.8682639836004142352976
20
16.8648533426363229636991
0
VERTEX
8
Layer_1
6
CONTINUOUS
62
7
10
49.9747612550917068574563
20
16.9597544340367250015333
0
VERTEX
8
Layer_1
6
CONTINUOUS
62
7
10
50.0577251022999121232715
20
17.0694918146605587594422
0
VERTEX
8
Layer_1
6
CONTINUOUS
62
7
10
50.1169849931647988228178
20
17.1899727150671779440927
0
VERTEX
8
Layer_1
6
CONTINUOUS
62
7
10
50.15254092768638116695
20
17.3211971352565754500574
0
VERTEX
8
Layer_1
6
CONTINUOUS
62
7
10
50.1643929058646520502407
20
17.4631650752287583827638
0
VERTEX
8
Layer_1
6
CONTINUOUS
62
7
10
50.1476807639896406953994
20
17.6336971352567921655918
0
VERTEX
8
Layer_1
6
CONTINUOUS
62
7
10
50.0975443383486549464578
20
17.7905866304841460134867
0
VERTEX
8
Layer_1
6
CONTINUOUS
62
7
10
50.013983628941716119698
20
17.9338335609108199264483
0
VERTEX
8
Layer_1
6
CONTINUOUS
62
7
10
49.8969986357688171096925
20
18.0634379265368067990494
0
VERTEX
8
Layer_1
6
CONTINUOUS
62
7
10
49.7523874488705075691541
20
18.1708731243604901806066
0
VERTEX
8
Layer_1
6
CONTINUOUS
62
7
10
49.5859481582873229399411
20
18.2476125513802429622956
0
VERTEX
8
Layer_1
6
CONTINUOUS
62
7
10
49.3976807640192632220533
20
18.2936562075960615914028
0
VERTEX
8
Layer_1
6
CONTINUOUS
62
7
10
49.1875852660663355209181
20
18.3090040930079496206417
0
VERTEX
8
Layer_1
6
CONTINUOUS
62
7
10
48.988574352013827706287
20
18.2942530698245242604116
0
VERTEX
8
Layer_1
6
CONTINUOUS
62
7
10
48.8117326057635523284262
20
18.2500000002553832700869
0
VERTEX
8
Layer_1
6
CONTINUOUS
62
7
10
48.6570600273154951764809
20
18.1762448843005266496675
0
VERTEX
8
Layer_1
6
CONTINUOUS
62
7
10
48.5245566166696562504512
20
18.0729877219599543991535
0
VERTEX
8
Layer_1
6
CONTINUOUS
62
7
10
48.4183151432669447444823
20
17.9458560712143828652643
0
VERTEX
8
Layer_1
6
CONTINUOUS
62
7
10
48.3424283765482769581467
20
17.8004774900445283947192
0
VERTEX
8
Layer_1
6
CONTINUOUS
62
7
10
48.2968963165136528914445
20
17.6368519784503945402321
0
VERTEX
8
Layer_1
6
CONTINUOUS
62
7
10
48.2817189631630583335209
20
17.4549795364319741963754
0
VERTEX
8
Layer_1
6
CONTINUOUS
62
7
10
48.2884549795289359508388
20
17.3391882676731441392803
0
VERTEX
8
Layer_1
6
CONTINUOUS
62
7
10
48.3086630286372340492562
20
17.2291950889546399139363
0
VERTEX
8
Layer_1
6
CONTINUOUS
62
7
10
48.3423431104879455233458
20
17.1250000002764579676295
0
VERTEX
8
Layer_1
6
CONTINUOUS
62
7
10
48.3894952250810703731077
20
17.0266030016385983003602
0
VERTEX
8
Layer_1
6
CONTINUOUS
62
7
10
48.4473908594562701068753
20
16.9362210098215371090191
0
VERTEX
8
Layer_1
6
CONTINUOUS
62
7
10
48.5133015006532204438372
20
16.8560709416057505904973
0
VERTEX
8
Layer_1
6
CONTINUOUS
62
7
10
48.587227148671914278566
20
16.7861527969912458502222
0
VERTEX
8
Layer_1
6
CONTINUOUS
62
7
10
48.6691678035123374002069
20
16.72646657597801933548
0
VERTEX
8
Layer_1
6
CONTINUOUS
62
7
10
48.6091405183620324237381
20
16.2653478856669337915264
0
VERTEX
8
Layer_1
6
CONTINUOUS
62
7
10
46.5545702591706955786321
20
16.6527967261411689037232
0
VERTEX
8
Layer_1
6
CONTINUOUS
62
7
10
46.5545702592600036950898
20
18.6418826742994241385531
0
VERTEX
8
Layer_1
6
CONTINUOUS
62
7
10
47.0238744884550925462463
20
18.6418826742783529937242
0
VERTEX
8
Layer_1
6
CONTINUOUS
62
7
10
47.0238744883834272059175
20
17.0457025924229625957196
0
VERTEX
8
Layer_1
6
CONTINUOUS
62
7
10
48.0989085947857546443629
20
16.8301500685002096702192
0
VERTEX
8
Layer_1
6
CONTINUOUS
62
7
10
47.9890859481363634131412
20
17.0124488406743097357321
0
VERTEX
8
Layer_1
6
CONTINUOUS
62
7
10
47.910641200532197103712
20
17.1991814464077066304526
0
VERTEX
8
Layer_1
6
CONTINUOUS
62
7
10
47.8635743519732557160751
20
17.390347885700407459808
0
VERTEX
8
Layer_1
6
CONTINUOUS
62
7
10
47.8478854024595250393759
20
17.5859481585524086710848
0
VERTEX
8
Layer_1
6
CONTINUOUS
62
7
10
47.8535555934611949169266
20
17.7143587997527021116184
0
VERTEX
8
Layer_1
6
CONTINUOUS
62
7
10
47.8705661664544521727294
20
17.8376534791516618838614
0
VERTEX
8
Layer_1
6
CONTINUOUS
62
7
10
47.8989171214392968067841
20
17.9558321967492986459547
0
VERTEX
8
Layer_1
6
CONTINUOUS
62
7
10
47.9386084584157217136635
20
18.068894952545605292471
0
VERTEX
8
Layer_1
6
CONTINUOUS
62
7
10
47.9896401773837339987949
20
18.176841746540585376124
0
VERTEX
8
Layer_1
6
CONTINUOUS
62
7
10
48.052012278343326556751
20
18.2796725787342388969137
0
VERTEX
8
Layer_1
6
CONTINUOUS
62
7
10
48.125724761294506492959
20
18.37738744912656585484
0
VERTEX
8
Layer_1
6
CONTINUOUS
62
7
10
48.2107776262372738074191
20
18.4699863577175591444757
0
VERTEX
8
Layer_1
6
CONTINUOUS
62
7
10
48.3047407913160995462931
20
18.5543997274268477326586
0
VERTEX
8
Layer_1
6
CONTINUOUS
62
7
10
48.405184174675454755743
20
18.6275579811740428226585
0
VERTEX
8
Layer_1
6
CONTINUOUS
62
7
10
48.512107776315346541196
20
18.689461118959147967189
0
VERTEX
8
Layer_1
6
CONTINUOUS
62
7
10
48.6255115962357606917976
20
18.7401091407821596135364
0
VERTEX
8
Layer_1
6
CONTINUOUS
62
7
10
48.7453956344367043129751
20
18.7795020466430813144143
0
VERTEX
8
Layer_1
6
CONTINUOUS
62
7
10
48.8717598909181845101557
20
18.8076398365419095171092
0
VERTEX
8
Layer_1
6
CONTINUOUS
62
7
10
49.0046043656802012833396
20
18.8245225104786477743346
0
VERTEX
8
Layer_1
6
CONTINUOUS
62
7
10
49.1439290587227475270993
20
18.830150068453292533377
0
VERTEX
8
Layer_1
6
CONTINUOUS
62
7
10
49.2773703956938788905973
20
18.8252046387065092858393
0
VERTEX
8
Layer_1
6
CONTINUOUS
62
7
10
49.4062073670438195449606
20
18.8103683494783524565719
0
VERTEX
8
Layer_1
6
CONTINUOUS
62
7
10
49.5304399727725837010439
20
18.7856412007688184928611
0
VERTEX
8
Layer_1
6
CONTINUOUS
62
7
10
49.6500682128801784642746
20
18.7510231925779073947069
0
VERTEX
8
Layer_1
6
CONTINUOUS
62
7
10
49.7650920873665896237981
20
18.706514324905622714823
0
VERTEX
8
Layer_1
6
CONTINUOUS
62
7
10
49.8755115962318100741868
20
18.6521145977519609004958
0
VERTEX
8
Layer_1
6
CONTINUOUS
62
7
10
49.9813267394758540262956
20
18.5878240111169219517251
0
VERTEX
8
Layer_1
6
CONTINUOUS
62
7
10
50.0825375170987214801244
20
18.5136425650005094212247
0
VERTEX
8
Layer_1
6
CONTINUOUS
62
7
10
50.1963676671624199343569
20
18.4130712825943092525449
0
VERTEX
8
Layer_1
6
CONTINUOUS
62
7
10
50.2950204638832900627676
20
18.303717599097382162654
0
VERTEX
8
Layer_1
6
CONTINUOUS
62
7
10
50.378495907261338970784
20
18.1855815145097317042655
0
VERTEX
8
Layer_1
6
CONTINUOUS
62
7
10
50.4467939972965666584059
20
18.0586630288313578773796
0
VERTEX
8
Layer_1
6
CONTINUOUS
62
7
10
50.4999147339889731256335
20
17.9229621420622606819961
0
VERTEX
8
Layer_1
6
CONTINUOUS
62
7
10
50.537858117338565477894
20
17.7784788542024401181152
0
VERTEX
8
Layer_1
6
CONTINUOUS
62
7
10
50.5606241473453295043328
20
17.6252131652518961857368
0
VERTEX
8
Layer_1
6
CONTINUOUS
62
7
10
50.5682128240092652049498
20
17.4631650752106288848609
0
VERTEX
8
Layer_1
6
CONTINUOUS
62
7
10
50.5491132332745252142558
20
17.2028478855798354629769
0
VERTEX
8
Layer_1
6
CONTINUOUS
62
7
10
50.5252387448652839907481
20
17.0820898705740837897338
0
VERTEX
8
Layer_1
6
CONTINUOUS
62
7
10
50.4918144610947905448484
20
16.9675989087747680628127
0
VERTEX
8
Layer_1
6
CONTINUOUS
62
7
10
50.4488403819630519819839
20
16.8593750001818847294999
0
VERTEX
8
Layer_1
6
CONTINUOUS
62
7
10
50.396316507470075407582
20
16.7574181447954302370817
0
VERTEX
8
Layer_1
6
CONTINUOUS
62
7
10
50.3342428376158466107881
20
16.6617283426154045855583
0
VERTEX
8
Layer_1
6
CONTINUOUS
62
7
10
50.2626193724003726970295
20
16.5723055936418113276432
0
VERTEX
8
Layer_1
6
CONTINUOUS
62
7
10
50.1831087994089912740492
20
16.4906420533998137045728
0
VERTEX
8
Layer_1
6
CONTINUOUS
62
7
10
50.097373806227018633308
20
16.4182298774145749575837
0
VERTEX
8
Layer_1
6
CONTINUOUS
62
7
10
50.0054143928544618802334
20
16.3550690656860986393895
0
VERTEX
8
Layer_1
6
CONTINUOUS
62
7
10
49.9072305592913352256801
20
16.3011596182143847499901
0
VERTEX
8
Layer_1
6
CONTINUOUS
62
7
10
49.8028223055376173533659
20
16.2565015349994226312447
0
VERTEX
8
Layer_1
6
CONTINUOUS
62
7
10
49.692189631593329579573
20
16.2210948160412264940078
0
VERTEX
8
Layer_1
6
CONTINUOUS
62
7
10
49.5753325374584576934467
20
16.1949394613397892328521
0
VERTEX
8
Layer_1
6
CONTINUOUS
62
7
10
49.4522510231330088004142
20
16.1780354708951108477777
0
SEQEND
0
LINE
8
Layer_1
6
CONTINUOUS
62
7
10
19.9999999996408277525006
20
28
11
19.9999999996408277525006
21
8
0
POLYLINE
8
Layer_1
6
CONTINUOUS
62
7
66
1
10
0
20
0
70
129
40
0
41
0
0
VERTEX
8
Layer_1
6
CONTINUOUS
62
7
10
20
20
10
0
VERTEX
8
Layer_1
6
CONTINUOUS
62
7
10
23.9392310120522964211887
20
10.6945927106480702661884
0
VERTEX
8
Layer_1
6
CONTINUOUS
62
7
10
23.9392310120522964211887
20
9.30540728935192973381163
0
VERTEX
8
Layer_1
6
CONTINUOUS
62
7
10
20
20
10
0
SEQEND
0
LINE
8
Layer_1
6
CONTINUOUS
62
7
10
20
20
10
11
70
21
10
0
POLYLINE
8
Layer_1
6
CONTINUOUS
62
7
66
1
10
0
20
0
70
129
40
0
41
0
0
VERTEX
8
Layer_1
6
CONTINUOUS
62
7
10
70
20
10
0
VERTEX
8
Layer_1
6
CONTINUOUS
62
7
10
66.0607689878853392428937
20
9.30540728970564678945721
0
VERTEX
8
Layer_1
6
CONTINUOUS
62
7
10
66.060768988010067914729
20
10.6945927110017855454771
0
VERTEX
8
Layer_1
6
CONTINUOUS
62
7
10
70
20
10
0
SEQEND
0
LINE
8
Layer_1
6
CONTINUOUS
62
7
10
69.9999999996408206470733
20
8
11
69.9999999996408206470733
21
28
0
POLYLINE
8
Layer_1
6
CONTINUOUS
62
7
66
1
10
0
20
0
70
129
40
0
41
0
0
VERTEX
8
Layer_1
6
CONTINUOUS
62
7
10
42.1241473397896513120031
20
13.0477489768076395648677
0
VERTEX
8
Layer_1
6
CONTINUOUS
62
7
10
42.6398362893121642969163
20
13.0914051841746257309751
0
VERTEX
8
Layer_1
6
CONTINUOUS
62
7
10
42.677950204728261951459
20
12.9148192360163704961451
0
VERTEX
8
Layer_1
6
CONTINUOUS
62
7
10
42.7349931788073931215877
20
12.7615961800818560334392
0
VERTEX
8
Layer_1
6
CONTINUOUS
62
7
10
42.810965211549550701875
20
12.6317360163710787901437
0
VERTEX
8
Layer_1
6
CONTINUOUS
62
7
10
42.9058663029547275868936
20
12.5252387448840387662585
0
VERTEX
8
Layer_1
6
CONTINUOUS
62
7
10
43.0156036835822845887378
20
12.4422748976807646670295
0
VERTEX
8
Layer_1
6
CONTINUOUS
62
7
10
43.13608458399156120322
20
12.3830150068212816449886
0
VERTEX
8
Layer_1
6
CONTINUOUS
62
7
10
43.2673090041825645357676
20
12.3474590723055932528496
0
VERTEX
8
Layer_1
6
CONTINUOUS
62
7
10
43.4092769441552732700984
20
12.3356070941336977142555
0
VERTEX
8
Layer_1
6
CONTINUOUS
62
7
10
43.5798090041825645357676
20
12.3523192360163704961451
0
VERTEX
8
Layer_1
6
CONTINUOUS
62
7
10
43.7366984994076659631901
20
12.4024556616643941708844
0
VERTEX
8
Layer_1
6
CONTINUOUS
62
7
10
43.8799454298305846577932
20
12.4860163710777634094029
0
VERTEX
8
Layer_1
6
CONTINUOUS
62
7
10
44.009549795451320619577
20
12.6030013642564817644143
0
VERTEX
8
Layer_1
6
CONTINUOUS
62
7
10
44.1169849932685096405294
20
12.7476125511596194428421
0
VERTEX
8
Layer_1
6
CONTINUOUS
62
7
10
44.1937244202807875126382
20
12.9140518417462502043236
0
VERTEX
8
Layer_1
6
CONTINUOUS
62
7
10
44.2397680764881542359035
20
13.1023192360163722725019
0
VERTEX
8
Layer_1
6
CONTINUOUS
62
7
10
44.2551159618906098103253
20
13.3124147339699856473771
0
VERTEX
8
Layer_1
6
CONTINUOUS
62
7
10
44.240364938698249375193
20
13.5114256480218273281935
0
VERTEX
8
Layer_1
6
CONTINUOUS
62
7
10
44.1961118691211680697961
20
13.6882673942701238445352
0
VERTEX
8
Layer_1
6
CONTINUOUS
62
7
10
44.1223567531593658941347
20
13.8429399727148716436886
0
VERTEX
8
Layer_1
6
CONTINUOUS
62
7
10
44.0190995908128428482087
20
13.9754433833560725020106
0
VERTEX
8
Layer_1
6
CONTINUOUS
62
7
10
43.8919679400625000198488
20
14.081684856753071244384
0
VERTEX
8
Layer_1
6
CONTINUOUS
62
7
10
43.7465893588892384968858
20
14.1575716234652126956917
0
VERTEX
8
Layer_1
6
CONTINUOUS
62
7
10
43.5829638472930582793197
20
14.2031036834924968559335
0
VERTEX
8
Layer_1
6
CONTINUOUS
62
7
10
43.4010914052739664725777
20
14.2182810368349255014664
0
VERTEX
8
Layer_1
6
CONTINUOUS
62
7
10
43.2853001365154383961453
20
14.2115450204638484876796
0
VERTEX
8
Layer_1
6
CONTINUOUS
62
7
10
43.175306957797843665503
20
14.1913369713506156699623
0
VERTEX
8
Layer_1
6
CONTINUOUS
62
7
10
43.0711118691211680697961
20
14.1576568894952252719577
0
VERTEX
8
Layer_1
6
CONTINUOUS
62
7
10
42.9727148704854258198793
20
14.1105047748976808463794
0
VERTEX
8
Layer_1
6
CONTINUOUS
62
7
10
42.8823328786709652149511
20
14.0526091405184168081632
0
VERTEX
8
Layer_1
6
CONTINUOUS
62
7
10
42.8021828104581345542101
20
13.9866984993178711249584
0
VERTEX
8
Layer_1
6
CONTINUOUS
62
7
10
42.732264665846948048511
20
13.9127728512960437967649
0
VERTEX
8
Layer_1
6
CONTINUOUS
62
7
10
42.6725784448373985924263
20
13.830832196452933047226
0
VERTEX
8
Layer_1
6
CONTINUOUS
62
7
10
42.2114597545236236442179
20
13.8908594815825381374452
0
VERTEX
8
Layer_1
6
CONTINUOUS
62
7
10
42.5989085949056160984583
20
15.9454297407912690687226
0
VERTEX
8
Layer_1
6
CONTINUOUS
62
7
10
44.5879945430638713332883
20
15.9454297407912690687226
0
VERTEX
8
Layer_1
6
CONTINUOUS
62
7
10
44.5879945430638713332883
20
15.4761255115961802175661
0
VERTEX
8
Layer_1
6
CONTINUOUS
62
7
10
42.99181446120847738257
20
15.4761255115961802175661
0
VERTEX
8
Layer_1
6
CONTINUOUS
62
7
10
42.7762619373339916251098
20
14.4010914051841751870597
0
VERTEX
8
Layer_1
6
CONTINUOUS
62
7
10
42.9585607095031605240365
20
14.5109140518417483178837
0
VERTEX
8
Layer_1
6
CONTINUOUS
62
7
10
43.1452933152330331267876
20
14.5893587994542990315949
0
VERTEX
8
Layer_1
6
CONTINUOUS
62
7
10
43.3364597545236165387905
20
14.6364256480218273281935
0
VERTEX
8
Layer_1
6
CONTINUOUS
62
7
10
43.5320600273749178654725
20
14.6521145975443385367498
0
VERTEX
8
Layer_1
6
CONTINUOUS
62
7
10
43.6604706685754635486774
20
14.6464444065484329371429
0
VERTEX
8
Layer_1
6
CONTINUOUS
62
7
10
43.7837653479751907070749
20
14.6294338335607108092518
0
VERTEX
8
Layer_1
6
CONTINUOUS
62
7
10
43.9019440655740993406653
20
14.6010828785811739294331
0
VERTEX
8
Layer_1
6
CONTINUOUS
62
7
10
44.0150068213721894494483
20
14.5613915416098222976871
0
VERTEX
8
Layer_1
6
CONTINUOUS
62
7
10
44.1229536153694610334242
20
14.5103598226466576903704
0
VERTEX
8
Layer_1
6
CONTINUOUS
62
7
10
44.2257844475659140925927
20
14.4479877216916783311262
0
VERTEX
8
Layer_1
6
CONTINUOUS
62
7
10
44.323499317961548626954
20
14.3742752387448842199547
0
VERTEX
8
Layer_1
6
CONTINUOUS
62
7
10
44.4160982265563646365081
20
14.2892223738062753568556
0
VERTEX
8
Layer_1
6
CONTINUOUS
62
7
10
44.5005115962698738485415
20
14.1952592087312403634769
0
VERTEX
8
Layer_1
6
CONTINUOUS
62
7
10
44.5736698500215737794861
20
14.0948158253751696378231
0
VERTEX
8
Layer_1
6
CONTINUOUS
62
7
10
44.6355729878114786401966
20
13.9878922237380614035374
0
VERTEX
8
Layer_1
6
CONTINUOUS
62
7
10
44.6862210096395813252457
20
13.8744884038199174369765
0
VERTEX
8
Layer_1
6
CONTINUOUS
62
7
10
44.7256139155058889400607
20
13.7546043656207359617838
0
VERTEX
8
Layer_1
6
CONTINUOUS
62
7
10
44.7537517054103943792143
20
13.6282401091405169779591
0
VERTEX
8
Layer_1
6
CONTINUOUS
62
7
10
44.7706343793530976427064
20
13.4953956343792622618594
0
VERTEX
8
Layer_1
6
CONTINUOUS
62
7
10
44.7762619373339916251098
20
13.3560709413369718134845
0
VERTEX
8
Layer_1
6
CONTINUOUS
62
7
10
44.7713165075931982528346
20
13.2226296043656219580953
0
VERTEX
8
Layer_1
6
CONTINUOUS
62
7
10
44.7564802183708252414363
20
13.0937926330150080644898
0
VERTEX
8
Layer_1
6
CONTINUOUS
62
7
10
44.7317530696668725909149
20
12.9695600272851301326682
0
VERTEX
8
Layer_1
6
CONTINUOUS
62
7
10
44.697135061481333195843
20
12.8499317871759899389872
0
VERTEX
8
Layer_1
6
CONTINUOUS
62
7
10
44.6526261938142141616481
20
12.73490791268758570709
0
VERTEX
8
Layer_1
6
CONTINUOUS
62
7
10
44.5982264666655083829028
20
12.6244884038199192133334
0
VERTEX
8
Layer_1
6
CONTINUOUS
62
7
10
44.5339358800352229650343
20
12.5186732605729886813606
0
VERTEX
8
Layer_1
6
CONTINUOUS
62
7
10
44.4597544339233508026155
20
12.4174624829467941111716
0
VERTEX
8
Layer_1
6
CONTINUOUS
62
7
10
44.3591831515222594362058
20
12.3036323328785819342102
0
VERTEX
8
Layer_1
6
CONTINUOUS
62
7
10
44.249829468029766132986
20
12.2049795361527966264248
0
VERTEX
8
Layer_1
6
CONTINUOUS
62
7
10
44.1316933834458637875287
20
12.1215040927694399641723
0
VERTEX
8
Layer_1
6
CONTINUOUS
62
7
10
44.0047748977705595052612
20
12.0532060027285137238096
0
VERTEX
8
Layer_1
6
CONTINUOUS
62
7
10
43.8690740110038461807562
20
12.0000852660300161289797
0
VERTEX
8
Layer_1
6
CONTINUOUS
62
7
10
43.7245907231457238140138
20
11.962141882673943626969
0
VERTEX
8
Layer_1
6
CONTINUOUS
62
7
10
43.5713250341962066158885
20
11.9393758526603015468481
0
VERTEX
8
Layer_1
6
CONTINUOUS
62
7
10
43.4092769441552732700984
20
11.9317871759890863359033
0
VERTEX
8
Layer_1
6
CONTINUOUS
62
7
10
43.1489597545236307496452
20
11.9508867667121414513076
0
VERTEX
8
Layer_1
6
CONTINUOUS
62
7
10
43.0282017395168097095848
20
11.9747612551159630100983
0
VERTEX
8
Layer_1
6
CONTINUOUS
62
7
10
42.9137107777159911847775
20
12.0081855388813103502343
0
VERTEX
8
Layer_1
6
CONTINUOUS
62
7
10
42.8054868691211751752235
20
12.0511596180081852480726
0
VERTEX
8
Layer_1
6
CONTINUOUS
62
7
10
42.7035300137323616809226
20
12.1036834924965894799698
0
VERTEX
8
Layer_1
6
CONTINUOUS
62
7
10
42.607840211549550701875
20
12.165757162346523045926
0
VERTEX
8
Layer_1
6
CONTINUOUS
62
7
10
42.5184174625727422380805
20
12.2373806275579823932276
0
VERTEX
8
Layer_1
6
CONTINUOUS
62
7
10
42.4367539223271705850493
20
12.3168912005457045211188
0
VERTEX
8
Layer_1
6
CONTINUOUS
62
7
10
42.364341746338084249146
20
12.4026261937244228761301
0
VERTEX
8
Layer_1
6
CONTINUOUS
62
7
10
42.3011809346054832303707
20
12.4945856070941356819048
0
VERTEX
8
Layer_1
6
CONTINUOUS
62
7
10
42.2472714871293533178687
20
12.5927694406548447147998
0
VERTEX
8
Layer_1
6
CONTINUOUS
62
7
10
42.2026134039097016170672
20
12.6971776944065499748149
0
VERTEX
8
Layer_1
6
CONTINUOUS
62
7
10
42.1672066849465352333937
20
12.8078103683492514619502
0
VERTEX
8
Layer_1
6
CONTINUOUS
62
7
10
42.1410513302398541668481
20
12.9246674624829473998489
0
VERTEX
8
Layer_1
6
CONTINUOUS
62
7
10
42.1241473397896513120031
20
13.0477489768076395648677
0
SEQEND
0
POLYLINE
8
Layer_1
6
CONTINUOUS
62
7
66
1
10
0
20
0
70
129
40
0
41
0
0
VERTEX
8
Layer_1
6
CONTINUOUS
62
7
10
45.2319236017268977434469
20
13.9727148703956345343613
0
VERTEX
8
Layer_1
6
CONTINUOUS
62
7
10
45.2410470669383641961758
20
14.3101125511596176664852
0
VERTEX
8
Layer_1
6
CONTINUOUS
62
7
10
45.2684174625727422380805
20
14.6128922237380614035374
0
VERTEX
8
Layer_1
6
CONTINUOUS
62
7
10
45.3140347886300389745884
20
14.8810538881309675218745
0
VERTEX
8
Layer_1
6
CONTINUOUS
62
7
10
45.3778990451102544056994
20
15.1145975443383342451398
0
VERTEX
8
Layer_1
6
CONTINUOUS
62
7
10
45.4597544339233508026155
20
15.3184686221009549456085
0
VERTEX
8
Layer_1
6
CONTINUOUS
62
7
10
45.5593451569792833311112
20
15.4976125511596176664852
0
VERTEX
8
Layer_1
6
CONTINUOUS
62
7
10
45.676671214278059096614
20
15.652029331514324184127
0
VERTEX
8
Layer_1
6
CONTINUOUS
62
7
10
45.8117326058196709936965
20
15.7817189631650762748905
0
VERTEX
8
Layer_1
6
CONTINUOUS
62
7
10
45.9649556617541819036887
20
15.8843792633015006288133
0
VERTEX
8
Layer_1
6
CONTINUOUS
62
7
10
46.1367667122316760242029
20
15.9577080491132345940741
0
VERTEX
8
Layer_1
6
CONTINUOUS
62
7
10
46.3271657572521320389569
20
16.0017053206002728416024
0
VERTEX
8
Layer_1
6
CONTINUOUS
62
7
10
46.5361527968155783696602
20
16.0163710777626207004687
0
VERTEX
8
Layer_1
6
CONTINUOUS
62
7
10
46.6921896317405398235678
20
16.008270804911326479214
0
VERTEX
8
Layer_1
6
CONTINUOUS
62
7
10
46.8383356071839216383523
20
15.9839699863574367100227
0
VERTEX
8
Layer_1
6
CONTINUOUS
62
7
10
46.9745907231457238140138
20
15.9434686221009567219653
0
VERTEX
8
Layer_1
6
CONTINUOUS
62
7
10
47.1009549796259392451248
20
15.8867667121418829623281
0
VERTEX
8
Layer_1
6
CONTINUOUS
62
7
10
47.2170873125045176266212
20
15.8148021828103679808919
0
VERTEX
8
Layer_1
6
CONTINUOUS
62
7
10
47.3226466576614086534391
20
15.7285129604365607747241
0
VERTEX
8
Layer_1
6
CONTINUOUS
62
7
10
47.4176330150966052201511
20
15.6278990450204631201814
0
VERTEX
8
Layer_1
6
CONTINUOUS
62
7
10
47.5020463848101144321845
20
15.512960436562073240907
0
VERTEX
8
Layer_1
6
CONTINUOUS
62
7
10
47.5769099591620943101589
20
15.3842087312414736999244
0
VERTEX
8
Layer_1
6
CONTINUOUS
62
7
10
47.6432469305127099801211
20
15.2421555252387452839002
0
VERTEX
8
Layer_1
6
CONTINUOUS
62
7
10
47.7010572988619614420713
20
15.0868008185538897691913
0
VERTEX
8
Layer_1
6
CONTINUOUS
62
7
10
47.7503410642098486960094
20
14.9181446111869036030839
0
VERTEX
8
Layer_1
6
CONTINUOUS
62
7
10
47.7897339700761492053971
20
14.7275750341064117776568
0
VERTEX
8
Layer_1
6
CONTINUOUS
62
7
10
47.8178717599806475391233
20
14.5064802182810375086319
0
VERTEX
8
Layer_1
6
CONTINUOUS
62
7
10
47.8347544339233508026155
20
14.2548601637107772432955
0
VERTEX
8
Layer_1
6
CONTINUOUS
62
7
10
47.8403819919042518904462
20
13.9727148703956345343613
0
VERTEX
8
Layer_1
6
CONTINUOUS
62
7
10
47.8313437927228051194106
20
13.6377046384720337357521
0
VERTEX
8
Layer_1
6
CONTINUOUS
62
7
10
47.804229195178464806304
20
13.3366302864938610639456
0
VERTEX
8
Layer_1
6
CONTINUOUS
62
7
10
47.7590381992712380565536
20
13.0694918144611200716554
0
VERTEX
8
Layer_1
6
CONTINUOUS
62
7
10
47.695770805001117764732
20
12.8362892223738072061678
0
VERTEX
8
Layer_1
6
CONTINUOUS
62
7
10
47.6145122783981094016781
20
12.6323328785811739294331
0
VERTEX
8
Layer_1
6
CONTINUOUS
62
7
10
47.5153478854922468599398
20
12.4529331514324699270446
0
VERTEX
8
Layer_1
6
CONTINUOUS
62
7
10
47.3982776262835159286624
20
12.2980900409276934226455
0
VERTEX
8
Layer_1
6
CONTINUOUS
62
7
10
47.2633015007719166078459
20
12.1678035470668497453062
0
VERTEX
8
Layer_1
6
CONTINUOUS
62
7
10
47.1099079127773805453216
20
12.064546384720328475737
0
VERTEX
8
Layer_1
6
CONTINUOUS
62
7
10
46.9375852661198109672114
20
11.9907912687585280764324
0
VERTEX
8
Layer_1
6
CONTINUOUS
62
7
10
46.7463335607992078735151
20
11.9465381991814467710356
0
VERTEX
8
Layer_1
6
CONTINUOUS
62
7
10
46.5361527968155783696602
20
11.9317871759890863359033
0
VERTEX
8
Layer_1
6
CONTINUOUS
62
7
10
46.395421214278059096614
20
11.9382673942701238445352
0
VERTEX
8
Layer_1
6
CONTINUOUS
62
7
10
46.2624488404717837397584
20
11.9577080491132328177173
0
VERTEX
8
Layer_1
6
CONTINUOUS
62
7
10
46.1372356753967522990934
20
11.9901091405184185845201
0
VERTEX
8
Layer_1
6
CONTINUOUS
62
7
10
46.0197817190529576691915
20
12.035470668485675815873
0
VERTEX
8
Layer_1
6
CONTINUOUS
62
7
10
45.9100869714404069554803
20
12.093792633015006288133
0
VERTEX
8
Layer_1
6
CONTINUOUS
62
7
10
45.8081514325591001579596
20
12.1650750341064117776568
0
VERTEX
8
Layer_1
6
CONTINUOUS
62
7
10
45.7139751024090301712022
20
12.2493178717598922844445
0
VERTEX
8
Layer_1
6
CONTINUOUS
62
7
10
45.6275579809902041006353
20
12.3465211459754442557823
0
VERTEX
8
Layer_1
6
CONTINUOUS
62
7
10
45.5348311733503692266822
20
12.4811562073669861661074
0
VERTEX
8
Layer_1
6
CONTINUOUS
62
7
10
45.4544679400625142307035
20
12.6354024556616657548602
0
VERTEX
8
Layer_1
6
CONTINUOUS
62
7
10
45.3864682811266320072718
20
12.8092598908594830220409
0
VERTEX
8
Layer_1
6
CONTINUOUS
62
7
10
45.3308321965427296618145
20
13.0027285129604379676493
0
VERTEX
8
Layer_1
6
CONTINUOUS
62
7
10
45.2875596863108000889042
20
13.2158083219645305916856
0
VERTEX
8
Layer_1
6
CONTINUOUS
62
7
10
45.2566507504308503939683
20
13.4484993178717608941497
0
VERTEX
8
Layer_1
6
CONTINUOUS
62
7
10
45.2381053889028805770067
20
13.7008015006821288750416
0
VERTEX
8
Layer_1
6
CONTINUOUS
62
7
10
45.2319236017268977434469
20
13.9727148703956345343613
0
SEQEND
0
POLYLINE
8
Layer_1
6
CONTINUOUS
62
7
66
1
10
0
20
0
70
129
40
0
41
0
0
VERTEX
8
Layer_1
6
CONTINUOUS
62
7
10
45.7366984994076659631901
20
13.9727148703956345343613
0
VERTEX
8
Layer_1
6
CONTINUOUS
62
7
10
45.7511084584799760932583
20
13.5214017735334248726531
0
VERTEX
8
Layer_1
6
CONTINUOUS
62
7
10
45.7943383356968922726082
20
13.1524556616643941708844
0
VERTEX
8
Layer_1
6
CONTINUOUS
62
7
10
45.826760743609575854407
20
12.9988702251023191536206
0
VERTEX
8
Layer_1
6
CONTINUOUS
62
7
10
45.8663881310584145012399
20
12.8658765347885406526984
0
VERTEX
8
Layer_1
6
CONTINUOUS
62
7
10
45.9132204980434082131069
20
12.7534745907230551154043
0
VERTEX
8
Layer_1
6
CONTINUOUS
62
7
10
45.967257844564556990008
20
12.661664392905866094452
0
VERTEX
8
Layer_1
6
CONTINUOUS
62
7
10
46.0892735335140741881332
20
12.5190143246930425391383
0
VERTEX
8
Layer_1
6
CONTINUOUS
62
7
10
46.1553333902671454325173
20
12.4629732264665751273469
0
VERTEX
8
Layer_1
6
CONTINUOUS
62
7
10
46.2247612552057489665458
20
12.417121418826738477037
0
VERTEX
8
Layer_1
6
CONTINUOUS
62
7
10
46.2975571283298918956461
20
12.3814589017735343645654
0
VERTEX
8
Layer_1
6
CONTINUOUS
62
7
10
46.3737210096395813252457
20
12.3559856753069574608617
0
VERTEX
8
Layer_1
6
CONTINUOUS
62
7
10
46.453252899134810149917
20
12.3407017394270113186394
0
VERTEX
8
Layer_1
6
CONTINUOUS
62
7
10
46.5361527968155712642329
20
12.3356070941336977142555
0
VERTEX
8
Layer_1
6
CONTINUOUS
62
7
10
46.6190526944963323785487
20
12.3407230559345180154196
0
VERTEX
8
Layer_1
6
CONTINUOUS
62
7
10
46.69858458399156120322
20
12.3560709413369735898414
0
VERTEX
8
Layer_1
6
CONTINUOUS
62
7
10
46.7747484653012506328196
20
12.3816507503410662138776
0
VERTEX
8
Layer_1
6
CONTINUOUS
62
7
10
46.8475443384253935619199
20
12.4174624829467958875284
0
VERTEX
8
Layer_1
6
CONTINUOUS
62
7
10
46.9169722033640113068031
20
12.4635061391541626107937
0
VERTEX
8
Layer_1
6
CONTINUOUS
62
7
10
46.9830320601170754457598
20
12.5197817189631663836735
0
VERTEX
8
Layer_1
6
CONTINUOUS
62
7
10
47.1050477490665997493124
20
12.6630286493860850782767
0
VERTEX
8
Layer_1
6
CONTINUOUS
62
7
10
47.1590850955877485262135
20
12.7551159618008185248073
0
VERTEX
8
Layer_1
6
CONTINUOUS
62
7
10
47.2059174625727422380805
20
12.8676671214188260705669
0
VERTEX
8
Layer_1
6
CONTINUOUS
62
7
10
47.2455448500215808849134
20
13.0006821282401077155555
0
VERTEX
8
Layer_1
6
CONTINUOUS
62
7
10
47.2779672579342644667122
20
13.15416098226466523613
0
VERTEX
8
Layer_1
6
CONTINUOUS
62
7
10
47.3211971351511806460621
20
13.5225102319236007986092
0
VERTEX
8
Layer_1
6
CONTINUOUS
62
7
10
47.3356070942234907761303
20
13.9727148703956345343613
0
VERTEX
8
Layer_1
6
CONTINUOUS
62
7
10
47.3211971351511806460621
20
14.4251364256480218983825
0
VERTEX
8
Layer_1
6
CONTINUOUS
62
7
10
47.2779672579342644667122
20
14.7946793997271495157975
0
VERTEX
8
Layer_1
6
CONTINUOUS
62
7
10
47.2455448500215808849134
20
14.9483714188267402533938
0
VERTEX
8
Layer_1
6
CONTINUOUS
62
7
10
47.2059174625727422380805
20
15.0813437926330156102495
0
VERTEX
8
Layer_1
6
CONTINUOUS
62
7
10
47.1590850955877485262135
20
15.1935965211459755863643
0
VERTEX
8
Layer_1
6
CONTINUOUS
62
7
10
47.1050477490665997493124
20
15.2851296043656219580953
0
VERTEX
8
Layer_1
6
CONTINUOUS
62
7
10
46.9826909959970180352684
20
15.4271828103683503741195
0
VERTEX
8
Layer_1
6
CONTINUOUS
62
7
10
46.9162048090938839095543
20
15.4829894270122778721088
0
VERTEX
8
Layer_1
6
CONTINUOUS
62
7
10
46.8461800819451781308089
20
15.5286493860845844494634
0
VERTEX
8
Layer_1
6
CONTINUOUS
62
7
10
46.7726168145509149098871
20
15.5641626875852665534694
0
VERTEX
8
Layer_1
6
CONTINUOUS
62
7
10
46.6955150069110729305066
20
15.589529331514324184127
0
VERTEX
8
Layer_1
6
CONTINUOUS
62
7
10
46.6148746590256664035223
20
15.6047493178717608941497
0
VERTEX
8
Layer_1
6
CONTINUOUS
62
7
10
46.5306957708947024343615
20
15.6098226466575713544671
0
VERTEX
8
Layer_1
6
CONTINUOUS
62
7
10
46.3700545703489979132428
20
15.5919167803547047412849
0
VERTEX
8
Layer_1
6
CONTINUOUS
62
7
10
46.2264665758060289135756
20
15.5381991814461102308087
0
VERTEX
8
Layer_1
6
CONTINUOUS
62
7
10
46.0999317872657812245052
20
15.4486698499317860466817
0
VERTEX
8
Layer_1
6
CONTINUOUS
62
7
10
45.990450204728261951459
20
15.323328785811732188904
0
VERTEX
8
Layer_1
6
CONTINUOUS
62
7
10
45.9309771487937439360394
20
15.2222459072305582594709
0
VERTEX
8
Layer_1
6
CONTINUOUS
62
7
10
45.8794338336505020947698
20
15.1018076398362879331216
0
VERTEX
8
Layer_1
6
CONTINUOUS
62
7
10
45.8358202592985293222227
20
14.9620139836289212098563
0
VERTEX
8
Layer_1
6
CONTINUOUS
62
7
10
45.800136425737818512971
20
14.802864938608458089675
0
VERTEX
8
Layer_1
6
CONTINUOUS
62
7
10
45.7723823329683767724418
20
14.6243605047748985725775
0
VERTEX
8
Layer_1
6
CONTINUOUS
62
7
10
45.7525579809902041006353
20
14.4265006821282408822071
0
VERTEX
8
Layer_1
6
CONTINUOUS
62
7
10
45.7366984994076659631901
20
13.9727148703956345343613
0
SEQEND
0
LINE
8
Layer_1
6
CONTINUOUS
62
7
10
12
20
30
11
7.5
21
30
0
POLYLINE
8
Layer_1
6
CONTINUOUS
62
7
66
1
10
0
20
0
70
129
40
0
41
0
0
VERTEX
8
Layer_1
6
CONTINUOUS
62
7
10
9.5
20
30
0
VERTEX
8
Layer_1
6
CONTINUOUS
62
7
10
8.805407289528787373456
20
33.9392310120834821418612
0
VERTEX
8
Layer_1
6
CONTINUOUS
62
7
10
10.1945927108249279058327
20
33.9392310120211107005161
0
VERTEX
8
Layer_1
6
CONTINUOUS
62
7
10
9.5
20
30
0
SEQEND
0
LINE
8
Layer_1
6
CONTINUOUS
62
7
10
9.5
20
30
11
9.5
21
70
0
POLYLINE
8
Layer_1
6
CONTINUOUS
62
7
66
1
10
0
20
0
70
129
40
0
41
0
0
VERTEX
8
Layer_1
6
CONTINUOUS
62
7
10
9.5
20
70
0
VERTEX
8
Layer_1
6
CONTINUOUS
62
7
10
10.1945927101174973472553
20
66.0607689878541464167938
0
VERTEX
8
Layer_1
6
CONTINUOUS
62
7
10
8.80540728882135326216485
20
66.0607689880412607408289
0
VERTEX
8
Layer_1
6
CONTINUOUS
62
7
10
9.5
20
70
0
SEQEND
0
LINE
8
Layer_1
6
CONTINUOUS
62
7
10
7.5
20
70
11
12
21
70
0
POLYLINE
8
Layer_1
6
CONTINUOUS
62
7
66
1
10
0
20
0
70
129
40
0
41
0
0
VERTEX
8
Layer_1
6
CONTINUOUS
62
7
10
7.49999999994156762994635
20
48.6984993180513470178994
0
VERTEX
8
Layer_1
6
CONTINUOUS
62
7
10
6.54229195082833392405064
20
48.6984993180943419588402
0
VERTEX
8
Layer_1
6
CONTINUOUS
62
7
10
6.54229195075042291307454
20
46.9631650752566898177065
0
VERTEX
8
Layer_1
6
CONTINUOUS
62
7
10
6.09208731227839095367926
20
46.9631650752769047585389
0
VERTEX
8
Layer_1
6
CONTINUOUS
62
7
10
3.4999999999456097299344
20
48.7885402459253398887995
0
VERTEX
8
Layer_1
6
CONTINUOUS
62
7
10
3.49999999996361754739382
20
49.1896316511095150758592
0
VERTEX
8
Layer_1
6
CONTINUOUS
62
7
10
6.09208731237835099392441
20
49.1896316509931352811691
0
VERTEX
8
Layer_1
6
CONTINUOUS
62
7
10
6.092087312402606258388
20
49.7298772171595757640716
0
VERTEX
8
Layer_1
6
CONTINUOUS
62
7
10
6.54229195087463910596171
20
49.7298772171393679286666
0
VERTEX
8
Layer_1
6
CONTINUOUS
62
7
10
6.54229195085038384149811
20
49.1896316509729274457641
0
VERTEX
8
Layer_1
6
CONTINUOUS
62
7
10
7.49999999996361754739382
20
49.1896316509299253993959
0
VERTEX
8
Layer_1
6
CONTINUOUS
62
7
10
7.49999999994156762994635
20
48.6984993180513470178994
0
SEQEND
0
POLYLINE
8
Layer_1
6
CONTINUOUS
62
7
66
1
10
0
20
0
70
129
40
0
41
0
0
VERTEX
8
Layer_1
6
CONTINUOUS
62
7
10
6.09208731235630107647694
20
48.6984993181145568996726
0
VERTEX
8
Layer_1
6
CONTINUOUS
62
7
10
4.28854024550773349488964
20
48.6984993181955303498398
0
VERTEX
8
Layer_1
6
CONTINUOUS
62
7
10
6.09208731230007316526098
20
47.4461118692741763425147
0
VERTEX
8
Layer_1
6
CONTINUOUS
62
7
10
6.09208731235630107647694
20
48.6984993181145568996726
0
SEQEND
0
POLYLINE
8
Layer_1
6
CONTINUOUS
62
7
66
1
10
0
20
0
70
129
40
0
41
0
0
VERTEX
8
Layer_1
6
CONTINUOUS
62
7
10
5.52728512961477846943126
20
50.2319236019052652864048
0
VERTEX
8
Layer_1
6
CONTINUOUS
62
7
10
5.18988744885120389938038
20
50.2410470671318734048327
0
VERTEX
8
Layer_1
6
CONTINUOUS
62
7
10
4.88710777627398851308271
20
50.2684174627798512346999
0
VERTEX
8
Layer_1
6
CONTINUOUS
62
7
10
4.61894611188313053418142
20
50.3140347888491845651515
0
VERTEX
8
Layer_1
6
CONTINUOUS
62
7
10
4.38540245567863085085492
20
50.3778990453398876070423
0
VERTEX
8
Layer_1
6
CONTINUOUS
62
7
10
4.18153137791968632086537
20
50.4597544341621428998224
0
VERTEX
8
Layer_1
6
CONTINUOUS
62
7
10
4.00238744886549469015335
20
50.5593451572261187720869
0
VERTEX
8
Layer_1
6
CONTINUOUS
62
7
10
3.84797066851605551462967
20
50.6766712145318223292634
0
VERTEX
8
Layer_1
6
CONTINUOUS
62
7
10
3.71828103687136879429431
20
50.8117326060792535713517
0
VERTEX
8
Layer_1
6
CONTINUOUS
62
7
10
3.61562073674182204996441
20
50.9649556620183759036991
0
VERTEX
8
Layer_1
6
CONTINUOUS
62
7
10
3.54229195093780324654631
20
51.1367667124991598370798
0
VERTEX
8
Layer_1
6
CONTINUOUS
62
7
10
3.49829467945931193995079
20
51.3271657575215982660666
0
VERTEX
8
Layer_1
6
CONTINUOUS
62
7
10
3.48362892230634813017787
20
51.5361527970856982960868
0
VERTEX
8
Layer_1
6
CONTINUOUS
62
7
10
3.49172919516464963507474
20
51.6921896320102973731991
0
VERTEX
8
Layer_1
6
CONTINUOUS
62
7
10
3.51603001372509904598473
20
51.8383356074525920575979
0
VERTEX
8
Layer_1
6
CONTINUOUS
62
7
10
3.55653137798769680699706
20
51.9745907234125752438558
0
VERTEX
8
Layer_1
6
CONTINUOUS
62
7
10
3.61323328795244247402252
20
52.1009549798902469319728
0
VERTEX
8
Layer_1
6
CONTINUOUS
62
7
10
3.68519781728917106278232
20
52.2170873127655994494489
0
VERTEX
8
Layer_1
6
CONTINUOUS
62
7
10
3.77148703966771670081926
20
52.3226466579186109129296
0
VERTEX
8
Layer_1
6
CONTINUOUS
62
7
10
3.87210095508807983222255
20
52.4176330153492955332695
0
VERTEX
8
Layer_1
6
CONTINUOUS
62
7
10
3.98703956355026001290298
20
52.5020463850576390996139
0
VERTEX
8
Layer_1
6
CONTINUOUS
62
7
10
4.11579126887422130920413
20
52.5769099594038351597192
0
VERTEX
8
Layer_1
6
CONTINUOUS
62
7
10
4.25784447487992778746957
20
52.6432469307480701559143
0
VERTEX
8
Layer_1
6
CONTINUOUS
62
7
10
4.41319918156738033587771
20
52.7010572990903440881993
0
VERTEX
8
Layer_1
6
CONTINUOUS
62
7
10
4.58185538893657806625015
20
52.7503410644306569565742
0
VERTEX
8
Layer_1
6
CONTINUOUS
62
7
10
4.77242496601883736673244
20
52.7897339702884096368507
0
VERTEX
8
Layer_1
6
CONTINUOUS
62
7
10
4.993519781845476401827
20
52.8178717601829816885584
0
VERTEX
8
Layer_1
6
CONTINUOUS
62
7
10
5.24513983641649339517699
20
52.8347544341143873225519
0
VERTEX
8
Layer_1
6
CONTINUOUS
62
7
10
5.52728512973188923496082
20
52.840381992082619433404
0
VERTEX
8
Layer_1
6
CONTINUOUS
62
7
10
5.8622953616550841360322
20
52.8313437928861304726524
0
VERTEX
8
Layer_1
6
CONTINUOUS
62
7
10
6.16336971363203911522533
20
52.8042291953282756367116
0
VERTEX
8
Layer_1
6
CONTINUOUS
62
7
10
6.43050818566275239618335
20
52.7590381994090549255816
0
VERTEX
8
Layer_1
6
CONTINUOUS
62
7
10
6.6637107777472248670847
20
52.695770805128461233835
0
VERTEX
8
Layer_1
6
CONTINUOUS
62
7
10
6.86766712153620950687127
20
52.6145122785163010803444
0
VERTEX
8
Layer_1
6
CONTINUOUS
62
7
10
7.04706684868046195902025
20
52.5153478856023809839826
0
VERTEX
8
Layer_1
6
CONTINUOUS
62
7
10
7.20190995917998044717478
20
52.3982776263867009447495
0
VERTEX
8
Layer_1
6
CONTINUOUS
62
7
10
7.3321964530347658595133
20
52.2633015008692538572177
0
VERTEX
8
Layer_1
6
CONTINUOUS
62
7
10
7.43545361537440019361611
20
52.1099079128700779506289
0
VERTEX
8
Layer_1
6
CONTINUOUS
62
7
10
7.5092087313284636707067
20
51.9375852662091901379426
0
VERTEX
8
Layer_1
6
CONTINUOUS
62
7
10
7.5534618008969580671419
20
51.7463335608865975245863
0
VERTEX
8
Layer_1
6
CONTINUOUS
62
7
10
7.56821282407988249474329
20
51.5361527969023143214145
0
VERTEX
8
Layer_1
6
CONTINUOUS
62
7
10
7.56173260579252737301204
20
51.3954212143650863708899
0
VERTEX
8
Layer_1
6
CONTINUOUS
62
7
10
7.54229195094344717631429
20
51.2624488405596849815993
0
VERTEX
8
Layer_1
6
CONTINUOUS
62
7
10
7.50989085953264101647164
20
51.1372356754861030481152
0
VERTEX
8
Layer_1
6
CONTINUOUS
62
7
10
7.4645293315601097816625
20
51.019781719144347675865
0
VERTEX
8
Layer_1
6
CONTINUOUS
62
7
10
7.40620736702585347188688
20
50.9100869715344188648487
0
VERTEX
8
Layer_1
6
CONTINUOUS
62
7
10
7.33492496592987208714476
20
50.808151432656309509639
0
VERTEX
8
Layer_1
6
CONTINUOUS
62
7
10
7.25068212827216473925773
20
50.7139751025100196102358
0
VERTEX
8
Layer_1
6
CONTINUOUS
62
7
10
7.15347885405273231640422
20
50.6275579810955562720665
0
VERTEX
8
Layer_1
6
CONTINUOUS
62
7
10
7.01884379265702662564763
20
50.5348311734617681167947
0
VERTEX
8
Layer_1
6
CONTINUOUS
62
7
10
6.86459754435873925615397
20
50.4544679401808338070623
0
VERTEX
8
Layer_1
6
CONTINUOUS
62
7
10
6.6907401091578693197448
20
50.3864682812527604482966
0
VERTEX
8
Layer_1
6
CONTINUOUS
62
7
10
6.49727148705441681642014
20
50.3308321966775409350703
0
VERTEX
8
Layer_1
6
CONTINUOUS
62
7
10
6.28419167804838085800156
20
50.2875596864551823728107
0
VERTEX
8
Layer_1
6
CONTINUOUS
62
7
10
6.05150068213976233266749
20
50.2566507505856847615178
0
VERTEX
8
Layer_1
6
CONTINUOUS
62
7
10
5.79919849932856124041791
20
50.2381053890690481011916
0
VERTEX
8
Layer_1
6
CONTINUOUS
62
7
10
5.52728512961477846943126
20
50.2319236019052652864048
0
SEQEND
0
POLYLINE
8
Layer_1
6
CONTINUOUS
62
7
66
1
10
0
20
0
70
129
40
0
41
0
0
VERTEX
8
Layer_1
6
CONTINUOUS
62
7
10
5.52728512963744122998833
20
50.7366984995860264007206
0
VERTEX
8
Layer_1
6
CONTINUOUS
62
7
10
5.97859822650029748558609
20
50.7511084586380718519649
0
VERTEX
8
Layer_1
6
CONTINUOUS
62
7
10
6.34754433837126974538023
20
50.7943383358384252801443
0
VERTEX
8
Layer_1
6
CONTINUOUS
62
7
10
6.50112977493479871071713
20
50.8267607437442165974062
0
VERTEX
8
Layer_1
6
CONTINUOUS
62
7
10
6.63412346525035712119234
20
50.8663881311870866852587
0
VERTEX
8
Layer_1
6
CONTINUOUS
62
7
10
6.74652540931794497680585
20
50.9132204981670355437018
0
VERTEX
8
Layer_1
6
CONTINUOUS
62
7
10
6.83833560713756050120082
20
50.9672578446840560673081
0
VERTEX
8
Layer_1
6
CONTINUOUS
62
7
10
6.9809856753558623410072
20
51.0892735336271712753842
0
VERTEX
8
Layer_1
6
CONTINUOUS
62
7
10
7.03702677358529449236357
20
51.1553333903777271984836
0
VERTEX
8
Layer_1
6
CONTINUOUS
62
7
10
7.08287858122824776074822
20
51.2247612553142772640058
0
VERTEX
8
Layer_1
6
CONTINUOUS
62
7
10
7.11854109828472303433955
20
51.2975571284368214719507
0
VERTEX
8
Layer_1
6
CONTINUOUS
62
7
10
7.14401432475471764860231
20
51.3737210097453669277456
0
VERTEX
8
Layer_1
6
CONTINUOUS
62
7
10
7.15929826063823426807176
20
51.4532528992399136313907
0
VERTEX
8
Layer_1
6
CONTINUOUS
62
7
10
7.16439290593527111639105
20
51.536152796920447372031
0
VERTEX
8
Layer_1
6
CONTINUOUS
62
7
10
7.15927694413817494734076
20
51.6190526946014429654497
0
VERTEX
8
Layer_1
6
CONTINUOUS
62
7
10
7.14392905873928985016619
20
51.6985845840973610165747
0
VERTEX
8
Layer_1
6
CONTINUOUS
62
7
10
7.11834924973861582486734
20
51.7747484654081944199788
0
VERTEX
8
Layer_1
6
CONTINUOUS
62
7
10
7.08253751713615464780105
20
51.847544338533943175662
0
VERTEX
8
Layer_1
6
CONTINUOUS
62
7
10
7.03649386093190454261048
20
51.9169722034746143890516
0
VERTEX
8
Layer_1
6
CONTINUOUS
62
7
10
6.98021828112586639747406
20
51.9830320602302151655749
0
VERTEX
8
Layer_1
6
CONTINUOUS
62
7
10
6.83697135070842421100679
20
52.1050477491861698808862
0
VERTEX
8
Layer_1
6
CONTINUOUS
62
7
10
6.7448840382961163797404
20
52.159085095711446911082
0
VERTEX
8
Layer_1
6
CONTINUOUS
62
7
10
6.63233287868021115230022
20
52.2059174627014925818003
0
VERTEX
8
Layer_1
6
CONTINUOUS
62
7
10
6.49931787186070764050783
20
52.2455448501563068930409
0
VERTEX
8
Layer_1
6
CONTINUOUS
62
7
10
6.34583901783760673254164
20
52.2779672580758898448039
0
VERTEX
8
Layer_1
6
CONTINUOUS
62
7
10
5.97748976818061183990949
20
52.3211971353093474590423
0
VERTEX
8
Layer_1
6
CONTINUOUS
62
7
10
5.52728512970922647440375
20
52.3356070944018583190882
0
VERTEX
8
Layer_1
6
CONTINUOUS
62
7
10
5.07486357445619162831463
20
52.3211971353498697112627
0
VERTEX
8
Layer_1
6
CONTINUOUS
62
7
10
4.70532060037512422923101
20
52.2779672581495447047928
0
VERTEX
8
Layer_1
6
CONTINUOUS
62
7
10
4.55162858127407865538316
20
52.2455448502437604929582
0
VERTEX
8
Layer_1
6
CONTINUOUS
62
7
10
4.41865620746602338897446
20
52.2059174628008832996784
0
VERTEX
8
Layer_1
6
CONTINUOUS
62
7
10
4.30640347895096020636174
20
52.1590850958209273358079
0
VERTEX
8
Layer_1
6
CONTINUOUS
62
7
10
4.214870395728889107545
20
52.1050477493038926013469
0
VERTEX
8
Layer_1
6
CONTINUOUS
62
7
10
4.07281718972066641981655
20
51.98269099624069156107
0
VERTEX
8
Layer_1
6
CONTINUOUS
62
7
10
4.01701057307375286598017
20
51.9162048093400585457857
0
VERTEX
8
Layer_1
6
CONTINUOUS
62
7
10
3.97135061399830302519831
20
51.8461800821933991301194
0
VERTEX
8
Layer_1
6
CONTINUOUS
62
7
10
3.93583731249431822973861
20
51.7726168148007275249256
0
VERTEX
8
Layer_1
6
CONTINUOUS
62
7
10
3.91047066856179803551186
20
51.6955150071620295193497
0
VERTEX
8
Layer_1
6
CONTINUOUS
62
7
10
3.89525068220074199842884
20
51.6148746592773122188191
0
VERTEX
8
Layer_1
6
CONTINUOUS
62
7
10
3.89017735341115100666798
20
51.5306957711465685179064
0
VERTEX
8
Layer_1
6
CONTINUOUS
62
7
10
3.90808321970680383472541
20
51.3700545706000610834963
0
VERTEX
8
Layer_1
6
CONTINUOUS
62
7
10
3.9618008186089519462314
20
51.2264665760546762385275
0
VERTEX
8
Layer_1
6
CONTINUOUS
62
7
10
4.05133015011759578527517
20
51.099931787510413983
0
VERTEX
8
Layer_1
6
CONTINUOUS
62
7
10
4.17667121423273535185672
20
50.9904502049672672114866
0
VERTEX
8
Layer_1
6
CONTINUOUS
62
7
10
4.27775409281123852878181
20
50.9309771490282088279855
0
VERTEX
8
Layer_1
6
CONTINUOUS
62
7
10
4.39819236020319426216929
20
50.8794338338795597564967
0
VERTEX
8
Layer_1
6
CONTINUOUS
62
7
10
4.53798601640860255201915
20
50.8358202595212986807383
0
VERTEX
8
Layer_1
6
CONTINUOUS
62
7
10
4.69713506142746517468822
20
50.8001364259534469169921
0
VERTEX
8
Layer_1
6
CONTINUOUS
62
7
10
4.87563949525977946564126
20
50.7723823331759902544036
0
VERTEX
8
Layer_1
6
CONTINUOUS
62
7
10
5.07349931790554720123509
20
50.7525579811889357984001
0
VERTEX
8
Layer_1
6
CONTINUOUS
62
7
10
5.52728512963744122998833
20
50.7366984995860264007206
0
SEQEND
0
ENDSEC
0
EOF
